G04 #@! TF.GenerationSoftware,KiCad,Pcbnew,(5.1.9)-1*
G04 #@! TF.CreationDate,2021-07-07T12:50:41-04:00*
G04 #@! TF.ProjectId,ESC_5A,4553435f-3541-42e6-9b69-6361645f7063,rev?*
G04 #@! TF.SameCoordinates,Original*
G04 #@! TF.FileFunction,Soldermask,Top*
G04 #@! TF.FilePolarity,Negative*
%FSLAX46Y46*%
G04 Gerber Fmt 4.6, Leading zero omitted, Abs format (unit mm)*
G04 Created by KiCad (PCBNEW (5.1.9)-1) date 2021-07-07 12:50:41*
%MOMM*%
%LPD*%
G01*
G04 APERTURE LIST*
%ADD10R,1.890000X1.140000*%
%ADD11O,1.700000X1.700000*%
%ADD12R,1.700000X1.700000*%
%ADD13R,5.499999X5.499999*%
%ADD14R,0.199200X0.704800*%
%ADD15R,0.704800X0.199200*%
%ADD16R,1.400000X2.100000*%
%ADD17C,3.800000*%
%ADD18R,3.800000X3.800000*%
%ADD19C,0.650000*%
%ADD20O,1.050000X2.100000*%
%ADD21O,1.000000X2.000000*%
%ADD22R,10.750000X9.450000*%
%ADD23R,1.000000X3.800000*%
%ADD24R,1.500000X0.650000*%
%ADD25C,2.200000*%
%ADD26R,1.500000X1.000000*%
%ADD27R,0.460000X0.420000*%
%ADD28R,3.400000X1.800000*%
%ADD29R,1.820000X1.070000*%
G04 APERTURE END LIST*
D10*
G04 #@! TO.C,Z1*
X134855000Y-157910000D03*
X134855000Y-153710000D03*
G04 #@! TD*
D11*
G04 #@! TO.C,J6*
X173355000Y-161925000D03*
X173355000Y-159385000D03*
D12*
X173355000Y-156845000D03*
G04 #@! TD*
D13*
G04 #@! TO.C,U1*
X145415000Y-144145000D03*
D14*
X142665000Y-140692602D03*
X143164999Y-140692602D03*
X143665001Y-140692602D03*
X144165000Y-140692602D03*
X144664999Y-140692602D03*
X145165000Y-140692602D03*
X145665000Y-140692602D03*
X146165001Y-140692602D03*
X146665000Y-140692602D03*
X147164999Y-140692602D03*
X147665001Y-140692602D03*
X148165000Y-140692602D03*
D15*
X148867398Y-141395000D03*
X148867398Y-141894999D03*
X148867398Y-142395001D03*
X148867398Y-142895000D03*
X148867398Y-143394999D03*
X148867398Y-143895000D03*
X148867398Y-144395000D03*
X148867398Y-144895001D03*
X148867398Y-145395000D03*
X148867398Y-145894999D03*
X148867398Y-146395001D03*
X148867398Y-146895000D03*
D14*
X148165000Y-147597398D03*
X147665001Y-147597398D03*
X147164999Y-147597398D03*
X146665000Y-147597398D03*
X146165001Y-147597398D03*
X145665000Y-147597398D03*
X145165000Y-147597398D03*
X144664999Y-147597398D03*
X144165000Y-147597398D03*
X143665001Y-147597398D03*
X143164999Y-147597398D03*
X142665000Y-147597398D03*
D15*
X141962602Y-146895000D03*
X141962602Y-146395001D03*
X141962602Y-145894999D03*
X141962602Y-145395000D03*
X141962602Y-144895001D03*
X141962602Y-144395000D03*
X141962602Y-143895000D03*
X141962602Y-143394999D03*
X141962602Y-142895000D03*
X141962602Y-142395001D03*
X141962602Y-141894999D03*
X141962602Y-141395000D03*
G04 #@! TD*
D16*
G04 #@! TO.C,S1*
X168565000Y-152505000D03*
X168565000Y-143405000D03*
X173065000Y-152505000D03*
X173065000Y-143405000D03*
G04 #@! TD*
G04 #@! TO.C,R12*
G36*
G01*
X140575000Y-140955000D02*
X140575000Y-140585000D01*
G75*
G02*
X140710000Y-140450000I135000J0D01*
G01*
X140980000Y-140450000D01*
G75*
G02*
X141115000Y-140585000I0J-135000D01*
G01*
X141115000Y-140955000D01*
G75*
G02*
X140980000Y-141090000I-135000J0D01*
G01*
X140710000Y-141090000D01*
G75*
G02*
X140575000Y-140955000I0J135000D01*
G01*
G37*
G36*
G01*
X139555000Y-140955000D02*
X139555000Y-140585000D01*
G75*
G02*
X139690000Y-140450000I135000J0D01*
G01*
X139960000Y-140450000D01*
G75*
G02*
X140095000Y-140585000I0J-135000D01*
G01*
X140095000Y-140955000D01*
G75*
G02*
X139960000Y-141090000I-135000J0D01*
G01*
X139690000Y-141090000D01*
G75*
G02*
X139555000Y-140955000I0J135000D01*
G01*
G37*
G04 #@! TD*
G04 #@! TO.C,R11*
G36*
G01*
X140575000Y-139885000D02*
X140575000Y-139515000D01*
G75*
G02*
X140710000Y-139380000I135000J0D01*
G01*
X140980000Y-139380000D01*
G75*
G02*
X141115000Y-139515000I0J-135000D01*
G01*
X141115000Y-139885000D01*
G75*
G02*
X140980000Y-140020000I-135000J0D01*
G01*
X140710000Y-140020000D01*
G75*
G02*
X140575000Y-139885000I0J135000D01*
G01*
G37*
G36*
G01*
X139555000Y-139885000D02*
X139555000Y-139515000D01*
G75*
G02*
X139690000Y-139380000I135000J0D01*
G01*
X139960000Y-139380000D01*
G75*
G02*
X140095000Y-139515000I0J-135000D01*
G01*
X140095000Y-139885000D01*
G75*
G02*
X139960000Y-140020000I-135000J0D01*
G01*
X139690000Y-140020000D01*
G75*
G02*
X139555000Y-139885000I0J135000D01*
G01*
G37*
G04 #@! TD*
G04 #@! TO.C,R10*
G36*
G01*
X150245000Y-143905000D02*
X149875000Y-143905000D01*
G75*
G02*
X149740000Y-143770000I0J135000D01*
G01*
X149740000Y-143500000D01*
G75*
G02*
X149875000Y-143365000I135000J0D01*
G01*
X150245000Y-143365000D01*
G75*
G02*
X150380000Y-143500000I0J-135000D01*
G01*
X150380000Y-143770000D01*
G75*
G02*
X150245000Y-143905000I-135000J0D01*
G01*
G37*
G36*
G01*
X150245000Y-144925000D02*
X149875000Y-144925000D01*
G75*
G02*
X149740000Y-144790000I0J135000D01*
G01*
X149740000Y-144520000D01*
G75*
G02*
X149875000Y-144385000I135000J0D01*
G01*
X150245000Y-144385000D01*
G75*
G02*
X150380000Y-144520000I0J-135000D01*
G01*
X150380000Y-144790000D01*
G75*
G02*
X150245000Y-144925000I-135000J0D01*
G01*
G37*
G04 #@! TD*
G04 #@! TO.C,R8*
G36*
G01*
X151755000Y-143895000D02*
X151755000Y-143525000D01*
G75*
G02*
X151890000Y-143390000I135000J0D01*
G01*
X152160000Y-143390000D01*
G75*
G02*
X152295000Y-143525000I0J-135000D01*
G01*
X152295000Y-143895000D01*
G75*
G02*
X152160000Y-144030000I-135000J0D01*
G01*
X151890000Y-144030000D01*
G75*
G02*
X151755000Y-143895000I0J135000D01*
G01*
G37*
G36*
G01*
X150735000Y-143895000D02*
X150735000Y-143525000D01*
G75*
G02*
X150870000Y-143390000I135000J0D01*
G01*
X151140000Y-143390000D01*
G75*
G02*
X151275000Y-143525000I0J-135000D01*
G01*
X151275000Y-143895000D01*
G75*
G02*
X151140000Y-144030000I-135000J0D01*
G01*
X150870000Y-144030000D01*
G75*
G02*
X150735000Y-143895000I0J135000D01*
G01*
G37*
G04 #@! TD*
G04 #@! TO.C,R5*
G36*
G01*
X150735000Y-142175000D02*
X150735000Y-141805000D01*
G75*
G02*
X150870000Y-141670000I135000J0D01*
G01*
X151140000Y-141670000D01*
G75*
G02*
X151275000Y-141805000I0J-135000D01*
G01*
X151275000Y-142175000D01*
G75*
G02*
X151140000Y-142310000I-135000J0D01*
G01*
X150870000Y-142310000D01*
G75*
G02*
X150735000Y-142175000I0J135000D01*
G01*
G37*
G36*
G01*
X149715000Y-142175000D02*
X149715000Y-141805000D01*
G75*
G02*
X149850000Y-141670000I135000J0D01*
G01*
X150120000Y-141670000D01*
G75*
G02*
X150255000Y-141805000I0J-135000D01*
G01*
X150255000Y-142175000D01*
G75*
G02*
X150120000Y-142310000I-135000J0D01*
G01*
X149850000Y-142310000D01*
G75*
G02*
X149715000Y-142175000I0J135000D01*
G01*
G37*
G04 #@! TD*
G04 #@! TO.C,R3*
G36*
G01*
X133745000Y-143960000D02*
X133745000Y-144330000D01*
G75*
G02*
X133610000Y-144465000I-135000J0D01*
G01*
X133340000Y-144465000D01*
G75*
G02*
X133205000Y-144330000I0J135000D01*
G01*
X133205000Y-143960000D01*
G75*
G02*
X133340000Y-143825000I135000J0D01*
G01*
X133610000Y-143825000D01*
G75*
G02*
X133745000Y-143960000I0J-135000D01*
G01*
G37*
G36*
G01*
X134765000Y-143960000D02*
X134765000Y-144330000D01*
G75*
G02*
X134630000Y-144465000I-135000J0D01*
G01*
X134360000Y-144465000D01*
G75*
G02*
X134225000Y-144330000I0J135000D01*
G01*
X134225000Y-143960000D01*
G75*
G02*
X134360000Y-143825000I135000J0D01*
G01*
X134630000Y-143825000D01*
G75*
G02*
X134765000Y-143960000I0J-135000D01*
G01*
G37*
G04 #@! TD*
G04 #@! TO.C,R1*
G36*
G01*
X131685000Y-144330000D02*
X131685000Y-143960000D01*
G75*
G02*
X131820000Y-143825000I135000J0D01*
G01*
X132090000Y-143825000D01*
G75*
G02*
X132225000Y-143960000I0J-135000D01*
G01*
X132225000Y-144330000D01*
G75*
G02*
X132090000Y-144465000I-135000J0D01*
G01*
X131820000Y-144465000D01*
G75*
G02*
X131685000Y-144330000I0J135000D01*
G01*
G37*
G36*
G01*
X130665000Y-144330000D02*
X130665000Y-143960000D01*
G75*
G02*
X130800000Y-143825000I135000J0D01*
G01*
X131070000Y-143825000D01*
G75*
G02*
X131205000Y-143960000I0J-135000D01*
G01*
X131205000Y-144330000D01*
G75*
G02*
X131070000Y-144465000I-135000J0D01*
G01*
X130800000Y-144465000D01*
G75*
G02*
X130665000Y-144330000I0J135000D01*
G01*
G37*
G04 #@! TD*
D17*
G04 #@! TO.C,J5*
X130175000Y-161310000D03*
D18*
X130175000Y-156310000D03*
G04 #@! TD*
D17*
G04 #@! TO.C,J4*
X154760000Y-161290000D03*
D18*
X149760000Y-161290000D03*
G04 #@! TD*
D17*
G04 #@! TO.C,J3*
X143430000Y-161290000D03*
D18*
X138430000Y-161290000D03*
G04 #@! TD*
D11*
G04 #@! TO.C,J2*
X169545000Y-161925000D03*
X169545000Y-159385000D03*
D12*
X169545000Y-156845000D03*
G04 #@! TD*
D19*
G04 #@! TO.C,J1*
X129825000Y-144015000D03*
X135605000Y-144015000D03*
D20*
X137035000Y-144515000D03*
X128395000Y-144515000D03*
D21*
X137035000Y-140335000D03*
X128395000Y-140335000D03*
G04 #@! TD*
D22*
G04 #@! TO.C,IC3*
X160020000Y-145002000D03*
D23*
X163420000Y-155002000D03*
X161720000Y-155002000D03*
X160020000Y-155002000D03*
X158320000Y-155002000D03*
X156620000Y-155002000D03*
G04 #@! TD*
D24*
G04 #@! TO.C,IC2*
X164625000Y-159385000D03*
X164625000Y-160655000D03*
X164625000Y-161925000D03*
X164625000Y-163195000D03*
X159225000Y-163195000D03*
X159225000Y-161925000D03*
X159225000Y-160655000D03*
X159225000Y-159385000D03*
G04 #@! TD*
D25*
G04 #@! TO.C,H1*
X153270000Y-154940000D03*
G04 #@! TD*
D26*
G04 #@! TO.C,D1*
X130265000Y-139070000D03*
X130265000Y-142270000D03*
X135165000Y-139070000D03*
X135165000Y-142270000D03*
G04 #@! TD*
D27*
G04 #@! TO.C,C13*
X151435000Y-142875000D03*
X152095000Y-142875000D03*
G04 #@! TD*
G04 #@! TO.C,C12*
G36*
G01*
X150695000Y-141140000D02*
X150695000Y-140800000D01*
G75*
G02*
X150835000Y-140660000I140000J0D01*
G01*
X151115000Y-140660000D01*
G75*
G02*
X151255000Y-140800000I0J-140000D01*
G01*
X151255000Y-141140000D01*
G75*
G02*
X151115000Y-141280000I-140000J0D01*
G01*
X150835000Y-141280000D01*
G75*
G02*
X150695000Y-141140000I0J140000D01*
G01*
G37*
G36*
G01*
X149735000Y-141140000D02*
X149735000Y-140800000D01*
G75*
G02*
X149875000Y-140660000I140000J0D01*
G01*
X150155000Y-140660000D01*
G75*
G02*
X150295000Y-140800000I0J-140000D01*
G01*
X150295000Y-141140000D01*
G75*
G02*
X150155000Y-141280000I-140000J0D01*
G01*
X149875000Y-141280000D01*
G75*
G02*
X149735000Y-141140000I0J140000D01*
G01*
G37*
G04 #@! TD*
D28*
G04 #@! TO.C,C11*
X129080000Y-149025000D03*
X135080000Y-149025000D03*
G04 #@! TD*
D29*
G04 #@! TO.C,C3*
X139065000Y-144035000D03*
X139065000Y-146795000D03*
G04 #@! TD*
M02*
