%TF.GenerationSoftware,KiCad,Pcbnew,(5.1.9)-1*%
%TF.CreationDate,2021-07-06T13:24:45-04:00*%
%TF.ProjectId,ESC_5A,4553435f-3541-42e6-9b69-6361645f7063,rev?*%
%TF.SameCoordinates,Original*%
%TF.FileFunction,Copper,L4,Bot*%
%TF.FilePolarity,Positive*%
%FSLAX46Y46*%
G04 Gerber Fmt 4.6, Leading zero omitted, Abs format (unit mm)*
G04 Created by KiCad (PCBNEW (5.1.9)-1) date 2021-07-06 13:24:45*
%MOMM*%
%LPD*%
G01*
G04 APERTURE LIST*
%TA.AperFunction,ComponentPad*%
%ADD10O,1.700000X1.700000*%
%TD*%
%TA.AperFunction,ComponentPad*%
%ADD11R,1.700000X1.700000*%
%TD*%
%TA.AperFunction,SMDPad,CuDef*%
%ADD12R,3.300000X1.800000*%
%TD*%
%TA.AperFunction,SMDPad,CuDef*%
%ADD13R,1.430000X5.500000*%
%TD*%
%TA.AperFunction,ComponentPad*%
%ADD14C,3.800000*%
%TD*%
%TA.AperFunction,ComponentPad*%
%ADD15R,3.800000X3.800000*%
%TD*%
%TA.AperFunction,SMDPad,CuDef*%
%ADD16R,0.300000X1.150000*%
%TD*%
%TA.AperFunction,SMDPad,CuDef*%
%ADD17R,0.600000X1.150000*%
%TD*%
%TA.AperFunction,ComponentPad*%
%ADD18O,1.050000X2.100000*%
%TD*%
%TA.AperFunction,ComponentPad*%
%ADD19O,1.000000X2.000000*%
%TD*%
%TA.AperFunction,SMDPad,CuDef*%
%ADD20R,0.600000X1.500000*%
%TD*%
%TA.AperFunction,SMDPad,CuDef*%
%ADD21R,1.500000X0.600000*%
%TD*%
%TA.AperFunction,SMDPad,CuDef*%
%ADD22R,1.500000X0.650000*%
%TD*%
%TA.AperFunction,SMDPad,CuDef*%
%ADD23R,1.550000X2.350000*%
%TD*%
%TA.AperFunction,SMDPad,CuDef*%
%ADD24R,1.470000X1.020000*%
%TD*%
%TA.AperFunction,SMDPad,CuDef*%
%ADD25R,0.460000X0.420000*%
%TD*%
%TA.AperFunction,SMDPad,CuDef*%
%ADD26R,0.420000X0.460000*%
%TD*%
%TA.AperFunction,SMDPad,CuDef*%
%ADD27R,0.620000X0.600000*%
%TD*%
%TA.AperFunction,SMDPad,CuDef*%
%ADD28R,0.700000X0.700000*%
%TD*%
%TA.AperFunction,SMDPad,CuDef*%
%ADD29R,0.600000X0.620000*%
%TD*%
%TA.AperFunction,ViaPad*%
%ADD30C,0.400000*%
%TD*%
%TA.AperFunction,ViaPad*%
%ADD31C,0.800000*%
%TD*%
%TA.AperFunction,Conductor*%
%ADD32C,0.250000*%
%TD*%
%TA.AperFunction,Conductor*%
%ADD33C,1.000000*%
%TD*%
%TA.AperFunction,Conductor*%
%ADD34C,0.500000*%
%TD*%
%TA.AperFunction,Conductor*%
%ADD35C,0.254000*%
%TD*%
%TA.AperFunction,Conductor*%
%ADD36C,0.100000*%
%TD*%
G04 APERTURE END LIST*
D10*
%TO.P,J6,3*%
%TO.N,GND*%
X59690000Y-62865000D03*
%TO.P,J6,2*%
%TO.N,+5V*%
X59690000Y-60325000D03*
D11*
%TO.P,J6,1*%
%TO.N,PPM_2*%
X59690000Y-57785000D03*
%TD*%
D12*
%TO.P,R9,2*%
%TO.N,ADC_3*%
X30080000Y-57995000D03*
%TO.P,R9,1*%
%TO.N,ADC_MUX_GND*%
X30080000Y-52495000D03*
%TD*%
%TO.P,R7,2*%
%TO.N,ADC_1*%
X26035000Y-58010000D03*
%TO.P,R7,1*%
%TO.N,ADC_VREFA*%
X26035000Y-52510000D03*
%TD*%
%TO.P,R6,2*%
%TO.N,ADC_2*%
X34125000Y-58010000D03*
%TO.P,R6,1*%
%TO.N,ADC_VREFB*%
X34125000Y-52510000D03*
%TD*%
%TO.P,R4,2*%
%TO.N,CS_EEPROM*%
%TA.AperFunction,SMDPad,CuDef*%
G36*
G01*
X47330000Y-59140000D02*
X47330000Y-58770000D01*
G75*
G02*
X47465000Y-58635000I135000J0D01*
G01*
X47735000Y-58635000D01*
G75*
G02*
X47870000Y-58770000I0J-135000D01*
G01*
X47870000Y-59140000D01*
G75*
G02*
X47735000Y-59275000I-135000J0D01*
G01*
X47465000Y-59275000D01*
G75*
G02*
X47330000Y-59140000I0J135000D01*
G01*
G37*
%TD.AperFunction*%
%TO.P,R4,1*%
%TO.N,+3V3*%
%TA.AperFunction,SMDPad,CuDef*%
G36*
G01*
X46310000Y-59140000D02*
X46310000Y-58770000D01*
G75*
G02*
X46445000Y-58635000I135000J0D01*
G01*
X46715000Y-58635000D01*
G75*
G02*
X46850000Y-58770000I0J-135000D01*
G01*
X46850000Y-59140000D01*
G75*
G02*
X46715000Y-59275000I-135000J0D01*
G01*
X46445000Y-59275000D01*
G75*
G02*
X46310000Y-59140000I0J135000D01*
G01*
G37*
%TD.AperFunction*%
%TD*%
%TO.P,R2,2*%
%TO.N,NRST*%
%TA.AperFunction,SMDPad,CuDef*%
G36*
G01*
X55485000Y-45270000D02*
X55485000Y-44900000D01*
G75*
G02*
X55620000Y-44765000I135000J0D01*
G01*
X55890000Y-44765000D01*
G75*
G02*
X56025000Y-44900000I0J-135000D01*
G01*
X56025000Y-45270000D01*
G75*
G02*
X55890000Y-45405000I-135000J0D01*
G01*
X55620000Y-45405000D01*
G75*
G02*
X55485000Y-45270000I0J135000D01*
G01*
G37*
%TD.AperFunction*%
%TO.P,R2,1*%
%TO.N,+3V3*%
%TA.AperFunction,SMDPad,CuDef*%
G36*
G01*
X54465000Y-45270000D02*
X54465000Y-44900000D01*
G75*
G02*
X54600000Y-44765000I135000J0D01*
G01*
X54870000Y-44765000D01*
G75*
G02*
X55005000Y-44900000I0J-135000D01*
G01*
X55005000Y-45270000D01*
G75*
G02*
X54870000Y-45405000I-135000J0D01*
G01*
X54600000Y-45405000D01*
G75*
G02*
X54465000Y-45270000I0J135000D01*
G01*
G37*
%TD.AperFunction*%
%TD*%
D13*
%TO.P,L1,2*%
%TO.N,+5V*%
X49010000Y-54610000D03*
%TO.P,L1,1*%
%TO.N,Net-(D2-Pad1)*%
X44970000Y-54610000D03*
%TD*%
D14*
%TO.P,J5,2*%
%TO.N,GND*%
X16510000Y-62250000D03*
D15*
%TO.P,J5,1*%
%TO.N,PWR_IN*%
X16510000Y-57250000D03*
%TD*%
D14*
%TO.P,J4,2*%
%TO.N,MotorB_Neg*%
X41095000Y-62230000D03*
D15*
%TO.P,J4,1*%
%TO.N,ADC_2*%
X36095000Y-62230000D03*
%TD*%
D14*
%TO.P,J3,2*%
%TO.N,ADC_3*%
X29765000Y-62230000D03*
D15*
%TO.P,J3,1*%
%TO.N,ADC_1*%
X24765000Y-62230000D03*
%TD*%
D10*
%TO.P,J2,3*%
%TO.N,GND*%
X55880000Y-62865000D03*
%TO.P,J2,2*%
%TO.N,+5V*%
X55880000Y-60325000D03*
D11*
%TO.P,J2,1*%
%TO.N,PPM_1*%
X55880000Y-57785000D03*
%TD*%
D16*
%TO.P,J1,B8*%
%TO.N,Net-(J1-PadB8)*%
X17300000Y-46030000D03*
%TO.P,J1,A5*%
%TO.N,Net-(J1-PadA5)*%
X17800000Y-46030000D03*
%TO.P,J1,B7*%
%TO.N,D-*%
X18300000Y-46030000D03*
%TO.P,J1,B5*%
%TO.N,Net-(J1-PadB5)*%
X20800000Y-46030000D03*
%TO.P,J1,A8*%
%TO.N,Net-(J1-PadA8)*%
X20300000Y-46030000D03*
%TO.P,J1,B6*%
%TO.N,D+*%
X19800000Y-46030000D03*
%TO.P,J1,A6*%
X18800000Y-46030000D03*
%TO.P,J1,A7*%
%TO.N,D-*%
X19300000Y-46030000D03*
D17*
%TO.P,J1,B4_A9*%
%TO.N,+5V*%
X21450000Y-46030000D03*
%TO.P,J1,A4_B9*%
X16650000Y-46030000D03*
%TO.P,J1,B1_A12*%
%TO.N,GND*%
X22250000Y-46030000D03*
%TO.P,J1,A1_B12*%
X15850000Y-46030000D03*
D18*
%TO.P,J1,S4*%
X23370000Y-45455000D03*
%TO.P,J1,S1*%
X14730000Y-45455000D03*
D19*
%TO.P,J1,S3*%
X23370000Y-41275000D03*
%TO.P,J1,S2*%
X14730000Y-41275000D03*
%TD*%
D20*
%TO.P,IC4,32*%
%TO.N,Net-(IC4-Pad32)*%
X38475000Y-49335000D03*
%TO.P,IC4,31*%
%TO.N,PPM_2*%
X39275000Y-49335000D03*
%TO.P,IC4,30*%
%TO.N,Net-(C8-Pad2)*%
X40075000Y-49335000D03*
%TO.P,IC4,29*%
%TO.N,Net-(C7-Pad1)*%
X40875000Y-49335000D03*
%TO.P,IC4,28*%
%TO.N,GND*%
X41675000Y-49335000D03*
%TO.P,IC4,27*%
%TO.N,PPM_1*%
X42475000Y-49335000D03*
%TO.P,IC4,26*%
%TO.N,NRST*%
X43275000Y-49335000D03*
%TO.P,IC4,25*%
%TO.N,HBMODE*%
X44075000Y-49335000D03*
D21*
%TO.P,IC4,24*%
%TO.N,D+*%
X45525000Y-47885000D03*
%TO.P,IC4,23*%
%TO.N,D-*%
X45525000Y-47085000D03*
%TO.P,IC4,22*%
%TO.N,MOSI_EEPROM*%
X45525000Y-46285000D03*
%TO.P,IC4,21*%
%TO.N,SCK_EEPROM*%
X45525000Y-45485000D03*
%TO.P,IC4,20*%
%TO.N,MISO_EEPROM*%
X45525000Y-44685000D03*
%TO.P,IC4,19*%
%TO.N,RGB_DATA*%
X45525000Y-43885000D03*
%TO.P,IC4,18*%
%TO.N,PWMB*%
X45525000Y-43085000D03*
%TO.P,IC4,17*%
%TO.N,PWMA*%
X45525000Y-42285000D03*
D20*
%TO.P,IC4,16*%
%TO.N,RGB_PWR*%
X44075000Y-40835000D03*
%TO.P,IC4,15*%
%TO.N,INA1*%
X43275000Y-40835000D03*
%TO.P,IC4,14*%
%TO.N,INA2*%
X42475000Y-40835000D03*
%TO.P,IC4,13*%
%TO.N,INB1*%
X41675000Y-40835000D03*
%TO.P,IC4,12*%
%TO.N,INB2*%
X40875000Y-40835000D03*
%TO.P,IC4,11*%
%TO.N,CS_EEPROM*%
X40075000Y-40835000D03*
%TO.P,IC4,10*%
%TO.N,GND*%
X39275000Y-40835000D03*
%TO.P,IC4,9*%
%TO.N,Net-(C9-Pad2)*%
X38475000Y-40835000D03*
D21*
%TO.P,IC4,8*%
%TO.N,ADC_1*%
X37025000Y-42285000D03*
%TO.P,IC4,7*%
%TO.N,ADC_3*%
X37025000Y-43085000D03*
%TO.P,IC4,6*%
%TO.N,ADC_2*%
X37025000Y-43885000D03*
%TO.P,IC4,5*%
%TO.N,ADC_VREFB*%
X37025000Y-44685000D03*
%TO.P,IC4,4*%
%TO.N,ADC_VREFA*%
X37025000Y-45485000D03*
%TO.P,IC4,3*%
%TO.N,ADC_MUX_GND*%
X37025000Y-46285000D03*
%TO.P,IC4,2*%
%TO.N,LO2*%
X37025000Y-47085000D03*
%TO.P,IC4,1*%
%TO.N,LO1*%
X37025000Y-47885000D03*
%TD*%
D22*
%TO.P,IC1,8*%
%TO.N,+3V3*%
X52865000Y-64135000D03*
%TO.P,IC1,7*%
X52865000Y-62865000D03*
%TO.P,IC1,6*%
%TO.N,SCK_EEPROM*%
X52865000Y-61595000D03*
%TO.P,IC1,5*%
%TO.N,MOSI_EEPROM*%
X52865000Y-60325000D03*
%TO.P,IC1,4*%
%TO.N,GND*%
X47465000Y-60325000D03*
%TO.P,IC1,3*%
%TO.N,+3V3*%
X47465000Y-61595000D03*
%TO.P,IC1,2*%
%TO.N,MISO_EEPROM*%
X47465000Y-62865000D03*
%TO.P,IC1,1*%
%TO.N,CS_EEPROM*%
X47465000Y-64135000D03*
%TD*%
D23*
%TO.P,D2,2*%
%TO.N,GND*%
X52705000Y-53585000D03*
%TO.P,D2,1*%
%TO.N,Net-(D2-Pad1)*%
X52705000Y-49285000D03*
%TD*%
D24*
%TO.P,C10,2*%
%TO.N,GND*%
X20320000Y-62395000D03*
%TO.P,C10,1*%
%TO.N,PWR*%
X20320000Y-60795000D03*
%TD*%
D25*
%TO.P,C9,2*%
%TO.N,Net-(C9-Pad2)*%
X35255000Y-40640000D03*
%TO.P,C9,1*%
%TO.N,+3V3*%
X34595000Y-40640000D03*
%TD*%
D26*
%TO.P,C8,2*%
%TO.N,Net-(C8-Pad2)*%
X39370000Y-51740000D03*
%TO.P,C8,1*%
%TO.N,+3V3*%
X39370000Y-52400000D03*
%TD*%
D27*
%TO.P,C7,2*%
%TO.N,GND*%
X40640000Y-52530000D03*
%TO.P,C7,1*%
%TO.N,Net-(C7-Pad1)*%
X40640000Y-51610000D03*
%TD*%
D28*
%TO.P,C6,2*%
%TO.N,GND*%
X52170000Y-44385000D03*
%TO.P,C6,1*%
%TO.N,+5V*%
X52170000Y-45785000D03*
%TD*%
%TO.P,C5,2*%
%TO.N,GND*%
X48895000Y-47360000D03*
%TO.P,C5,1*%
%TO.N,+5V*%
X48895000Y-48760000D03*
%TD*%
D29*
%TO.P,C4,2*%
%TO.N,GND*%
X52530000Y-57150000D03*
%TO.P,C4,1*%
%TO.N,+3V3*%
X51610000Y-57150000D03*
%TD*%
D28*
%TO.P,C2,2*%
%TO.N,GND*%
X44450000Y-61860000D03*
%TO.P,C2,1*%
%TO.N,+3V3*%
X44450000Y-60460000D03*
%TD*%
D25*
%TO.P,C1,2*%
%TO.N,NRST*%
X55575000Y-46355000D03*
%TO.P,C1,1*%
%TO.N,GND*%
X54915000Y-46355000D03*
%TD*%
D30*
%TO.N,NRST*%
X55245000Y-47625000D03*
D31*
%TO.N,GND*%
X50800000Y-41910000D03*
X49530000Y-43180000D03*
X41910000Y-47625000D03*
X30480000Y-45085000D03*
X29645000Y-44885000D03*
D30*
X50800000Y-61595000D03*
D31*
X29805399Y-45759601D03*
D30*
X39408927Y-41841464D03*
D31*
X21527500Y-43117500D03*
X15240000Y-50165000D03*
X59160000Y-44345000D03*
D30*
%TO.N,+3V3*%
X45150000Y-60260000D03*
X42545000Y-52070000D03*
X36195000Y-40005000D03*
D31*
X47625000Y-61595000D03*
D30*
%TO.N,+5V*%
X48055000Y-56720000D03*
X48055000Y-55942000D03*
X52070000Y-46990000D03*
X17145000Y-47625000D03*
%TO.N,RGB_PWR*%
X17840011Y-39309989D03*
%TO.N,RGB_DATA*%
X45109810Y-39980190D03*
%TO.N,Net-(D2-Pad1)*%
X44450000Y-56515000D03*
X44450000Y-57150000D03*
%TO.N,SCK_EEPROM*%
X47625000Y-45720000D03*
X53340000Y-61050002D03*
%TO.N,MOSI_EEPROM*%
X47625000Y-46355000D03*
X53975000Y-59690000D03*
%TO.N,MISO_EEPROM*%
X44450000Y-44450000D03*
X48895000Y-62865000D03*
%TO.N,CS_EEPROM*%
X40005000Y-41910000D03*
X48895000Y-59690000D03*
X45720000Y-64770000D03*
%TO.N,HBMODE*%
X43551232Y-45348768D03*
%TO.N,D+*%
X19570000Y-47625000D03*
X43761268Y-47043732D03*
%TO.N,D-*%
X44450000Y-46990000D03*
X19050000Y-44450000D03*
%TO.N,PWMB*%
X46220191Y-40505191D03*
%TO.N,PWMA*%
X44450000Y-42545000D03*
%TO.N,INB2*%
X38175002Y-42545000D03*
%TO.N,INB1*%
X38580594Y-43070000D03*
%TO.N,INA2*%
X42117533Y-42117471D03*
%TO.N,INA1*%
X43180000Y-41910000D03*
%TO.N,ADC_2*%
X34925000Y-43815000D03*
%TO.N,ADC_1*%
X35560000Y-41910000D03*
%TO.N,ADC_3*%
X34925000Y-43180000D03*
D31*
%TO.N,ADC_VREFB*%
X32385000Y-49530000D03*
D30*
X34290000Y-44450000D03*
D31*
%TO.N,ADC_VREFA*%
X28575000Y-49462397D03*
D30*
X34925000Y-45085000D03*
D31*
%TO.N,ADC_MUX_GND*%
X30480000Y-49530000D03*
D30*
X34925000Y-46355000D03*
%TO.N,LO2*%
X28217398Y-41632602D03*
X35125001Y-46990000D03*
%TO.N,LO1*%
X28575000Y-40640000D03*
X35125001Y-48260000D03*
D31*
%TO.N,Net-(J1-PadA5)*%
X17145000Y-44450000D03*
D30*
%TO.N,Net-(J1-PadB5)*%
X19685000Y-43554990D03*
D31*
%TO.N,MotorB_Neg*%
X34925000Y-49462397D03*
D30*
%TO.N,PPM_2*%
X39370000Y-50800000D03*
%TO.N,PPM_1*%
X42117534Y-46852386D03*
D31*
%TO.N,PWR*%
X22225000Y-53975000D03*
%TD*%
D32*
%TO.N,NRST*%
X55575000Y-47295000D02*
X55575000Y-46355000D01*
X55245000Y-47625000D02*
X55575000Y-47295000D01*
X55755000Y-46175000D02*
X55575000Y-46355000D01*
X55755000Y-45085000D02*
X55755000Y-46175000D01*
X51829998Y-47625000D02*
X55245000Y-47625000D01*
X43275000Y-50335000D02*
X43350001Y-50410001D01*
X43275000Y-49335000D02*
X43275000Y-50335000D01*
X51069995Y-48084999D02*
X47020003Y-48084999D01*
X47020003Y-48084999D02*
X44695001Y-50410001D01*
X43350001Y-50410001D02*
X44695001Y-50410001D01*
X51529994Y-47625000D02*
X55245000Y-47625000D01*
X51069995Y-48084999D02*
X51529994Y-47625000D01*
%TO.N,GND*%
X21340000Y-43305000D02*
X21527500Y-43117500D01*
X21275000Y-43305000D02*
X23370000Y-45400000D01*
X23370000Y-45400000D02*
X23370000Y-45455000D01*
X16250000Y-42795000D02*
X14730000Y-41275000D01*
X17780000Y-42795000D02*
X16250000Y-42795000D01*
X17390000Y-42795000D02*
X14730000Y-45455000D01*
X17780000Y-42795000D02*
X17390000Y-42795000D01*
X15305000Y-46030000D02*
X14730000Y-45455000D01*
X15850000Y-46030000D02*
X15305000Y-46030000D01*
X22795000Y-46030000D02*
X23370000Y-45455000D01*
X22250000Y-46030000D02*
X22795000Y-46030000D01*
X15875000Y-46055000D02*
X15850000Y-46030000D01*
X40510000Y-52400000D02*
X40640000Y-52530000D01*
X52705000Y-56975000D02*
X52530000Y-57150000D01*
X52705000Y-53585000D02*
X52705000Y-56975000D01*
X46385000Y-60325000D02*
X47465000Y-60325000D01*
X45050000Y-61660000D02*
X46385000Y-60325000D01*
X44450000Y-61660000D02*
X45050000Y-61660000D01*
X49530000Y-60325000D02*
X50800000Y-61595000D01*
X47465000Y-60325000D02*
X49530000Y-60325000D01*
X41675000Y-52055000D02*
X41675000Y-49335000D01*
X41200000Y-52530000D02*
X41675000Y-52055000D01*
X40640000Y-52530000D02*
X41200000Y-52530000D01*
X41675000Y-47860000D02*
X41910000Y-47625000D01*
X41675000Y-49335000D02*
X41675000Y-47860000D01*
X39275000Y-41707537D02*
X39408927Y-41841464D01*
X39275000Y-40835000D02*
X39275000Y-41707537D01*
X52170000Y-44385000D02*
X52640000Y-44385000D01*
X54610000Y-46355000D02*
X54915000Y-46355000D01*
X52640000Y-44385000D02*
X54610000Y-46355000D01*
X52170000Y-44385000D02*
X52135000Y-44385000D01*
X17780000Y-42795000D02*
X20445000Y-42795000D01*
X21527500Y-43117500D02*
X23370000Y-41275000D01*
X49195000Y-47360000D02*
X52170000Y-44385000D01*
X48895000Y-47360000D02*
X49195000Y-47360000D01*
D33*
X19110001Y-59549999D02*
X19110001Y-54035001D01*
X16510000Y-62150000D02*
X19110001Y-59549999D01*
X19110001Y-54035001D02*
X15240000Y-50165000D01*
D32*
X15240000Y-46640000D02*
X15850000Y-46030000D01*
X15240000Y-50165000D02*
X15240000Y-46640000D01*
X22250000Y-46690002D02*
X22250000Y-46030000D01*
X18775002Y-50165000D02*
X22250000Y-46690002D01*
X15240000Y-50165000D02*
X18775002Y-50165000D01*
X21205000Y-42795000D02*
X21527500Y-43117500D01*
X17780000Y-42795000D02*
X21205000Y-42795000D01*
X20507500Y-43117500D02*
X20320000Y-43305000D01*
X21527500Y-43117500D02*
X20507500Y-43117500D01*
%TO.N,+3V3*%
X45175000Y-60260000D02*
X46480000Y-58955000D01*
X44450000Y-60260000D02*
X45150000Y-60260000D01*
X47749999Y-57685001D02*
X46480000Y-58955000D01*
X51074999Y-57685001D02*
X47749999Y-57685001D01*
X51610000Y-57150000D02*
X51074999Y-57685001D01*
X52865000Y-64135000D02*
X52865000Y-62865000D01*
X45150000Y-60260000D02*
X45175000Y-60260000D01*
X48465000Y-61595000D02*
X49735000Y-62865000D01*
X49735000Y-62865000D02*
X52865000Y-62865000D01*
X47465000Y-61595000D02*
X47625000Y-61595000D01*
X47465000Y-61595000D02*
X45800002Y-61595000D01*
X56080544Y-44439990D02*
X55255010Y-44439990D01*
X56350010Y-48174992D02*
X56350010Y-44709456D01*
X56350010Y-44709456D02*
X56080544Y-44439990D01*
X53740001Y-50785001D02*
X56350010Y-48174992D01*
X52969997Y-50785001D02*
X53740001Y-50785001D01*
X51604999Y-52149999D02*
X52969997Y-50785001D01*
X51610000Y-55025002D02*
X51604999Y-55020001D01*
X51604999Y-55020001D02*
X51604999Y-52149999D01*
X51610000Y-57150000D02*
X51610000Y-55025002D01*
X54735000Y-44960000D02*
X54735000Y-45085000D01*
X55255010Y-44439990D02*
X54735000Y-44960000D01*
X44450000Y-60260000D02*
X44385000Y-60260000D01*
X43774999Y-61135001D02*
X44450000Y-60460000D01*
X43774999Y-62470001D02*
X43774999Y-61135001D01*
X43839999Y-62535001D02*
X43774999Y-62470001D01*
X45060001Y-62535001D02*
X43839999Y-62535001D01*
X46000002Y-61595000D02*
X45060001Y-62535001D01*
X47465000Y-61595000D02*
X46000002Y-61595000D01*
X47625000Y-61595000D02*
X48465000Y-61595000D01*
X44450000Y-60460000D02*
X44450000Y-60260000D01*
X34595000Y-40274998D02*
X34595000Y-40640000D01*
X34864998Y-40005000D02*
X34595000Y-40274998D01*
X36195000Y-40005000D02*
X34864998Y-40005000D01*
X41459999Y-53155001D02*
X42545000Y-52070000D01*
X39645001Y-53155001D02*
X41459999Y-53155001D01*
X39370000Y-52880000D02*
X39645001Y-53155001D01*
X39370000Y-52400000D02*
X39370000Y-52880000D01*
X44450000Y-60460000D02*
X43180000Y-59190000D01*
X43180000Y-52705000D02*
X42545000Y-52070000D01*
X43180000Y-59190000D02*
X43180000Y-52705000D01*
%TO.N,+5V*%
X49010000Y-54987000D02*
X48055000Y-55942000D01*
X49010000Y-54610000D02*
X49010000Y-54987000D01*
X49010000Y-55765000D02*
X48055000Y-56720000D01*
X49010000Y-54610000D02*
X49010000Y-55765000D01*
X43994999Y-57685001D02*
X43924999Y-57615001D01*
X45934999Y-57685001D02*
X43994999Y-57685001D01*
X43924999Y-57615001D02*
X43924999Y-51604999D01*
X49010000Y-54610000D02*
X45934999Y-57685001D01*
X52070000Y-45885000D02*
X52170000Y-45785000D01*
X52070000Y-46990000D02*
X52070000Y-45885000D01*
X16650000Y-47130000D02*
X16650000Y-46030000D01*
X17145000Y-47625000D02*
X16650000Y-47130000D01*
X21450000Y-46690002D02*
X21450000Y-46030000D01*
X19990001Y-48150001D02*
X21450000Y-46690002D01*
X17670001Y-48150001D02*
X19990001Y-48150001D01*
X17145000Y-47625000D02*
X17670001Y-48150001D01*
X46120001Y-51534999D02*
X48895000Y-48760000D01*
X43994999Y-51534999D02*
X46120001Y-51534999D01*
X43924999Y-51604999D02*
X43994999Y-51534999D01*
%TO.N,Net-(C7-Pad1)*%
X40875000Y-51375000D02*
X40640000Y-51610000D01*
X40875000Y-49335000D02*
X40875000Y-51375000D01*
%TO.N,Net-(C8-Pad2)*%
X40075000Y-51035000D02*
X39370000Y-51740000D01*
X40075000Y-49335000D02*
X40075000Y-51035000D01*
%TO.N,Net-(C9-Pad2)*%
X38475000Y-40835000D02*
X37355000Y-40835000D01*
X35450000Y-40835000D02*
X35255000Y-40640000D01*
X38475000Y-40835000D02*
X35450000Y-40835000D01*
%TO.N,RGB_PWR*%
X43549989Y-39309989D02*
X17840011Y-39309989D01*
X44075000Y-39835000D02*
X43549989Y-39309989D01*
X44075000Y-40835000D02*
X44075000Y-39835000D01*
X17840011Y-39309989D02*
X17840011Y-39309989D01*
%TO.N,RGB_DATA*%
X47050011Y-43359989D02*
X47050011Y-40700011D01*
X46525000Y-43885000D02*
X47050011Y-43359989D01*
X45525000Y-43885000D02*
X46525000Y-43885000D01*
X46472192Y-39980190D02*
X45109810Y-39980190D01*
X47050011Y-40558009D02*
X46472192Y-39980190D01*
X47050011Y-40700011D02*
X47050011Y-40558009D01*
X45109810Y-39980190D02*
X45109810Y-39980190D01*
%TO.N,Net-(D2-Pad1)*%
X44970000Y-55995000D02*
X44450000Y-56515000D01*
X44970000Y-54610000D02*
X44970000Y-55995000D01*
X44450000Y-55130000D02*
X44970000Y-54610000D01*
X44450000Y-57150000D02*
X44450000Y-55130000D01*
X50295000Y-49285000D02*
X52705000Y-49285000D01*
X44970000Y-54610000D02*
X50295000Y-49285000D01*
%TO.N,SCK_EEPROM*%
X47390000Y-45485000D02*
X47625000Y-45720000D01*
X45525000Y-45485000D02*
X47390000Y-45485000D01*
X52865000Y-61525002D02*
X53340000Y-61050002D01*
X52865000Y-61595000D02*
X52865000Y-61525002D01*
%TO.N,MOSI_EEPROM*%
X47555000Y-46285000D02*
X47625000Y-46355000D01*
X45525000Y-46285000D02*
X47555000Y-46285000D01*
X53340000Y-60325000D02*
X53975000Y-59690000D01*
X52865000Y-60325000D02*
X53340000Y-60325000D01*
%TO.N,MISO_EEPROM*%
X44685000Y-44685000D02*
X44450000Y-44450000D01*
X45525000Y-44685000D02*
X44685000Y-44685000D01*
X47465000Y-62865000D02*
X48895000Y-62865000D01*
%TO.N,CS_EEPROM*%
X40075000Y-41840000D02*
X40005000Y-41910000D01*
X40075000Y-40835000D02*
X40075000Y-41840000D01*
X48160000Y-58955000D02*
X48895000Y-59690000D01*
X47500000Y-58955000D02*
X48160000Y-58955000D01*
X46830000Y-64770000D02*
X47465000Y-64135000D01*
X45720000Y-64770000D02*
X46830000Y-64770000D01*
%TO.N,HBMODE*%
X44075000Y-48335000D02*
X44075000Y-49335000D01*
X43236267Y-47496267D02*
X44075000Y-48335000D01*
X43236267Y-45663733D02*
X43236267Y-47496267D01*
X43551232Y-45348768D02*
X43236267Y-45663733D01*
%TO.N,D+*%
X18800000Y-46855000D02*
X19570000Y-47625000D01*
X18800000Y-46030000D02*
X18800000Y-46855000D01*
X19800000Y-47395000D02*
X19800000Y-46030000D01*
X19570000Y-47625000D02*
X19800000Y-47395000D01*
X44602536Y-47885000D02*
X45525000Y-47885000D01*
X43761268Y-47043732D02*
X44602536Y-47885000D01*
%TO.N,D-*%
X44545000Y-47085000D02*
X44450000Y-46990000D01*
X45525000Y-47085000D02*
X44545000Y-47085000D01*
X18300000Y-45200000D02*
X19050000Y-44450000D01*
X18300000Y-46030000D02*
X18300000Y-45200000D01*
X19300000Y-44700000D02*
X19050000Y-44450000D01*
X19300000Y-46030000D02*
X19300000Y-44700000D01*
%TO.N,PWMB*%
X46450000Y-43085000D02*
X45525000Y-43085000D01*
X46600001Y-42934999D02*
X46450000Y-43085000D01*
X46600001Y-40885001D02*
X46600001Y-42934999D01*
X46220191Y-40505191D02*
X46600001Y-40885001D01*
%TO.N,PWMA*%
X44710000Y-42285000D02*
X45525000Y-42285000D01*
X44450000Y-42545000D02*
X44710000Y-42285000D01*
%TO.N,INB2*%
X40165000Y-42545000D02*
X38175002Y-42545000D01*
X40875000Y-41835000D02*
X40165000Y-42545000D01*
X40875000Y-40835000D02*
X40875000Y-41835000D01*
%TO.N,INB1*%
X40440000Y-43070000D02*
X38580594Y-43070000D01*
X41675000Y-41835000D02*
X40440000Y-43070000D01*
X41675000Y-40835000D02*
X41675000Y-41835000D01*
%TO.N,INA2*%
X42475000Y-41760004D02*
X42117533Y-42117471D01*
X42475000Y-40835000D02*
X42475000Y-41760004D01*
%TO.N,INA1*%
X43275000Y-41815000D02*
X43180000Y-41910000D01*
X43275000Y-40835000D02*
X43275000Y-41815000D01*
D33*
%TO.N,ADC_2*%
X34925000Y-61595000D02*
X35560000Y-62230000D01*
D32*
X36955000Y-43815000D02*
X37025000Y-43885000D01*
X34925000Y-43815000D02*
X36955000Y-43815000D01*
D33*
X34125000Y-60795000D02*
X35560000Y-62230000D01*
X34125000Y-58010000D02*
X34125000Y-60795000D01*
%TO.N,ADC_1*%
X26035000Y-60325000D02*
X24130000Y-62230000D01*
X26035000Y-58010000D02*
X26035000Y-60325000D01*
D32*
X36650000Y-41910000D02*
X37025000Y-42285000D01*
X35560000Y-41910000D02*
X36650000Y-41910000D01*
%TO.N,ADC_3*%
X36930000Y-43180000D02*
X37025000Y-43085000D01*
X34925000Y-43180000D02*
X36930000Y-43180000D01*
D33*
X30080000Y-61430000D02*
X29280000Y-62230000D01*
X30080000Y-57995000D02*
X30080000Y-61430000D01*
%TO.N,ADC_VREFB*%
X32385000Y-49530000D02*
X32385000Y-49970000D01*
D32*
X36189998Y-44685000D02*
X37025000Y-44685000D01*
X35954998Y-44450000D02*
X36189998Y-44685000D01*
X34290000Y-44450000D02*
X35954998Y-44450000D01*
D33*
X32385000Y-50770000D02*
X34125000Y-52510000D01*
X32385000Y-49530000D02*
X32385000Y-50770000D01*
%TO.N,ADC_VREFA*%
X28575000Y-49970000D02*
X26035000Y-52510000D01*
X28575000Y-49462397D02*
X28575000Y-49970000D01*
D32*
X35325000Y-45485000D02*
X37025000Y-45485000D01*
X34925000Y-45085000D02*
X35325000Y-45485000D01*
D33*
%TO.N,ADC_MUX_GND*%
X30480000Y-49530000D02*
X30480000Y-52495000D01*
D32*
X36955000Y-46355000D02*
X37025000Y-46285000D01*
X34925000Y-46355000D02*
X36955000Y-46355000D01*
%TO.N,LO2*%
X36930000Y-46990000D02*
X37025000Y-47085000D01*
X35125001Y-46990000D02*
X36930000Y-46990000D01*
%TO.N,LO1*%
X36650000Y-48260000D02*
X37025000Y-47885000D01*
X35125001Y-48260000D02*
X36650000Y-48260000D01*
%TO.N,Net-(J1-PadA5)*%
X17800000Y-45105000D02*
X17145000Y-44450000D01*
X17800000Y-46030000D02*
X17800000Y-45105000D01*
%TO.N,Net-(J1-PadB5)*%
X19933580Y-43554990D02*
X19685000Y-43554990D01*
X20800000Y-44421410D02*
X19933580Y-43554990D01*
X20800000Y-46030000D02*
X20800000Y-44421410D01*
D33*
%TO.N,MotorB_Neg*%
X36475001Y-51012398D02*
X36475001Y-57430001D01*
X34925000Y-49462397D02*
X36475001Y-51012398D01*
X40560000Y-61515000D02*
X40560000Y-62230000D01*
X36475001Y-57430001D02*
X40560000Y-61515000D01*
D32*
%TO.N,PPM_2*%
X39370000Y-49430000D02*
X39275000Y-49335000D01*
X39370000Y-50800000D02*
X39370000Y-49430000D01*
%TO.N,PPM_1*%
X42635001Y-49174999D02*
X42475000Y-49335000D01*
X42400376Y-46852386D02*
X42635001Y-47087011D01*
X42635001Y-47087011D02*
X42635001Y-49174999D01*
X42117534Y-46852386D02*
X42400376Y-46852386D01*
D34*
%TO.N,PWR*%
X20320000Y-60795000D02*
X20485000Y-60795000D01*
X22225000Y-53975000D02*
X23934999Y-55684999D01*
X23934999Y-55684999D02*
X23934999Y-58615001D01*
X21755000Y-60795000D02*
X20320000Y-60795000D01*
X23934999Y-58615001D02*
X21755000Y-60795000D01*
%TD*%
D35*
%TO.N,GND*%
X60833000Y-56371593D02*
X60784180Y-56345498D01*
X60664482Y-56309188D01*
X60540000Y-56296928D01*
X58840000Y-56296928D01*
X58715518Y-56309188D01*
X58595820Y-56345498D01*
X58485506Y-56404463D01*
X58388815Y-56483815D01*
X58309463Y-56580506D01*
X58250498Y-56690820D01*
X58214188Y-56810518D01*
X58201928Y-56935000D01*
X58201928Y-58635000D01*
X58214188Y-58759482D01*
X58250498Y-58879180D01*
X58309463Y-58989494D01*
X58388815Y-59086185D01*
X58485506Y-59165537D01*
X58595820Y-59224502D01*
X58668380Y-59246513D01*
X58536525Y-59378368D01*
X58374010Y-59621589D01*
X58262068Y-59891842D01*
X58205000Y-60178740D01*
X58205000Y-60471260D01*
X58262068Y-60758158D01*
X58374010Y-61028411D01*
X58536525Y-61271632D01*
X58743368Y-61478475D01*
X58925534Y-61600195D01*
X58808645Y-61669822D01*
X58592412Y-61864731D01*
X58418359Y-62098080D01*
X58293175Y-62360901D01*
X58248524Y-62508110D01*
X58369845Y-62738000D01*
X59563000Y-62738000D01*
X59563000Y-62718000D01*
X59817000Y-62718000D01*
X59817000Y-62738000D01*
X59837000Y-62738000D01*
X59837000Y-62992000D01*
X59817000Y-62992000D01*
X59817000Y-64185814D01*
X60046891Y-64306481D01*
X60321252Y-64209157D01*
X60571355Y-64060178D01*
X60787588Y-63865269D01*
X60833000Y-63804386D01*
X60833000Y-64643000D01*
X54223061Y-64643000D01*
X54240812Y-64584482D01*
X54253072Y-64460000D01*
X54253072Y-63810000D01*
X54240812Y-63685518D01*
X54204502Y-63565820D01*
X54169320Y-63500000D01*
X54204502Y-63434180D01*
X54240812Y-63314482D01*
X54249931Y-63221890D01*
X54438524Y-63221890D01*
X54483175Y-63369099D01*
X54608359Y-63631920D01*
X54782412Y-63865269D01*
X54998645Y-64060178D01*
X55248748Y-64209157D01*
X55523109Y-64306481D01*
X55753000Y-64185814D01*
X55753000Y-62992000D01*
X56007000Y-62992000D01*
X56007000Y-64185814D01*
X56236891Y-64306481D01*
X56511252Y-64209157D01*
X56761355Y-64060178D01*
X56977588Y-63865269D01*
X57151641Y-63631920D01*
X57276825Y-63369099D01*
X57321476Y-63221890D01*
X58248524Y-63221890D01*
X58293175Y-63369099D01*
X58418359Y-63631920D01*
X58592412Y-63865269D01*
X58808645Y-64060178D01*
X59058748Y-64209157D01*
X59333109Y-64306481D01*
X59563000Y-64185814D01*
X59563000Y-62992000D01*
X58369845Y-62992000D01*
X58248524Y-63221890D01*
X57321476Y-63221890D01*
X57200155Y-62992000D01*
X56007000Y-62992000D01*
X55753000Y-62992000D01*
X54559845Y-62992000D01*
X54438524Y-63221890D01*
X54249931Y-63221890D01*
X54253072Y-63190000D01*
X54253072Y-62540000D01*
X54240812Y-62415518D01*
X54204502Y-62295820D01*
X54169320Y-62230000D01*
X54204502Y-62164180D01*
X54240812Y-62044482D01*
X54253072Y-61920000D01*
X54253072Y-61270000D01*
X54240812Y-61145518D01*
X54204502Y-61025820D01*
X54175000Y-60970627D01*
X54175000Y-60967762D01*
X54172334Y-60954361D01*
X54204502Y-60894180D01*
X54240812Y-60774482D01*
X54253072Y-60650000D01*
X54253072Y-60486730D01*
X54266923Y-60472878D01*
X54370521Y-60429967D01*
X54395000Y-60413611D01*
X54395000Y-60471260D01*
X54452068Y-60758158D01*
X54564010Y-61028411D01*
X54726525Y-61271632D01*
X54933368Y-61478475D01*
X55115534Y-61600195D01*
X54998645Y-61669822D01*
X54782412Y-61864731D01*
X54608359Y-62098080D01*
X54483175Y-62360901D01*
X54438524Y-62508110D01*
X54559845Y-62738000D01*
X55753000Y-62738000D01*
X55753000Y-62718000D01*
X56007000Y-62718000D01*
X56007000Y-62738000D01*
X57200155Y-62738000D01*
X57321476Y-62508110D01*
X57276825Y-62360901D01*
X57151641Y-62098080D01*
X56977588Y-61864731D01*
X56761355Y-61669822D01*
X56644466Y-61600195D01*
X56826632Y-61478475D01*
X57033475Y-61271632D01*
X57195990Y-61028411D01*
X57307932Y-60758158D01*
X57365000Y-60471260D01*
X57365000Y-60178740D01*
X57307932Y-59891842D01*
X57195990Y-59621589D01*
X57033475Y-59378368D01*
X56901620Y-59246513D01*
X56974180Y-59224502D01*
X57084494Y-59165537D01*
X57181185Y-59086185D01*
X57260537Y-58989494D01*
X57319502Y-58879180D01*
X57355812Y-58759482D01*
X57368072Y-58635000D01*
X57368072Y-56935000D01*
X57355812Y-56810518D01*
X57319502Y-56690820D01*
X57260537Y-56580506D01*
X57181185Y-56483815D01*
X57084494Y-56404463D01*
X56974180Y-56345498D01*
X56854482Y-56309188D01*
X56730000Y-56296928D01*
X55030000Y-56296928D01*
X54905518Y-56309188D01*
X54785820Y-56345498D01*
X54675506Y-56404463D01*
X54578815Y-56483815D01*
X54499463Y-56580506D01*
X54440498Y-56690820D01*
X54404188Y-56810518D01*
X54391928Y-56935000D01*
X54391928Y-58635000D01*
X54404188Y-58759482D01*
X54440498Y-58879180D01*
X54499463Y-58989494D01*
X54578815Y-59086185D01*
X54675506Y-59165537D01*
X54785820Y-59224502D01*
X54858380Y-59246513D01*
X54742923Y-59361970D01*
X54714967Y-59294479D01*
X54623587Y-59157719D01*
X54507281Y-59041413D01*
X54370521Y-58950033D01*
X54218560Y-58887089D01*
X54057240Y-58855000D01*
X53892760Y-58855000D01*
X53731440Y-58887089D01*
X53579479Y-58950033D01*
X53442719Y-59041413D01*
X53326413Y-59157719D01*
X53235033Y-59294479D01*
X53207095Y-59361928D01*
X52115000Y-59361928D01*
X51990518Y-59374188D01*
X51870820Y-59410498D01*
X51760506Y-59469463D01*
X51663815Y-59548815D01*
X51584463Y-59645506D01*
X51525498Y-59755820D01*
X51489188Y-59875518D01*
X51476928Y-60000000D01*
X51476928Y-60650000D01*
X51489188Y-60774482D01*
X51525498Y-60894180D01*
X51560680Y-60960000D01*
X51525498Y-61025820D01*
X51489188Y-61145518D01*
X51476928Y-61270000D01*
X51476928Y-61920000D01*
X51489188Y-62044482D01*
X51507546Y-62105000D01*
X50049802Y-62105000D01*
X49028804Y-61084003D01*
X49005001Y-61054999D01*
X48889276Y-60960026D01*
X48795966Y-60910150D01*
X48804502Y-60894180D01*
X48840812Y-60774482D01*
X48853072Y-60650000D01*
X48850000Y-60610750D01*
X48752205Y-60512955D01*
X48812760Y-60525000D01*
X48977240Y-60525000D01*
X49138560Y-60492911D01*
X49290521Y-60429967D01*
X49427281Y-60338587D01*
X49543587Y-60222281D01*
X49634967Y-60085521D01*
X49697911Y-59933560D01*
X49730000Y-59772240D01*
X49730000Y-59607760D01*
X49697911Y-59446440D01*
X49634967Y-59294479D01*
X49543587Y-59157719D01*
X49427281Y-59041413D01*
X49290521Y-58950033D01*
X49186923Y-58907122D01*
X48724802Y-58445001D01*
X51037677Y-58445001D01*
X51074999Y-58448677D01*
X51112321Y-58445001D01*
X51112332Y-58445001D01*
X51223985Y-58434004D01*
X51367246Y-58390547D01*
X51499275Y-58319975D01*
X51615000Y-58225002D01*
X51638802Y-58195999D01*
X51736729Y-58098072D01*
X51910000Y-58098072D01*
X52034482Y-58085812D01*
X52070000Y-58075038D01*
X52105518Y-58085812D01*
X52230000Y-58098072D01*
X52244250Y-58095000D01*
X52403000Y-57936250D01*
X52403000Y-57860233D01*
X52440537Y-57814494D01*
X52499502Y-57704180D01*
X52535812Y-57584482D01*
X52548072Y-57460000D01*
X52548072Y-57277000D01*
X52657000Y-57277000D01*
X52657000Y-57936250D01*
X52815750Y-58095000D01*
X52830000Y-58098072D01*
X52954482Y-58085812D01*
X53074180Y-58049502D01*
X53184494Y-57990537D01*
X53281185Y-57911185D01*
X53360537Y-57814494D01*
X53419502Y-57704180D01*
X53455812Y-57584482D01*
X53468072Y-57460000D01*
X53465000Y-57435750D01*
X53306250Y-57277000D01*
X52657000Y-57277000D01*
X52548072Y-57277000D01*
X52548072Y-56840000D01*
X52535812Y-56715518D01*
X52499502Y-56595820D01*
X52440537Y-56485506D01*
X52403000Y-56439767D01*
X52403000Y-56363750D01*
X52657000Y-56363750D01*
X52657000Y-57023000D01*
X53306250Y-57023000D01*
X53465000Y-56864250D01*
X53468072Y-56840000D01*
X53455812Y-56715518D01*
X53419502Y-56595820D01*
X53360537Y-56485506D01*
X53281185Y-56388815D01*
X53184494Y-56309463D01*
X53074180Y-56250498D01*
X52954482Y-56214188D01*
X52830000Y-56201928D01*
X52815750Y-56205000D01*
X52657000Y-56363750D01*
X52403000Y-56363750D01*
X52370000Y-56330750D01*
X52370000Y-55395309D01*
X52419250Y-55395000D01*
X52578000Y-55236250D01*
X52578000Y-53712000D01*
X52832000Y-53712000D01*
X52832000Y-55236250D01*
X52990750Y-55395000D01*
X53480000Y-55398072D01*
X53604482Y-55385812D01*
X53724180Y-55349502D01*
X53834494Y-55290537D01*
X53931185Y-55211185D01*
X54010537Y-55114494D01*
X54069502Y-55004180D01*
X54105812Y-54884482D01*
X54118072Y-54760000D01*
X54115000Y-53870750D01*
X53956250Y-53712000D01*
X52832000Y-53712000D01*
X52578000Y-53712000D01*
X52558000Y-53712000D01*
X52558000Y-53458000D01*
X52578000Y-53458000D01*
X52578000Y-53438000D01*
X52832000Y-53438000D01*
X52832000Y-53458000D01*
X53956250Y-53458000D01*
X54115000Y-53299250D01*
X54118072Y-52410000D01*
X54105812Y-52285518D01*
X54069502Y-52165820D01*
X54010537Y-52055506D01*
X53931185Y-51958815D01*
X53834494Y-51879463D01*
X53724180Y-51820498D01*
X53604482Y-51784188D01*
X53480000Y-51771928D01*
X53055204Y-51774595D01*
X53284799Y-51545001D01*
X53702679Y-51545001D01*
X53740001Y-51548677D01*
X53777323Y-51545001D01*
X53777334Y-51545001D01*
X53888987Y-51534004D01*
X54032248Y-51490547D01*
X54164277Y-51419975D01*
X54280002Y-51325002D01*
X54303805Y-51295998D01*
X56861014Y-48738790D01*
X56890011Y-48714993D01*
X56917911Y-48680997D01*
X56984984Y-48599269D01*
X57055556Y-48467239D01*
X57068067Y-48425996D01*
X57099013Y-48323978D01*
X57110010Y-48212325D01*
X57110010Y-48212316D01*
X57113686Y-48174993D01*
X57110010Y-48137670D01*
X57110010Y-44746778D01*
X57113686Y-44709455D01*
X57110010Y-44672132D01*
X57110010Y-44672123D01*
X57099013Y-44560470D01*
X57055556Y-44417209D01*
X56984984Y-44285180D01*
X56890011Y-44169455D01*
X56861012Y-44145656D01*
X56644347Y-43928992D01*
X56620545Y-43899989D01*
X56504820Y-43805016D01*
X56372791Y-43734444D01*
X56229530Y-43690987D01*
X56117877Y-43679990D01*
X56117866Y-43679990D01*
X56080544Y-43676314D01*
X56043222Y-43679990D01*
X55292332Y-43679990D01*
X55255009Y-43676314D01*
X55217686Y-43679990D01*
X55217677Y-43679990D01*
X55106024Y-43690987D01*
X54962763Y-43734444D01*
X54830734Y-43805016D01*
X54715009Y-43899989D01*
X54691210Y-43928988D01*
X54481610Y-44138588D01*
X54449181Y-44141782D01*
X54304158Y-44185775D01*
X54170504Y-44257214D01*
X54053356Y-44353356D01*
X53957214Y-44470504D01*
X53885775Y-44604158D01*
X53841782Y-44749181D01*
X53826928Y-44900000D01*
X53826928Y-45270000D01*
X53841782Y-45420819D01*
X53885775Y-45565842D01*
X53957214Y-45699496D01*
X54053356Y-45816644D01*
X54113181Y-45865741D01*
X54102823Y-45883837D01*
X54063059Y-46002433D01*
X54050000Y-46113250D01*
X54208750Y-46272000D01*
X54706928Y-46272000D01*
X54706928Y-46438000D01*
X54208750Y-46438000D01*
X54050000Y-46596750D01*
X54063059Y-46707567D01*
X54102823Y-46826163D01*
X54125053Y-46865000D01*
X52896494Y-46865000D01*
X52872911Y-46746440D01*
X52845762Y-46680895D01*
X52874494Y-46665537D01*
X52971185Y-46586185D01*
X53050537Y-46489494D01*
X53109502Y-46379180D01*
X53145812Y-46259482D01*
X53158072Y-46135000D01*
X53158072Y-45435000D01*
X53145812Y-45310518D01*
X53109502Y-45190820D01*
X53052939Y-45085000D01*
X53109502Y-44979180D01*
X53145812Y-44859482D01*
X53158072Y-44735000D01*
X53155000Y-44670750D01*
X52996250Y-44512000D01*
X52297000Y-44512000D01*
X52297000Y-44532000D01*
X52043000Y-44532000D01*
X52043000Y-44512000D01*
X51343750Y-44512000D01*
X51185000Y-44670750D01*
X51181928Y-44735000D01*
X51194188Y-44859482D01*
X51230498Y-44979180D01*
X51287061Y-45085000D01*
X51230498Y-45190820D01*
X51194188Y-45310518D01*
X51181928Y-45435000D01*
X51181928Y-46135000D01*
X51194188Y-46259482D01*
X51230498Y-46379180D01*
X51289463Y-46489494D01*
X51310000Y-46514519D01*
X51310000Y-46642842D01*
X51267089Y-46746440D01*
X51235000Y-46907760D01*
X51235000Y-46920922D01*
X51105718Y-46990026D01*
X50989993Y-47084999D01*
X50966190Y-47114003D01*
X50755194Y-47324999D01*
X49880000Y-47324999D01*
X49880000Y-47232998D01*
X49721252Y-47232998D01*
X49880000Y-47074250D01*
X49883072Y-47010000D01*
X49870812Y-46885518D01*
X49834502Y-46765820D01*
X49775537Y-46655506D01*
X49696185Y-46558815D01*
X49599494Y-46479463D01*
X49489180Y-46420498D01*
X49369482Y-46384188D01*
X49245000Y-46371928D01*
X49180750Y-46375000D01*
X49022000Y-46533750D01*
X49022000Y-47233000D01*
X49042000Y-47233000D01*
X49042000Y-47324999D01*
X48748000Y-47324999D01*
X48748000Y-47233000D01*
X48768000Y-47233000D01*
X48768000Y-46533750D01*
X48609250Y-46375000D01*
X48545000Y-46371928D01*
X48460000Y-46380299D01*
X48460000Y-46272760D01*
X48427911Y-46111440D01*
X48397284Y-46037500D01*
X48427911Y-45963560D01*
X48460000Y-45802240D01*
X48460000Y-45637760D01*
X48427911Y-45476440D01*
X48364967Y-45324479D01*
X48273587Y-45187719D01*
X48157281Y-45071413D01*
X48020521Y-44980033D01*
X47923948Y-44940031D01*
X47814276Y-44850026D01*
X47682247Y-44779454D01*
X47538986Y-44735997D01*
X47427333Y-44725000D01*
X47427322Y-44725000D01*
X47390000Y-44721324D01*
X47352678Y-44725000D01*
X46913072Y-44725000D01*
X46913072Y-44539326D01*
X46949276Y-44519974D01*
X47065001Y-44425001D01*
X47088803Y-44395998D01*
X47449801Y-44035000D01*
X51181928Y-44035000D01*
X51185000Y-44099250D01*
X51343750Y-44258000D01*
X52043000Y-44258000D01*
X52043000Y-43558750D01*
X52297000Y-43558750D01*
X52297000Y-44258000D01*
X52996250Y-44258000D01*
X53155000Y-44099250D01*
X53158072Y-44035000D01*
X53145812Y-43910518D01*
X53109502Y-43790820D01*
X53050537Y-43680506D01*
X52971185Y-43583815D01*
X52874494Y-43504463D01*
X52764180Y-43445498D01*
X52644482Y-43409188D01*
X52520000Y-43396928D01*
X52455750Y-43400000D01*
X52297000Y-43558750D01*
X52043000Y-43558750D01*
X51884250Y-43400000D01*
X51820000Y-43396928D01*
X51695518Y-43409188D01*
X51575820Y-43445498D01*
X51465506Y-43504463D01*
X51368815Y-43583815D01*
X51289463Y-43680506D01*
X51230498Y-43790820D01*
X51194188Y-43910518D01*
X51181928Y-44035000D01*
X47449801Y-44035000D01*
X47561014Y-43923787D01*
X47590012Y-43899990D01*
X47684985Y-43784265D01*
X47755557Y-43652236D01*
X47799014Y-43508975D01*
X47810011Y-43397322D01*
X47810011Y-43397314D01*
X47813687Y-43359989D01*
X47810011Y-43322664D01*
X47810011Y-40595331D01*
X47813687Y-40558008D01*
X47810011Y-40520685D01*
X47810011Y-40520677D01*
X47799014Y-40409024D01*
X47755557Y-40265763D01*
X47684985Y-40133733D01*
X47657300Y-40099999D01*
X47613810Y-40047005D01*
X47613806Y-40047001D01*
X47590012Y-40018008D01*
X47561018Y-39994214D01*
X47063803Y-39497000D01*
X60833000Y-39497000D01*
X60833000Y-56371593D01*
%TA.AperFunction,Conductor*%
D36*
G36*
X60833000Y-56371593D02*
G01*
X60784180Y-56345498D01*
X60664482Y-56309188D01*
X60540000Y-56296928D01*
X58840000Y-56296928D01*
X58715518Y-56309188D01*
X58595820Y-56345498D01*
X58485506Y-56404463D01*
X58388815Y-56483815D01*
X58309463Y-56580506D01*
X58250498Y-56690820D01*
X58214188Y-56810518D01*
X58201928Y-56935000D01*
X58201928Y-58635000D01*
X58214188Y-58759482D01*
X58250498Y-58879180D01*
X58309463Y-58989494D01*
X58388815Y-59086185D01*
X58485506Y-59165537D01*
X58595820Y-59224502D01*
X58668380Y-59246513D01*
X58536525Y-59378368D01*
X58374010Y-59621589D01*
X58262068Y-59891842D01*
X58205000Y-60178740D01*
X58205000Y-60471260D01*
X58262068Y-60758158D01*
X58374010Y-61028411D01*
X58536525Y-61271632D01*
X58743368Y-61478475D01*
X58925534Y-61600195D01*
X58808645Y-61669822D01*
X58592412Y-61864731D01*
X58418359Y-62098080D01*
X58293175Y-62360901D01*
X58248524Y-62508110D01*
X58369845Y-62738000D01*
X59563000Y-62738000D01*
X59563000Y-62718000D01*
X59817000Y-62718000D01*
X59817000Y-62738000D01*
X59837000Y-62738000D01*
X59837000Y-62992000D01*
X59817000Y-62992000D01*
X59817000Y-64185814D01*
X60046891Y-64306481D01*
X60321252Y-64209157D01*
X60571355Y-64060178D01*
X60787588Y-63865269D01*
X60833000Y-63804386D01*
X60833000Y-64643000D01*
X54223061Y-64643000D01*
X54240812Y-64584482D01*
X54253072Y-64460000D01*
X54253072Y-63810000D01*
X54240812Y-63685518D01*
X54204502Y-63565820D01*
X54169320Y-63500000D01*
X54204502Y-63434180D01*
X54240812Y-63314482D01*
X54249931Y-63221890D01*
X54438524Y-63221890D01*
X54483175Y-63369099D01*
X54608359Y-63631920D01*
X54782412Y-63865269D01*
X54998645Y-64060178D01*
X55248748Y-64209157D01*
X55523109Y-64306481D01*
X55753000Y-64185814D01*
X55753000Y-62992000D01*
X56007000Y-62992000D01*
X56007000Y-64185814D01*
X56236891Y-64306481D01*
X56511252Y-64209157D01*
X56761355Y-64060178D01*
X56977588Y-63865269D01*
X57151641Y-63631920D01*
X57276825Y-63369099D01*
X57321476Y-63221890D01*
X58248524Y-63221890D01*
X58293175Y-63369099D01*
X58418359Y-63631920D01*
X58592412Y-63865269D01*
X58808645Y-64060178D01*
X59058748Y-64209157D01*
X59333109Y-64306481D01*
X59563000Y-64185814D01*
X59563000Y-62992000D01*
X58369845Y-62992000D01*
X58248524Y-63221890D01*
X57321476Y-63221890D01*
X57200155Y-62992000D01*
X56007000Y-62992000D01*
X55753000Y-62992000D01*
X54559845Y-62992000D01*
X54438524Y-63221890D01*
X54249931Y-63221890D01*
X54253072Y-63190000D01*
X54253072Y-62540000D01*
X54240812Y-62415518D01*
X54204502Y-62295820D01*
X54169320Y-62230000D01*
X54204502Y-62164180D01*
X54240812Y-62044482D01*
X54253072Y-61920000D01*
X54253072Y-61270000D01*
X54240812Y-61145518D01*
X54204502Y-61025820D01*
X54175000Y-60970627D01*
X54175000Y-60967762D01*
X54172334Y-60954361D01*
X54204502Y-60894180D01*
X54240812Y-60774482D01*
X54253072Y-60650000D01*
X54253072Y-60486730D01*
X54266923Y-60472878D01*
X54370521Y-60429967D01*
X54395000Y-60413611D01*
X54395000Y-60471260D01*
X54452068Y-60758158D01*
X54564010Y-61028411D01*
X54726525Y-61271632D01*
X54933368Y-61478475D01*
X55115534Y-61600195D01*
X54998645Y-61669822D01*
X54782412Y-61864731D01*
X54608359Y-62098080D01*
X54483175Y-62360901D01*
X54438524Y-62508110D01*
X54559845Y-62738000D01*
X55753000Y-62738000D01*
X55753000Y-62718000D01*
X56007000Y-62718000D01*
X56007000Y-62738000D01*
X57200155Y-62738000D01*
X57321476Y-62508110D01*
X57276825Y-62360901D01*
X57151641Y-62098080D01*
X56977588Y-61864731D01*
X56761355Y-61669822D01*
X56644466Y-61600195D01*
X56826632Y-61478475D01*
X57033475Y-61271632D01*
X57195990Y-61028411D01*
X57307932Y-60758158D01*
X57365000Y-60471260D01*
X57365000Y-60178740D01*
X57307932Y-59891842D01*
X57195990Y-59621589D01*
X57033475Y-59378368D01*
X56901620Y-59246513D01*
X56974180Y-59224502D01*
X57084494Y-59165537D01*
X57181185Y-59086185D01*
X57260537Y-58989494D01*
X57319502Y-58879180D01*
X57355812Y-58759482D01*
X57368072Y-58635000D01*
X57368072Y-56935000D01*
X57355812Y-56810518D01*
X57319502Y-56690820D01*
X57260537Y-56580506D01*
X57181185Y-56483815D01*
X57084494Y-56404463D01*
X56974180Y-56345498D01*
X56854482Y-56309188D01*
X56730000Y-56296928D01*
X55030000Y-56296928D01*
X54905518Y-56309188D01*
X54785820Y-56345498D01*
X54675506Y-56404463D01*
X54578815Y-56483815D01*
X54499463Y-56580506D01*
X54440498Y-56690820D01*
X54404188Y-56810518D01*
X54391928Y-56935000D01*
X54391928Y-58635000D01*
X54404188Y-58759482D01*
X54440498Y-58879180D01*
X54499463Y-58989494D01*
X54578815Y-59086185D01*
X54675506Y-59165537D01*
X54785820Y-59224502D01*
X54858380Y-59246513D01*
X54742923Y-59361970D01*
X54714967Y-59294479D01*
X54623587Y-59157719D01*
X54507281Y-59041413D01*
X54370521Y-58950033D01*
X54218560Y-58887089D01*
X54057240Y-58855000D01*
X53892760Y-58855000D01*
X53731440Y-58887089D01*
X53579479Y-58950033D01*
X53442719Y-59041413D01*
X53326413Y-59157719D01*
X53235033Y-59294479D01*
X53207095Y-59361928D01*
X52115000Y-59361928D01*
X51990518Y-59374188D01*
X51870820Y-59410498D01*
X51760506Y-59469463D01*
X51663815Y-59548815D01*
X51584463Y-59645506D01*
X51525498Y-59755820D01*
X51489188Y-59875518D01*
X51476928Y-60000000D01*
X51476928Y-60650000D01*
X51489188Y-60774482D01*
X51525498Y-60894180D01*
X51560680Y-60960000D01*
X51525498Y-61025820D01*
X51489188Y-61145518D01*
X51476928Y-61270000D01*
X51476928Y-61920000D01*
X51489188Y-62044482D01*
X51507546Y-62105000D01*
X50049802Y-62105000D01*
X49028804Y-61084003D01*
X49005001Y-61054999D01*
X48889276Y-60960026D01*
X48795966Y-60910150D01*
X48804502Y-60894180D01*
X48840812Y-60774482D01*
X48853072Y-60650000D01*
X48850000Y-60610750D01*
X48752205Y-60512955D01*
X48812760Y-60525000D01*
X48977240Y-60525000D01*
X49138560Y-60492911D01*
X49290521Y-60429967D01*
X49427281Y-60338587D01*
X49543587Y-60222281D01*
X49634967Y-60085521D01*
X49697911Y-59933560D01*
X49730000Y-59772240D01*
X49730000Y-59607760D01*
X49697911Y-59446440D01*
X49634967Y-59294479D01*
X49543587Y-59157719D01*
X49427281Y-59041413D01*
X49290521Y-58950033D01*
X49186923Y-58907122D01*
X48724802Y-58445001D01*
X51037677Y-58445001D01*
X51074999Y-58448677D01*
X51112321Y-58445001D01*
X51112332Y-58445001D01*
X51223985Y-58434004D01*
X51367246Y-58390547D01*
X51499275Y-58319975D01*
X51615000Y-58225002D01*
X51638802Y-58195999D01*
X51736729Y-58098072D01*
X51910000Y-58098072D01*
X52034482Y-58085812D01*
X52070000Y-58075038D01*
X52105518Y-58085812D01*
X52230000Y-58098072D01*
X52244250Y-58095000D01*
X52403000Y-57936250D01*
X52403000Y-57860233D01*
X52440537Y-57814494D01*
X52499502Y-57704180D01*
X52535812Y-57584482D01*
X52548072Y-57460000D01*
X52548072Y-57277000D01*
X52657000Y-57277000D01*
X52657000Y-57936250D01*
X52815750Y-58095000D01*
X52830000Y-58098072D01*
X52954482Y-58085812D01*
X53074180Y-58049502D01*
X53184494Y-57990537D01*
X53281185Y-57911185D01*
X53360537Y-57814494D01*
X53419502Y-57704180D01*
X53455812Y-57584482D01*
X53468072Y-57460000D01*
X53465000Y-57435750D01*
X53306250Y-57277000D01*
X52657000Y-57277000D01*
X52548072Y-57277000D01*
X52548072Y-56840000D01*
X52535812Y-56715518D01*
X52499502Y-56595820D01*
X52440537Y-56485506D01*
X52403000Y-56439767D01*
X52403000Y-56363750D01*
X52657000Y-56363750D01*
X52657000Y-57023000D01*
X53306250Y-57023000D01*
X53465000Y-56864250D01*
X53468072Y-56840000D01*
X53455812Y-56715518D01*
X53419502Y-56595820D01*
X53360537Y-56485506D01*
X53281185Y-56388815D01*
X53184494Y-56309463D01*
X53074180Y-56250498D01*
X52954482Y-56214188D01*
X52830000Y-56201928D01*
X52815750Y-56205000D01*
X52657000Y-56363750D01*
X52403000Y-56363750D01*
X52370000Y-56330750D01*
X52370000Y-55395309D01*
X52419250Y-55395000D01*
X52578000Y-55236250D01*
X52578000Y-53712000D01*
X52832000Y-53712000D01*
X52832000Y-55236250D01*
X52990750Y-55395000D01*
X53480000Y-55398072D01*
X53604482Y-55385812D01*
X53724180Y-55349502D01*
X53834494Y-55290537D01*
X53931185Y-55211185D01*
X54010537Y-55114494D01*
X54069502Y-55004180D01*
X54105812Y-54884482D01*
X54118072Y-54760000D01*
X54115000Y-53870750D01*
X53956250Y-53712000D01*
X52832000Y-53712000D01*
X52578000Y-53712000D01*
X52558000Y-53712000D01*
X52558000Y-53458000D01*
X52578000Y-53458000D01*
X52578000Y-53438000D01*
X52832000Y-53438000D01*
X52832000Y-53458000D01*
X53956250Y-53458000D01*
X54115000Y-53299250D01*
X54118072Y-52410000D01*
X54105812Y-52285518D01*
X54069502Y-52165820D01*
X54010537Y-52055506D01*
X53931185Y-51958815D01*
X53834494Y-51879463D01*
X53724180Y-51820498D01*
X53604482Y-51784188D01*
X53480000Y-51771928D01*
X53055204Y-51774595D01*
X53284799Y-51545001D01*
X53702679Y-51545001D01*
X53740001Y-51548677D01*
X53777323Y-51545001D01*
X53777334Y-51545001D01*
X53888987Y-51534004D01*
X54032248Y-51490547D01*
X54164277Y-51419975D01*
X54280002Y-51325002D01*
X54303805Y-51295998D01*
X56861014Y-48738790D01*
X56890011Y-48714993D01*
X56917911Y-48680997D01*
X56984984Y-48599269D01*
X57055556Y-48467239D01*
X57068067Y-48425996D01*
X57099013Y-48323978D01*
X57110010Y-48212325D01*
X57110010Y-48212316D01*
X57113686Y-48174993D01*
X57110010Y-48137670D01*
X57110010Y-44746778D01*
X57113686Y-44709455D01*
X57110010Y-44672132D01*
X57110010Y-44672123D01*
X57099013Y-44560470D01*
X57055556Y-44417209D01*
X56984984Y-44285180D01*
X56890011Y-44169455D01*
X56861012Y-44145656D01*
X56644347Y-43928992D01*
X56620545Y-43899989D01*
X56504820Y-43805016D01*
X56372791Y-43734444D01*
X56229530Y-43690987D01*
X56117877Y-43679990D01*
X56117866Y-43679990D01*
X56080544Y-43676314D01*
X56043222Y-43679990D01*
X55292332Y-43679990D01*
X55255009Y-43676314D01*
X55217686Y-43679990D01*
X55217677Y-43679990D01*
X55106024Y-43690987D01*
X54962763Y-43734444D01*
X54830734Y-43805016D01*
X54715009Y-43899989D01*
X54691210Y-43928988D01*
X54481610Y-44138588D01*
X54449181Y-44141782D01*
X54304158Y-44185775D01*
X54170504Y-44257214D01*
X54053356Y-44353356D01*
X53957214Y-44470504D01*
X53885775Y-44604158D01*
X53841782Y-44749181D01*
X53826928Y-44900000D01*
X53826928Y-45270000D01*
X53841782Y-45420819D01*
X53885775Y-45565842D01*
X53957214Y-45699496D01*
X54053356Y-45816644D01*
X54113181Y-45865741D01*
X54102823Y-45883837D01*
X54063059Y-46002433D01*
X54050000Y-46113250D01*
X54208750Y-46272000D01*
X54706928Y-46272000D01*
X54706928Y-46438000D01*
X54208750Y-46438000D01*
X54050000Y-46596750D01*
X54063059Y-46707567D01*
X54102823Y-46826163D01*
X54125053Y-46865000D01*
X52896494Y-46865000D01*
X52872911Y-46746440D01*
X52845762Y-46680895D01*
X52874494Y-46665537D01*
X52971185Y-46586185D01*
X53050537Y-46489494D01*
X53109502Y-46379180D01*
X53145812Y-46259482D01*
X53158072Y-46135000D01*
X53158072Y-45435000D01*
X53145812Y-45310518D01*
X53109502Y-45190820D01*
X53052939Y-45085000D01*
X53109502Y-44979180D01*
X53145812Y-44859482D01*
X53158072Y-44735000D01*
X53155000Y-44670750D01*
X52996250Y-44512000D01*
X52297000Y-44512000D01*
X52297000Y-44532000D01*
X52043000Y-44532000D01*
X52043000Y-44512000D01*
X51343750Y-44512000D01*
X51185000Y-44670750D01*
X51181928Y-44735000D01*
X51194188Y-44859482D01*
X51230498Y-44979180D01*
X51287061Y-45085000D01*
X51230498Y-45190820D01*
X51194188Y-45310518D01*
X51181928Y-45435000D01*
X51181928Y-46135000D01*
X51194188Y-46259482D01*
X51230498Y-46379180D01*
X51289463Y-46489494D01*
X51310000Y-46514519D01*
X51310000Y-46642842D01*
X51267089Y-46746440D01*
X51235000Y-46907760D01*
X51235000Y-46920922D01*
X51105718Y-46990026D01*
X50989993Y-47084999D01*
X50966190Y-47114003D01*
X50755194Y-47324999D01*
X49880000Y-47324999D01*
X49880000Y-47232998D01*
X49721252Y-47232998D01*
X49880000Y-47074250D01*
X49883072Y-47010000D01*
X49870812Y-46885518D01*
X49834502Y-46765820D01*
X49775537Y-46655506D01*
X49696185Y-46558815D01*
X49599494Y-46479463D01*
X49489180Y-46420498D01*
X49369482Y-46384188D01*
X49245000Y-46371928D01*
X49180750Y-46375000D01*
X49022000Y-46533750D01*
X49022000Y-47233000D01*
X49042000Y-47233000D01*
X49042000Y-47324999D01*
X48748000Y-47324999D01*
X48748000Y-47233000D01*
X48768000Y-47233000D01*
X48768000Y-46533750D01*
X48609250Y-46375000D01*
X48545000Y-46371928D01*
X48460000Y-46380299D01*
X48460000Y-46272760D01*
X48427911Y-46111440D01*
X48397284Y-46037500D01*
X48427911Y-45963560D01*
X48460000Y-45802240D01*
X48460000Y-45637760D01*
X48427911Y-45476440D01*
X48364967Y-45324479D01*
X48273587Y-45187719D01*
X48157281Y-45071413D01*
X48020521Y-44980033D01*
X47923948Y-44940031D01*
X47814276Y-44850026D01*
X47682247Y-44779454D01*
X47538986Y-44735997D01*
X47427333Y-44725000D01*
X47427322Y-44725000D01*
X47390000Y-44721324D01*
X47352678Y-44725000D01*
X46913072Y-44725000D01*
X46913072Y-44539326D01*
X46949276Y-44519974D01*
X47065001Y-44425001D01*
X47088803Y-44395998D01*
X47449801Y-44035000D01*
X51181928Y-44035000D01*
X51185000Y-44099250D01*
X51343750Y-44258000D01*
X52043000Y-44258000D01*
X52043000Y-43558750D01*
X52297000Y-43558750D01*
X52297000Y-44258000D01*
X52996250Y-44258000D01*
X53155000Y-44099250D01*
X53158072Y-44035000D01*
X53145812Y-43910518D01*
X53109502Y-43790820D01*
X53050537Y-43680506D01*
X52971185Y-43583815D01*
X52874494Y-43504463D01*
X52764180Y-43445498D01*
X52644482Y-43409188D01*
X52520000Y-43396928D01*
X52455750Y-43400000D01*
X52297000Y-43558750D01*
X52043000Y-43558750D01*
X51884250Y-43400000D01*
X51820000Y-43396928D01*
X51695518Y-43409188D01*
X51575820Y-43445498D01*
X51465506Y-43504463D01*
X51368815Y-43583815D01*
X51289463Y-43680506D01*
X51230498Y-43790820D01*
X51194188Y-43910518D01*
X51181928Y-44035000D01*
X47449801Y-44035000D01*
X47561014Y-43923787D01*
X47590012Y-43899990D01*
X47684985Y-43784265D01*
X47755557Y-43652236D01*
X47799014Y-43508975D01*
X47810011Y-43397322D01*
X47810011Y-43397314D01*
X47813687Y-43359989D01*
X47810011Y-43322664D01*
X47810011Y-40595331D01*
X47813687Y-40558008D01*
X47810011Y-40520685D01*
X47810011Y-40520677D01*
X47799014Y-40409024D01*
X47755557Y-40265763D01*
X47684985Y-40133733D01*
X47657300Y-40099999D01*
X47613810Y-40047005D01*
X47613806Y-40047001D01*
X47590012Y-40018008D01*
X47561018Y-39994214D01*
X47063803Y-39497000D01*
X60833000Y-39497000D01*
X60833000Y-56371593D01*
G37*
%TD.AperFunction*%
D35*
X17037100Y-39553549D02*
X17100044Y-39705510D01*
X17191424Y-39842270D01*
X17307730Y-39958576D01*
X17444490Y-40049956D01*
X17596451Y-40112900D01*
X17757771Y-40144989D01*
X17922251Y-40144989D01*
X18083571Y-40112900D01*
X18187168Y-40069989D01*
X22475417Y-40069989D01*
X22369997Y-40223322D01*
X22281585Y-40429013D01*
X22235000Y-40648000D01*
X22235000Y-41148000D01*
X23243000Y-41148000D01*
X23243000Y-41128000D01*
X23497000Y-41128000D01*
X23497000Y-41148000D01*
X24505000Y-41148000D01*
X24505000Y-40648000D01*
X24458415Y-40429013D01*
X24370003Y-40223322D01*
X24264583Y-40069989D01*
X27964143Y-40069989D01*
X27926413Y-40107719D01*
X27835033Y-40244479D01*
X27772089Y-40396440D01*
X27740000Y-40557760D01*
X27740000Y-40722240D01*
X27772089Y-40883560D01*
X27785826Y-40916724D01*
X27685117Y-40984015D01*
X27568811Y-41100321D01*
X27477431Y-41237081D01*
X27414487Y-41389042D01*
X27382398Y-41550362D01*
X27382398Y-41714842D01*
X27414487Y-41876162D01*
X27477431Y-42028123D01*
X27568811Y-42164883D01*
X27685117Y-42281189D01*
X27821877Y-42372569D01*
X27973838Y-42435513D01*
X28135158Y-42467602D01*
X28299638Y-42467602D01*
X28460958Y-42435513D01*
X28612919Y-42372569D01*
X28749679Y-42281189D01*
X28865985Y-42164883D01*
X28957365Y-42028123D01*
X29020309Y-41876162D01*
X29052398Y-41714842D01*
X29052398Y-41550362D01*
X29020309Y-41389042D01*
X29006572Y-41355878D01*
X29107281Y-41288587D01*
X29223587Y-41172281D01*
X29314967Y-41035521D01*
X29377911Y-40883560D01*
X29410000Y-40722240D01*
X29410000Y-40557760D01*
X29377911Y-40396440D01*
X29314967Y-40244479D01*
X29223587Y-40107719D01*
X29185857Y-40069989D01*
X33838991Y-40069989D01*
X33834463Y-40075506D01*
X33775498Y-40185820D01*
X33739188Y-40305518D01*
X33726928Y-40430000D01*
X33726928Y-40850000D01*
X33739188Y-40974482D01*
X33775498Y-41094180D01*
X33834463Y-41204494D01*
X33913815Y-41301185D01*
X34010506Y-41380537D01*
X34120820Y-41439502D01*
X34240518Y-41475812D01*
X34365000Y-41488072D01*
X34825000Y-41488072D01*
X34838571Y-41486735D01*
X34820033Y-41514479D01*
X34757089Y-41666440D01*
X34725000Y-41827760D01*
X34725000Y-41992240D01*
X34757089Y-42153560D01*
X34820033Y-42305521D01*
X34846412Y-42345000D01*
X34842760Y-42345000D01*
X34681440Y-42377089D01*
X34529479Y-42440033D01*
X34392719Y-42531413D01*
X34276413Y-42647719D01*
X34185033Y-42784479D01*
X34122089Y-42936440D01*
X34090000Y-43097760D01*
X34090000Y-43262240D01*
X34122089Y-43423560D01*
X34152716Y-43497500D01*
X34122089Y-43571440D01*
X34109538Y-43634538D01*
X34046440Y-43647089D01*
X33894479Y-43710033D01*
X33757719Y-43801413D01*
X33641413Y-43917719D01*
X33550033Y-44054479D01*
X33487089Y-44206440D01*
X33455000Y-44367760D01*
X33455000Y-44532240D01*
X33487089Y-44693560D01*
X33550033Y-44845521D01*
X33641413Y-44982281D01*
X33757719Y-45098587D01*
X33894479Y-45189967D01*
X34046440Y-45252911D01*
X34109538Y-45265462D01*
X34122089Y-45328560D01*
X34185033Y-45480521D01*
X34276413Y-45617281D01*
X34379132Y-45720000D01*
X34276413Y-45822719D01*
X34185033Y-45959479D01*
X34122089Y-46111440D01*
X34090000Y-46272760D01*
X34090000Y-46437240D01*
X34122089Y-46598560D01*
X34185033Y-46750521D01*
X34276413Y-46887281D01*
X34291144Y-46902012D01*
X34290001Y-46907760D01*
X34290001Y-47072240D01*
X34322090Y-47233560D01*
X34385034Y-47385521D01*
X34476414Y-47522281D01*
X34579133Y-47625000D01*
X34476414Y-47727719D01*
X34385034Y-47864479D01*
X34322090Y-48016440D01*
X34290001Y-48177760D01*
X34290001Y-48342240D01*
X34321036Y-48498261D01*
X34291378Y-48514114D01*
X34118552Y-48655949D01*
X33976717Y-48828775D01*
X33871324Y-49025951D01*
X33806423Y-49239899D01*
X33784509Y-49462397D01*
X33806423Y-49684895D01*
X33871324Y-49898843D01*
X33976717Y-50096019D01*
X34083012Y-50225540D01*
X34829400Y-50971928D01*
X34192060Y-50971928D01*
X33520000Y-50299869D01*
X33520000Y-49474248D01*
X33503577Y-49307501D01*
X33438676Y-49093553D01*
X33333284Y-48896377D01*
X33191449Y-48723551D01*
X33018623Y-48581716D01*
X32821446Y-48476324D01*
X32607498Y-48411423D01*
X32385000Y-48389509D01*
X32162501Y-48411423D01*
X31948553Y-48476324D01*
X31751377Y-48581716D01*
X31578551Y-48723551D01*
X31436716Y-48896377D01*
X31432500Y-48904265D01*
X31428284Y-48896377D01*
X31286449Y-48723551D01*
X31113623Y-48581716D01*
X30916446Y-48476324D01*
X30702498Y-48411423D01*
X30480000Y-48389509D01*
X30257501Y-48411423D01*
X30043553Y-48476324D01*
X29846377Y-48581716D01*
X29673551Y-48723551D01*
X29548492Y-48875935D01*
X29523284Y-48828774D01*
X29381449Y-48655948D01*
X29208623Y-48514113D01*
X29011446Y-48408721D01*
X28797498Y-48343820D01*
X28575000Y-48321906D01*
X28352501Y-48343820D01*
X28138553Y-48408721D01*
X27941377Y-48514113D01*
X27768551Y-48655948D01*
X27626716Y-48828774D01*
X27521324Y-49025951D01*
X27456423Y-49239899D01*
X27440000Y-49406646D01*
X27440000Y-49499868D01*
X25967941Y-50971928D01*
X24385000Y-50971928D01*
X24260518Y-50984188D01*
X24140820Y-51020498D01*
X24030506Y-51079463D01*
X23933815Y-51158815D01*
X23854463Y-51255506D01*
X23795498Y-51365820D01*
X23759188Y-51485518D01*
X23746928Y-51610000D01*
X23746928Y-53410000D01*
X23759188Y-53534482D01*
X23795498Y-53654180D01*
X23854463Y-53764494D01*
X23933815Y-53861185D01*
X24030506Y-53940537D01*
X24140820Y-53999502D01*
X24260518Y-54035812D01*
X24385000Y-54048072D01*
X27685000Y-54048072D01*
X27809482Y-54035812D01*
X27929180Y-53999502D01*
X28039494Y-53940537D01*
X28066639Y-53918260D01*
X28075506Y-53925537D01*
X28185820Y-53984502D01*
X28305518Y-54020812D01*
X28430000Y-54033072D01*
X31730000Y-54033072D01*
X31854482Y-54020812D01*
X31974180Y-53984502D01*
X32084494Y-53925537D01*
X32093361Y-53918260D01*
X32120506Y-53940537D01*
X32230820Y-53999502D01*
X32350518Y-54035812D01*
X32475000Y-54048072D01*
X35340001Y-54048072D01*
X35340002Y-56471928D01*
X32475000Y-56471928D01*
X32350518Y-56484188D01*
X32230820Y-56520498D01*
X32120506Y-56579463D01*
X32111639Y-56586740D01*
X32084494Y-56564463D01*
X31974180Y-56505498D01*
X31854482Y-56469188D01*
X31730000Y-56456928D01*
X28430000Y-56456928D01*
X28305518Y-56469188D01*
X28185820Y-56505498D01*
X28075506Y-56564463D01*
X28048361Y-56586740D01*
X28039494Y-56579463D01*
X27929180Y-56520498D01*
X27809482Y-56484188D01*
X27685000Y-56471928D01*
X24819999Y-56471928D01*
X24819999Y-55728468D01*
X24824280Y-55684999D01*
X24819999Y-55641530D01*
X24819999Y-55641522D01*
X24807194Y-55511509D01*
X24756588Y-55344686D01*
X24674410Y-55190940D01*
X24660343Y-55173799D01*
X24591531Y-55089952D01*
X24591529Y-55089950D01*
X24563816Y-55056182D01*
X24530049Y-55028470D01*
X23231535Y-53729957D01*
X23220226Y-53673102D01*
X23142205Y-53484744D01*
X23028937Y-53315226D01*
X22884774Y-53171063D01*
X22715256Y-53057795D01*
X22526898Y-52979774D01*
X22326939Y-52940000D01*
X22123061Y-52940000D01*
X21923102Y-52979774D01*
X21734744Y-53057795D01*
X21565226Y-53171063D01*
X21421063Y-53315226D01*
X21307795Y-53484744D01*
X21229774Y-53673102D01*
X21190000Y-53873061D01*
X21190000Y-54076939D01*
X21229774Y-54276898D01*
X21307795Y-54465256D01*
X21421063Y-54634774D01*
X21565226Y-54778937D01*
X21734744Y-54892205D01*
X21923102Y-54970226D01*
X21979957Y-54981535D01*
X23049999Y-56051578D01*
X23050000Y-58248421D01*
X21483348Y-59815073D01*
X21409494Y-59754463D01*
X21299180Y-59695498D01*
X21179482Y-59659188D01*
X21055000Y-59646928D01*
X19585000Y-59646928D01*
X19460518Y-59659188D01*
X19340820Y-59695498D01*
X19230506Y-59754463D01*
X19133815Y-59833815D01*
X19054463Y-59930506D01*
X18995498Y-60040820D01*
X18959188Y-60160518D01*
X18946928Y-60285000D01*
X18946928Y-61305000D01*
X18959188Y-61429482D01*
X18995498Y-61549180D01*
X19019990Y-61595000D01*
X18995498Y-61640820D01*
X18985882Y-61672519D01*
X18852894Y-61250293D01*
X18642867Y-60857362D01*
X18286349Y-60653256D01*
X16689605Y-62250000D01*
X18286349Y-63846744D01*
X18642867Y-63642638D01*
X18873575Y-63199777D01*
X18950123Y-62937445D01*
X18959188Y-63029482D01*
X18995498Y-63149180D01*
X19054463Y-63259494D01*
X19133815Y-63356185D01*
X19230506Y-63435537D01*
X19340820Y-63494502D01*
X19460518Y-63530812D01*
X19585000Y-63543072D01*
X20034250Y-63540000D01*
X20193000Y-63381250D01*
X20193000Y-62522000D01*
X20447000Y-62522000D01*
X20447000Y-63381250D01*
X20605750Y-63540000D01*
X21055000Y-63543072D01*
X21179482Y-63530812D01*
X21299180Y-63494502D01*
X21409494Y-63435537D01*
X21506185Y-63356185D01*
X21585537Y-63259494D01*
X21644502Y-63149180D01*
X21680812Y-63029482D01*
X21693072Y-62905000D01*
X21690000Y-62680750D01*
X21531250Y-62522000D01*
X20447000Y-62522000D01*
X20193000Y-62522000D01*
X20173000Y-62522000D01*
X20173000Y-62268000D01*
X20193000Y-62268000D01*
X20193000Y-62248000D01*
X20447000Y-62248000D01*
X20447000Y-62268000D01*
X21531250Y-62268000D01*
X21690000Y-62109250D01*
X21693072Y-61885000D01*
X21680812Y-61760518D01*
X21656387Y-61680000D01*
X21711531Y-61680000D01*
X21755000Y-61684281D01*
X21798469Y-61680000D01*
X21798477Y-61680000D01*
X21928490Y-61667195D01*
X22095313Y-61616589D01*
X22226928Y-61546240D01*
X22226928Y-64130000D01*
X22239188Y-64254482D01*
X22275498Y-64374180D01*
X22334463Y-64484494D01*
X22413815Y-64581185D01*
X22489137Y-64643000D01*
X17350625Y-64643000D01*
X17509707Y-64592894D01*
X17902638Y-64382867D01*
X18106744Y-64026349D01*
X16510000Y-62429605D01*
X14913256Y-64026349D01*
X15117362Y-64382867D01*
X15560223Y-64613575D01*
X15661063Y-64643000D01*
X13995000Y-64643000D01*
X13995000Y-62571150D01*
X14017091Y-62773422D01*
X14167106Y-63249707D01*
X14377133Y-63642638D01*
X14733651Y-63846744D01*
X16330395Y-62250000D01*
X14733651Y-60653256D01*
X14377133Y-60857362D01*
X14146425Y-61300223D01*
X14006548Y-61779583D01*
X13995000Y-61911121D01*
X13995000Y-59310124D01*
X14020498Y-59394180D01*
X14079463Y-59504494D01*
X14158815Y-59601185D01*
X14255506Y-59680537D01*
X14365820Y-59739502D01*
X14485518Y-59775812D01*
X14610000Y-59788072D01*
X15888216Y-59788072D01*
X15510293Y-59907106D01*
X15117362Y-60117133D01*
X14913256Y-60473651D01*
X16510000Y-62070395D01*
X18106744Y-60473651D01*
X17902638Y-60117133D01*
X17459777Y-59886425D01*
X17122720Y-59788072D01*
X18410000Y-59788072D01*
X18534482Y-59775812D01*
X18654180Y-59739502D01*
X18764494Y-59680537D01*
X18861185Y-59601185D01*
X18940537Y-59504494D01*
X18999502Y-59394180D01*
X19035812Y-59274482D01*
X19048072Y-59150000D01*
X19048072Y-55350000D01*
X19035812Y-55225518D01*
X18999502Y-55105820D01*
X18940537Y-54995506D01*
X18861185Y-54898815D01*
X18764494Y-54819463D01*
X18654180Y-54760498D01*
X18534482Y-54724188D01*
X18410000Y-54711928D01*
X14610000Y-54711928D01*
X14485518Y-54724188D01*
X14365820Y-54760498D01*
X14255506Y-54819463D01*
X14158815Y-54898815D01*
X14079463Y-54995506D01*
X14020498Y-55105820D01*
X13995000Y-55189876D01*
X13995000Y-46885586D01*
X13999559Y-46890047D01*
X14191136Y-47015063D01*
X14424190Y-47098964D01*
X14603000Y-46973163D01*
X14603000Y-45582000D01*
X14583000Y-45582000D01*
X14583000Y-45328000D01*
X14603000Y-45328000D01*
X14603000Y-43936837D01*
X14857000Y-43936837D01*
X14857000Y-45328000D01*
X14877000Y-45328000D01*
X14877000Y-45582000D01*
X14857000Y-45582000D01*
X14857000Y-46973163D01*
X15035810Y-47098964D01*
X15115836Y-47070154D01*
X15195506Y-47135537D01*
X15305820Y-47194502D01*
X15425518Y-47230812D01*
X15550000Y-47243072D01*
X15564250Y-47240000D01*
X15723000Y-47081250D01*
X15723000Y-46717420D01*
X15724188Y-46729482D01*
X15760498Y-46849180D01*
X15819463Y-46959494D01*
X15890000Y-47045444D01*
X15890000Y-47092677D01*
X15886324Y-47130000D01*
X15890000Y-47167322D01*
X15890000Y-47167332D01*
X15900997Y-47278985D01*
X15942036Y-47414275D01*
X15944454Y-47422246D01*
X16015026Y-47554276D01*
X16053691Y-47601389D01*
X16109999Y-47670001D01*
X16139003Y-47693804D01*
X16362121Y-47916922D01*
X16405033Y-48020521D01*
X16496413Y-48157281D01*
X16612719Y-48273587D01*
X16749479Y-48364967D01*
X16853077Y-48407878D01*
X17106201Y-48661003D01*
X17130000Y-48690002D01*
X17197014Y-48744999D01*
X17245725Y-48784975D01*
X17377754Y-48855547D01*
X17521015Y-48899004D01*
X17670001Y-48913678D01*
X17707334Y-48910001D01*
X19952679Y-48910001D01*
X19990001Y-48913677D01*
X20027323Y-48910001D01*
X20027334Y-48910001D01*
X20138987Y-48899004D01*
X20282248Y-48855547D01*
X20414277Y-48784975D01*
X20530002Y-48690002D01*
X20553804Y-48660999D01*
X21961009Y-47253796D01*
X21990001Y-47230003D01*
X22013795Y-47201010D01*
X22013799Y-47201006D01*
X22038639Y-47170738D01*
X22104494Y-47135537D01*
X22201185Y-47056185D01*
X22280537Y-46959494D01*
X22339502Y-46849180D01*
X22375812Y-46729482D01*
X22377000Y-46717420D01*
X22377000Y-47081250D01*
X22535750Y-47240000D01*
X22550000Y-47243072D01*
X22674482Y-47230812D01*
X22794180Y-47194502D01*
X22904494Y-47135537D01*
X22984164Y-47070154D01*
X23064190Y-47098964D01*
X23243000Y-46973163D01*
X23243000Y-45582000D01*
X23497000Y-45582000D01*
X23497000Y-46973163D01*
X23675810Y-47098964D01*
X23908864Y-47015063D01*
X24100441Y-46890047D01*
X24263947Y-46730059D01*
X24393099Y-46541246D01*
X24482934Y-46330865D01*
X24530000Y-46107000D01*
X24530000Y-45582000D01*
X23497000Y-45582000D01*
X23243000Y-45582000D01*
X23223000Y-45582000D01*
X23223000Y-45328000D01*
X23243000Y-45328000D01*
X23243000Y-43936837D01*
X23497000Y-43936837D01*
X23497000Y-45328000D01*
X24530000Y-45328000D01*
X24530000Y-44803000D01*
X24482934Y-44579135D01*
X24393099Y-44368754D01*
X24263947Y-44179941D01*
X24100441Y-44019953D01*
X23908864Y-43894937D01*
X23675810Y-43811036D01*
X23497000Y-43936837D01*
X23243000Y-43936837D01*
X23064190Y-43811036D01*
X22831136Y-43894937D01*
X22639559Y-44019953D01*
X22489015Y-44167258D01*
X22394731Y-44104259D01*
X22220022Y-44031892D01*
X22034552Y-43995000D01*
X21845448Y-43995000D01*
X21659978Y-44031892D01*
X21490972Y-44101897D01*
X21434974Y-43997133D01*
X21363799Y-43910407D01*
X21340001Y-43881409D01*
X21311003Y-43857611D01*
X20497383Y-43043992D01*
X20473581Y-43014989D01*
X20357856Y-42920016D01*
X20225827Y-42849444D01*
X20082566Y-42805987D01*
X20051263Y-42802904D01*
X19928560Y-42752079D01*
X19767240Y-42719990D01*
X19602760Y-42719990D01*
X19441440Y-42752079D01*
X19289479Y-42815023D01*
X19152719Y-42906403D01*
X19036413Y-43022709D01*
X18945033Y-43159469D01*
X18882089Y-43311430D01*
X18850000Y-43472750D01*
X18850000Y-43637230D01*
X18850229Y-43638379D01*
X18806440Y-43647089D01*
X18654479Y-43710033D01*
X18517719Y-43801413D01*
X18401413Y-43917719D01*
X18310033Y-44054479D01*
X18267122Y-44158077D01*
X18162934Y-44262264D01*
X18140226Y-44148102D01*
X18062205Y-43959744D01*
X17948937Y-43790226D01*
X17804774Y-43646063D01*
X17635256Y-43532795D01*
X17446898Y-43454774D01*
X17246939Y-43415000D01*
X17043061Y-43415000D01*
X16843102Y-43454774D01*
X16654744Y-43532795D01*
X16485226Y-43646063D01*
X16341063Y-43790226D01*
X16227795Y-43959744D01*
X16213191Y-43995000D01*
X16065448Y-43995000D01*
X15879978Y-44031892D01*
X15705269Y-44104259D01*
X15610985Y-44167258D01*
X15460441Y-44019953D01*
X15268864Y-43894937D01*
X15035810Y-43811036D01*
X14857000Y-43936837D01*
X14603000Y-43936837D01*
X14424190Y-43811036D01*
X14191136Y-43894937D01*
X13999559Y-44019953D01*
X13995000Y-44024414D01*
X13995000Y-42645715D01*
X14017236Y-42667369D01*
X14205024Y-42789276D01*
X14428126Y-42869119D01*
X14603000Y-42742954D01*
X14603000Y-41402000D01*
X14857000Y-41402000D01*
X14857000Y-42742954D01*
X15031874Y-42869119D01*
X15254976Y-42789276D01*
X15442764Y-42667369D01*
X15603161Y-42511169D01*
X15730003Y-42326678D01*
X15818415Y-42120987D01*
X15865000Y-41902000D01*
X15865000Y-41402000D01*
X22235000Y-41402000D01*
X22235000Y-41902000D01*
X22281585Y-42120987D01*
X22369997Y-42326678D01*
X22496839Y-42511169D01*
X22657236Y-42667369D01*
X22845024Y-42789276D01*
X23068126Y-42869119D01*
X23243000Y-42742954D01*
X23243000Y-41402000D01*
X23497000Y-41402000D01*
X23497000Y-42742954D01*
X23671874Y-42869119D01*
X23894976Y-42789276D01*
X24082764Y-42667369D01*
X24243161Y-42511169D01*
X24370003Y-42326678D01*
X24458415Y-42120987D01*
X24505000Y-41902000D01*
X24505000Y-41402000D01*
X23497000Y-41402000D01*
X23243000Y-41402000D01*
X22235000Y-41402000D01*
X15865000Y-41402000D01*
X14857000Y-41402000D01*
X14603000Y-41402000D01*
X14583000Y-41402000D01*
X14583000Y-41148000D01*
X14603000Y-41148000D01*
X14603000Y-39807046D01*
X14857000Y-39807046D01*
X14857000Y-41148000D01*
X15865000Y-41148000D01*
X15865000Y-40648000D01*
X15818415Y-40429013D01*
X15730003Y-40223322D01*
X15603161Y-40038831D01*
X15442764Y-39882631D01*
X15254976Y-39760724D01*
X15031874Y-39680881D01*
X14857000Y-39807046D01*
X14603000Y-39807046D01*
X14428126Y-39680881D01*
X14205024Y-39760724D01*
X14017236Y-39882631D01*
X13995000Y-39904285D01*
X13995000Y-39497000D01*
X17025851Y-39497000D01*
X17037100Y-39553549D01*
%TA.AperFunction,Conductor*%
D36*
G36*
X17037100Y-39553549D02*
G01*
X17100044Y-39705510D01*
X17191424Y-39842270D01*
X17307730Y-39958576D01*
X17444490Y-40049956D01*
X17596451Y-40112900D01*
X17757771Y-40144989D01*
X17922251Y-40144989D01*
X18083571Y-40112900D01*
X18187168Y-40069989D01*
X22475417Y-40069989D01*
X22369997Y-40223322D01*
X22281585Y-40429013D01*
X22235000Y-40648000D01*
X22235000Y-41148000D01*
X23243000Y-41148000D01*
X23243000Y-41128000D01*
X23497000Y-41128000D01*
X23497000Y-41148000D01*
X24505000Y-41148000D01*
X24505000Y-40648000D01*
X24458415Y-40429013D01*
X24370003Y-40223322D01*
X24264583Y-40069989D01*
X27964143Y-40069989D01*
X27926413Y-40107719D01*
X27835033Y-40244479D01*
X27772089Y-40396440D01*
X27740000Y-40557760D01*
X27740000Y-40722240D01*
X27772089Y-40883560D01*
X27785826Y-40916724D01*
X27685117Y-40984015D01*
X27568811Y-41100321D01*
X27477431Y-41237081D01*
X27414487Y-41389042D01*
X27382398Y-41550362D01*
X27382398Y-41714842D01*
X27414487Y-41876162D01*
X27477431Y-42028123D01*
X27568811Y-42164883D01*
X27685117Y-42281189D01*
X27821877Y-42372569D01*
X27973838Y-42435513D01*
X28135158Y-42467602D01*
X28299638Y-42467602D01*
X28460958Y-42435513D01*
X28612919Y-42372569D01*
X28749679Y-42281189D01*
X28865985Y-42164883D01*
X28957365Y-42028123D01*
X29020309Y-41876162D01*
X29052398Y-41714842D01*
X29052398Y-41550362D01*
X29020309Y-41389042D01*
X29006572Y-41355878D01*
X29107281Y-41288587D01*
X29223587Y-41172281D01*
X29314967Y-41035521D01*
X29377911Y-40883560D01*
X29410000Y-40722240D01*
X29410000Y-40557760D01*
X29377911Y-40396440D01*
X29314967Y-40244479D01*
X29223587Y-40107719D01*
X29185857Y-40069989D01*
X33838991Y-40069989D01*
X33834463Y-40075506D01*
X33775498Y-40185820D01*
X33739188Y-40305518D01*
X33726928Y-40430000D01*
X33726928Y-40850000D01*
X33739188Y-40974482D01*
X33775498Y-41094180D01*
X33834463Y-41204494D01*
X33913815Y-41301185D01*
X34010506Y-41380537D01*
X34120820Y-41439502D01*
X34240518Y-41475812D01*
X34365000Y-41488072D01*
X34825000Y-41488072D01*
X34838571Y-41486735D01*
X34820033Y-41514479D01*
X34757089Y-41666440D01*
X34725000Y-41827760D01*
X34725000Y-41992240D01*
X34757089Y-42153560D01*
X34820033Y-42305521D01*
X34846412Y-42345000D01*
X34842760Y-42345000D01*
X34681440Y-42377089D01*
X34529479Y-42440033D01*
X34392719Y-42531413D01*
X34276413Y-42647719D01*
X34185033Y-42784479D01*
X34122089Y-42936440D01*
X34090000Y-43097760D01*
X34090000Y-43262240D01*
X34122089Y-43423560D01*
X34152716Y-43497500D01*
X34122089Y-43571440D01*
X34109538Y-43634538D01*
X34046440Y-43647089D01*
X33894479Y-43710033D01*
X33757719Y-43801413D01*
X33641413Y-43917719D01*
X33550033Y-44054479D01*
X33487089Y-44206440D01*
X33455000Y-44367760D01*
X33455000Y-44532240D01*
X33487089Y-44693560D01*
X33550033Y-44845521D01*
X33641413Y-44982281D01*
X33757719Y-45098587D01*
X33894479Y-45189967D01*
X34046440Y-45252911D01*
X34109538Y-45265462D01*
X34122089Y-45328560D01*
X34185033Y-45480521D01*
X34276413Y-45617281D01*
X34379132Y-45720000D01*
X34276413Y-45822719D01*
X34185033Y-45959479D01*
X34122089Y-46111440D01*
X34090000Y-46272760D01*
X34090000Y-46437240D01*
X34122089Y-46598560D01*
X34185033Y-46750521D01*
X34276413Y-46887281D01*
X34291144Y-46902012D01*
X34290001Y-46907760D01*
X34290001Y-47072240D01*
X34322090Y-47233560D01*
X34385034Y-47385521D01*
X34476414Y-47522281D01*
X34579133Y-47625000D01*
X34476414Y-47727719D01*
X34385034Y-47864479D01*
X34322090Y-48016440D01*
X34290001Y-48177760D01*
X34290001Y-48342240D01*
X34321036Y-48498261D01*
X34291378Y-48514114D01*
X34118552Y-48655949D01*
X33976717Y-48828775D01*
X33871324Y-49025951D01*
X33806423Y-49239899D01*
X33784509Y-49462397D01*
X33806423Y-49684895D01*
X33871324Y-49898843D01*
X33976717Y-50096019D01*
X34083012Y-50225540D01*
X34829400Y-50971928D01*
X34192060Y-50971928D01*
X33520000Y-50299869D01*
X33520000Y-49474248D01*
X33503577Y-49307501D01*
X33438676Y-49093553D01*
X33333284Y-48896377D01*
X33191449Y-48723551D01*
X33018623Y-48581716D01*
X32821446Y-48476324D01*
X32607498Y-48411423D01*
X32385000Y-48389509D01*
X32162501Y-48411423D01*
X31948553Y-48476324D01*
X31751377Y-48581716D01*
X31578551Y-48723551D01*
X31436716Y-48896377D01*
X31432500Y-48904265D01*
X31428284Y-48896377D01*
X31286449Y-48723551D01*
X31113623Y-48581716D01*
X30916446Y-48476324D01*
X30702498Y-48411423D01*
X30480000Y-48389509D01*
X30257501Y-48411423D01*
X30043553Y-48476324D01*
X29846377Y-48581716D01*
X29673551Y-48723551D01*
X29548492Y-48875935D01*
X29523284Y-48828774D01*
X29381449Y-48655948D01*
X29208623Y-48514113D01*
X29011446Y-48408721D01*
X28797498Y-48343820D01*
X28575000Y-48321906D01*
X28352501Y-48343820D01*
X28138553Y-48408721D01*
X27941377Y-48514113D01*
X27768551Y-48655948D01*
X27626716Y-48828774D01*
X27521324Y-49025951D01*
X27456423Y-49239899D01*
X27440000Y-49406646D01*
X27440000Y-49499868D01*
X25967941Y-50971928D01*
X24385000Y-50971928D01*
X24260518Y-50984188D01*
X24140820Y-51020498D01*
X24030506Y-51079463D01*
X23933815Y-51158815D01*
X23854463Y-51255506D01*
X23795498Y-51365820D01*
X23759188Y-51485518D01*
X23746928Y-51610000D01*
X23746928Y-53410000D01*
X23759188Y-53534482D01*
X23795498Y-53654180D01*
X23854463Y-53764494D01*
X23933815Y-53861185D01*
X24030506Y-53940537D01*
X24140820Y-53999502D01*
X24260518Y-54035812D01*
X24385000Y-54048072D01*
X27685000Y-54048072D01*
X27809482Y-54035812D01*
X27929180Y-53999502D01*
X28039494Y-53940537D01*
X28066639Y-53918260D01*
X28075506Y-53925537D01*
X28185820Y-53984502D01*
X28305518Y-54020812D01*
X28430000Y-54033072D01*
X31730000Y-54033072D01*
X31854482Y-54020812D01*
X31974180Y-53984502D01*
X32084494Y-53925537D01*
X32093361Y-53918260D01*
X32120506Y-53940537D01*
X32230820Y-53999502D01*
X32350518Y-54035812D01*
X32475000Y-54048072D01*
X35340001Y-54048072D01*
X35340002Y-56471928D01*
X32475000Y-56471928D01*
X32350518Y-56484188D01*
X32230820Y-56520498D01*
X32120506Y-56579463D01*
X32111639Y-56586740D01*
X32084494Y-56564463D01*
X31974180Y-56505498D01*
X31854482Y-56469188D01*
X31730000Y-56456928D01*
X28430000Y-56456928D01*
X28305518Y-56469188D01*
X28185820Y-56505498D01*
X28075506Y-56564463D01*
X28048361Y-56586740D01*
X28039494Y-56579463D01*
X27929180Y-56520498D01*
X27809482Y-56484188D01*
X27685000Y-56471928D01*
X24819999Y-56471928D01*
X24819999Y-55728468D01*
X24824280Y-55684999D01*
X24819999Y-55641530D01*
X24819999Y-55641522D01*
X24807194Y-55511509D01*
X24756588Y-55344686D01*
X24674410Y-55190940D01*
X24660343Y-55173799D01*
X24591531Y-55089952D01*
X24591529Y-55089950D01*
X24563816Y-55056182D01*
X24530049Y-55028470D01*
X23231535Y-53729957D01*
X23220226Y-53673102D01*
X23142205Y-53484744D01*
X23028937Y-53315226D01*
X22884774Y-53171063D01*
X22715256Y-53057795D01*
X22526898Y-52979774D01*
X22326939Y-52940000D01*
X22123061Y-52940000D01*
X21923102Y-52979774D01*
X21734744Y-53057795D01*
X21565226Y-53171063D01*
X21421063Y-53315226D01*
X21307795Y-53484744D01*
X21229774Y-53673102D01*
X21190000Y-53873061D01*
X21190000Y-54076939D01*
X21229774Y-54276898D01*
X21307795Y-54465256D01*
X21421063Y-54634774D01*
X21565226Y-54778937D01*
X21734744Y-54892205D01*
X21923102Y-54970226D01*
X21979957Y-54981535D01*
X23049999Y-56051578D01*
X23050000Y-58248421D01*
X21483348Y-59815073D01*
X21409494Y-59754463D01*
X21299180Y-59695498D01*
X21179482Y-59659188D01*
X21055000Y-59646928D01*
X19585000Y-59646928D01*
X19460518Y-59659188D01*
X19340820Y-59695498D01*
X19230506Y-59754463D01*
X19133815Y-59833815D01*
X19054463Y-59930506D01*
X18995498Y-60040820D01*
X18959188Y-60160518D01*
X18946928Y-60285000D01*
X18946928Y-61305000D01*
X18959188Y-61429482D01*
X18995498Y-61549180D01*
X19019990Y-61595000D01*
X18995498Y-61640820D01*
X18985882Y-61672519D01*
X18852894Y-61250293D01*
X18642867Y-60857362D01*
X18286349Y-60653256D01*
X16689605Y-62250000D01*
X18286349Y-63846744D01*
X18642867Y-63642638D01*
X18873575Y-63199777D01*
X18950123Y-62937445D01*
X18959188Y-63029482D01*
X18995498Y-63149180D01*
X19054463Y-63259494D01*
X19133815Y-63356185D01*
X19230506Y-63435537D01*
X19340820Y-63494502D01*
X19460518Y-63530812D01*
X19585000Y-63543072D01*
X20034250Y-63540000D01*
X20193000Y-63381250D01*
X20193000Y-62522000D01*
X20447000Y-62522000D01*
X20447000Y-63381250D01*
X20605750Y-63540000D01*
X21055000Y-63543072D01*
X21179482Y-63530812D01*
X21299180Y-63494502D01*
X21409494Y-63435537D01*
X21506185Y-63356185D01*
X21585537Y-63259494D01*
X21644502Y-63149180D01*
X21680812Y-63029482D01*
X21693072Y-62905000D01*
X21690000Y-62680750D01*
X21531250Y-62522000D01*
X20447000Y-62522000D01*
X20193000Y-62522000D01*
X20173000Y-62522000D01*
X20173000Y-62268000D01*
X20193000Y-62268000D01*
X20193000Y-62248000D01*
X20447000Y-62248000D01*
X20447000Y-62268000D01*
X21531250Y-62268000D01*
X21690000Y-62109250D01*
X21693072Y-61885000D01*
X21680812Y-61760518D01*
X21656387Y-61680000D01*
X21711531Y-61680000D01*
X21755000Y-61684281D01*
X21798469Y-61680000D01*
X21798477Y-61680000D01*
X21928490Y-61667195D01*
X22095313Y-61616589D01*
X22226928Y-61546240D01*
X22226928Y-64130000D01*
X22239188Y-64254482D01*
X22275498Y-64374180D01*
X22334463Y-64484494D01*
X22413815Y-64581185D01*
X22489137Y-64643000D01*
X17350625Y-64643000D01*
X17509707Y-64592894D01*
X17902638Y-64382867D01*
X18106744Y-64026349D01*
X16510000Y-62429605D01*
X14913256Y-64026349D01*
X15117362Y-64382867D01*
X15560223Y-64613575D01*
X15661063Y-64643000D01*
X13995000Y-64643000D01*
X13995000Y-62571150D01*
X14017091Y-62773422D01*
X14167106Y-63249707D01*
X14377133Y-63642638D01*
X14733651Y-63846744D01*
X16330395Y-62250000D01*
X14733651Y-60653256D01*
X14377133Y-60857362D01*
X14146425Y-61300223D01*
X14006548Y-61779583D01*
X13995000Y-61911121D01*
X13995000Y-59310124D01*
X14020498Y-59394180D01*
X14079463Y-59504494D01*
X14158815Y-59601185D01*
X14255506Y-59680537D01*
X14365820Y-59739502D01*
X14485518Y-59775812D01*
X14610000Y-59788072D01*
X15888216Y-59788072D01*
X15510293Y-59907106D01*
X15117362Y-60117133D01*
X14913256Y-60473651D01*
X16510000Y-62070395D01*
X18106744Y-60473651D01*
X17902638Y-60117133D01*
X17459777Y-59886425D01*
X17122720Y-59788072D01*
X18410000Y-59788072D01*
X18534482Y-59775812D01*
X18654180Y-59739502D01*
X18764494Y-59680537D01*
X18861185Y-59601185D01*
X18940537Y-59504494D01*
X18999502Y-59394180D01*
X19035812Y-59274482D01*
X19048072Y-59150000D01*
X19048072Y-55350000D01*
X19035812Y-55225518D01*
X18999502Y-55105820D01*
X18940537Y-54995506D01*
X18861185Y-54898815D01*
X18764494Y-54819463D01*
X18654180Y-54760498D01*
X18534482Y-54724188D01*
X18410000Y-54711928D01*
X14610000Y-54711928D01*
X14485518Y-54724188D01*
X14365820Y-54760498D01*
X14255506Y-54819463D01*
X14158815Y-54898815D01*
X14079463Y-54995506D01*
X14020498Y-55105820D01*
X13995000Y-55189876D01*
X13995000Y-46885586D01*
X13999559Y-46890047D01*
X14191136Y-47015063D01*
X14424190Y-47098964D01*
X14603000Y-46973163D01*
X14603000Y-45582000D01*
X14583000Y-45582000D01*
X14583000Y-45328000D01*
X14603000Y-45328000D01*
X14603000Y-43936837D01*
X14857000Y-43936837D01*
X14857000Y-45328000D01*
X14877000Y-45328000D01*
X14877000Y-45582000D01*
X14857000Y-45582000D01*
X14857000Y-46973163D01*
X15035810Y-47098964D01*
X15115836Y-47070154D01*
X15195506Y-47135537D01*
X15305820Y-47194502D01*
X15425518Y-47230812D01*
X15550000Y-47243072D01*
X15564250Y-47240000D01*
X15723000Y-47081250D01*
X15723000Y-46717420D01*
X15724188Y-46729482D01*
X15760498Y-46849180D01*
X15819463Y-46959494D01*
X15890000Y-47045444D01*
X15890000Y-47092677D01*
X15886324Y-47130000D01*
X15890000Y-47167322D01*
X15890000Y-47167332D01*
X15900997Y-47278985D01*
X15942036Y-47414275D01*
X15944454Y-47422246D01*
X16015026Y-47554276D01*
X16053691Y-47601389D01*
X16109999Y-47670001D01*
X16139003Y-47693804D01*
X16362121Y-47916922D01*
X16405033Y-48020521D01*
X16496413Y-48157281D01*
X16612719Y-48273587D01*
X16749479Y-48364967D01*
X16853077Y-48407878D01*
X17106201Y-48661003D01*
X17130000Y-48690002D01*
X17197014Y-48744999D01*
X17245725Y-48784975D01*
X17377754Y-48855547D01*
X17521015Y-48899004D01*
X17670001Y-48913678D01*
X17707334Y-48910001D01*
X19952679Y-48910001D01*
X19990001Y-48913677D01*
X20027323Y-48910001D01*
X20027334Y-48910001D01*
X20138987Y-48899004D01*
X20282248Y-48855547D01*
X20414277Y-48784975D01*
X20530002Y-48690002D01*
X20553804Y-48660999D01*
X21961009Y-47253796D01*
X21990001Y-47230003D01*
X22013795Y-47201010D01*
X22013799Y-47201006D01*
X22038639Y-47170738D01*
X22104494Y-47135537D01*
X22201185Y-47056185D01*
X22280537Y-46959494D01*
X22339502Y-46849180D01*
X22375812Y-46729482D01*
X22377000Y-46717420D01*
X22377000Y-47081250D01*
X22535750Y-47240000D01*
X22550000Y-47243072D01*
X22674482Y-47230812D01*
X22794180Y-47194502D01*
X22904494Y-47135537D01*
X22984164Y-47070154D01*
X23064190Y-47098964D01*
X23243000Y-46973163D01*
X23243000Y-45582000D01*
X23497000Y-45582000D01*
X23497000Y-46973163D01*
X23675810Y-47098964D01*
X23908864Y-47015063D01*
X24100441Y-46890047D01*
X24263947Y-46730059D01*
X24393099Y-46541246D01*
X24482934Y-46330865D01*
X24530000Y-46107000D01*
X24530000Y-45582000D01*
X23497000Y-45582000D01*
X23243000Y-45582000D01*
X23223000Y-45582000D01*
X23223000Y-45328000D01*
X23243000Y-45328000D01*
X23243000Y-43936837D01*
X23497000Y-43936837D01*
X23497000Y-45328000D01*
X24530000Y-45328000D01*
X24530000Y-44803000D01*
X24482934Y-44579135D01*
X24393099Y-44368754D01*
X24263947Y-44179941D01*
X24100441Y-44019953D01*
X23908864Y-43894937D01*
X23675810Y-43811036D01*
X23497000Y-43936837D01*
X23243000Y-43936837D01*
X23064190Y-43811036D01*
X22831136Y-43894937D01*
X22639559Y-44019953D01*
X22489015Y-44167258D01*
X22394731Y-44104259D01*
X22220022Y-44031892D01*
X22034552Y-43995000D01*
X21845448Y-43995000D01*
X21659978Y-44031892D01*
X21490972Y-44101897D01*
X21434974Y-43997133D01*
X21363799Y-43910407D01*
X21340001Y-43881409D01*
X21311003Y-43857611D01*
X20497383Y-43043992D01*
X20473581Y-43014989D01*
X20357856Y-42920016D01*
X20225827Y-42849444D01*
X20082566Y-42805987D01*
X20051263Y-42802904D01*
X19928560Y-42752079D01*
X19767240Y-42719990D01*
X19602760Y-42719990D01*
X19441440Y-42752079D01*
X19289479Y-42815023D01*
X19152719Y-42906403D01*
X19036413Y-43022709D01*
X18945033Y-43159469D01*
X18882089Y-43311430D01*
X18850000Y-43472750D01*
X18850000Y-43637230D01*
X18850229Y-43638379D01*
X18806440Y-43647089D01*
X18654479Y-43710033D01*
X18517719Y-43801413D01*
X18401413Y-43917719D01*
X18310033Y-44054479D01*
X18267122Y-44158077D01*
X18162934Y-44262264D01*
X18140226Y-44148102D01*
X18062205Y-43959744D01*
X17948937Y-43790226D01*
X17804774Y-43646063D01*
X17635256Y-43532795D01*
X17446898Y-43454774D01*
X17246939Y-43415000D01*
X17043061Y-43415000D01*
X16843102Y-43454774D01*
X16654744Y-43532795D01*
X16485226Y-43646063D01*
X16341063Y-43790226D01*
X16227795Y-43959744D01*
X16213191Y-43995000D01*
X16065448Y-43995000D01*
X15879978Y-44031892D01*
X15705269Y-44104259D01*
X15610985Y-44167258D01*
X15460441Y-44019953D01*
X15268864Y-43894937D01*
X15035810Y-43811036D01*
X14857000Y-43936837D01*
X14603000Y-43936837D01*
X14424190Y-43811036D01*
X14191136Y-43894937D01*
X13999559Y-44019953D01*
X13995000Y-44024414D01*
X13995000Y-42645715D01*
X14017236Y-42667369D01*
X14205024Y-42789276D01*
X14428126Y-42869119D01*
X14603000Y-42742954D01*
X14603000Y-41402000D01*
X14857000Y-41402000D01*
X14857000Y-42742954D01*
X15031874Y-42869119D01*
X15254976Y-42789276D01*
X15442764Y-42667369D01*
X15603161Y-42511169D01*
X15730003Y-42326678D01*
X15818415Y-42120987D01*
X15865000Y-41902000D01*
X15865000Y-41402000D01*
X22235000Y-41402000D01*
X22235000Y-41902000D01*
X22281585Y-42120987D01*
X22369997Y-42326678D01*
X22496839Y-42511169D01*
X22657236Y-42667369D01*
X22845024Y-42789276D01*
X23068126Y-42869119D01*
X23243000Y-42742954D01*
X23243000Y-41402000D01*
X23497000Y-41402000D01*
X23497000Y-42742954D01*
X23671874Y-42869119D01*
X23894976Y-42789276D01*
X24082764Y-42667369D01*
X24243161Y-42511169D01*
X24370003Y-42326678D01*
X24458415Y-42120987D01*
X24505000Y-41902000D01*
X24505000Y-41402000D01*
X23497000Y-41402000D01*
X23243000Y-41402000D01*
X22235000Y-41402000D01*
X15865000Y-41402000D01*
X14857000Y-41402000D01*
X14603000Y-41402000D01*
X14583000Y-41402000D01*
X14583000Y-41148000D01*
X14603000Y-41148000D01*
X14603000Y-39807046D01*
X14857000Y-39807046D01*
X14857000Y-41148000D01*
X15865000Y-41148000D01*
X15865000Y-40648000D01*
X15818415Y-40429013D01*
X15730003Y-40223322D01*
X15603161Y-40038831D01*
X15442764Y-39882631D01*
X15254976Y-39760724D01*
X15031874Y-39680881D01*
X14857000Y-39807046D01*
X14603000Y-39807046D01*
X14428126Y-39680881D01*
X14205024Y-39760724D01*
X14017236Y-39882631D01*
X13995000Y-39904285D01*
X13995000Y-39497000D01*
X17025851Y-39497000D01*
X17037100Y-39553549D01*
G37*
%TD.AperFunction*%
D35*
X44577000Y-61733000D02*
X44597000Y-61733000D01*
X44597000Y-61775001D01*
X44534999Y-61775001D01*
X44534999Y-61713000D01*
X44577000Y-61713000D01*
X44577000Y-61733000D01*
%TA.AperFunction,Conductor*%
D36*
G36*
X44577000Y-61733000D02*
G01*
X44597000Y-61733000D01*
X44597000Y-61775001D01*
X44534999Y-61775001D01*
X44534999Y-61713000D01*
X44577000Y-61713000D01*
X44577000Y-61733000D01*
G37*
%TD.AperFunction*%
D35*
X47592000Y-60198000D02*
X47612000Y-60198000D01*
X47612000Y-60452000D01*
X47592000Y-60452000D01*
X47592000Y-60472000D01*
X47338000Y-60472000D01*
X47338000Y-60452000D01*
X47318000Y-60452000D01*
X47318000Y-60198000D01*
X47338000Y-60198000D01*
X47338000Y-60178000D01*
X47592000Y-60178000D01*
X47592000Y-60198000D01*
%TA.AperFunction,Conductor*%
D36*
G36*
X47592000Y-60198000D02*
G01*
X47612000Y-60198000D01*
X47612000Y-60452000D01*
X47592000Y-60452000D01*
X47592000Y-60472000D01*
X47338000Y-60472000D01*
X47338000Y-60452000D01*
X47318000Y-60452000D01*
X47318000Y-60198000D01*
X47338000Y-60198000D01*
X47338000Y-60178000D01*
X47592000Y-60178000D01*
X47592000Y-60198000D01*
G37*
%TD.AperFunction*%
D35*
X43615000Y-42627240D02*
X43647089Y-42788560D01*
X43710033Y-42940521D01*
X43801413Y-43077281D01*
X43917719Y-43193587D01*
X44054479Y-43284967D01*
X44136928Y-43319118D01*
X44136928Y-43385000D01*
X44146777Y-43485000D01*
X44136928Y-43585000D01*
X44136928Y-43675882D01*
X44054479Y-43710033D01*
X43917719Y-43801413D01*
X43801413Y-43917719D01*
X43710033Y-44054479D01*
X43647089Y-44206440D01*
X43615000Y-44367760D01*
X43615000Y-44513768D01*
X43468992Y-44513768D01*
X43307672Y-44545857D01*
X43155711Y-44608801D01*
X43018951Y-44700181D01*
X42902645Y-44816487D01*
X42811265Y-44953247D01*
X42768353Y-45056846D01*
X42725270Y-45099929D01*
X42696266Y-45123732D01*
X42657957Y-45170412D01*
X42601293Y-45239457D01*
X42549682Y-45336014D01*
X42530721Y-45371487D01*
X42487264Y-45514748D01*
X42476267Y-45626401D01*
X42476267Y-45626411D01*
X42472591Y-45663733D01*
X42476267Y-45701056D01*
X42476267Y-46096184D01*
X42473108Y-46095873D01*
X42361094Y-46049475D01*
X42199774Y-46017386D01*
X42035294Y-46017386D01*
X41873974Y-46049475D01*
X41722013Y-46112419D01*
X41585253Y-46203799D01*
X41468947Y-46320105D01*
X41377567Y-46456865D01*
X41314623Y-46608826D01*
X41282534Y-46770146D01*
X41282534Y-46934626D01*
X41314623Y-47095946D01*
X41377567Y-47247907D01*
X41468947Y-47384667D01*
X41585253Y-47500973D01*
X41722013Y-47592353D01*
X41873974Y-47655297D01*
X41875001Y-47655501D01*
X41875001Y-48025334D01*
X41820506Y-48054463D01*
X41723815Y-48133815D01*
X41675000Y-48193296D01*
X41626185Y-48133815D01*
X41529494Y-48054463D01*
X41452625Y-48013375D01*
X41389250Y-47950000D01*
X41375000Y-47946928D01*
X41275000Y-47956777D01*
X41175000Y-47946928D01*
X40575000Y-47946928D01*
X40475000Y-47956777D01*
X40375000Y-47946928D01*
X39775000Y-47946928D01*
X39675000Y-47956777D01*
X39575000Y-47946928D01*
X38975000Y-47946928D01*
X38875000Y-47956777D01*
X38775000Y-47946928D01*
X38413072Y-47946928D01*
X38413072Y-47585000D01*
X38403223Y-47485000D01*
X38413072Y-47385000D01*
X38413072Y-46785000D01*
X38403223Y-46685000D01*
X38413072Y-46585000D01*
X38413072Y-45985000D01*
X38403223Y-45885000D01*
X38413072Y-45785000D01*
X38413072Y-45185000D01*
X38403223Y-45085000D01*
X38413072Y-44985000D01*
X38413072Y-44385000D01*
X38403223Y-44285000D01*
X38413072Y-44185000D01*
X38413072Y-43888036D01*
X38498354Y-43905000D01*
X38662834Y-43905000D01*
X38824154Y-43872911D01*
X38927751Y-43830000D01*
X40402678Y-43830000D01*
X40440000Y-43833676D01*
X40477322Y-43830000D01*
X40477333Y-43830000D01*
X40588986Y-43819003D01*
X40732247Y-43775546D01*
X40864276Y-43704974D01*
X40980001Y-43610001D01*
X41003804Y-43580997D01*
X41725796Y-42859005D01*
X41873973Y-42920382D01*
X42035293Y-42952471D01*
X42199773Y-42952471D01*
X42361093Y-42920382D01*
X42513054Y-42857438D01*
X42649814Y-42766058D01*
X42766120Y-42649752D01*
X42771687Y-42641420D01*
X42784479Y-42649967D01*
X42936440Y-42712911D01*
X43097760Y-42745000D01*
X43262240Y-42745000D01*
X43423560Y-42712911D01*
X43575521Y-42649967D01*
X43615000Y-42623588D01*
X43615000Y-42627240D01*
%TA.AperFunction,Conductor*%
D36*
G36*
X43615000Y-42627240D02*
G01*
X43647089Y-42788560D01*
X43710033Y-42940521D01*
X43801413Y-43077281D01*
X43917719Y-43193587D01*
X44054479Y-43284967D01*
X44136928Y-43319118D01*
X44136928Y-43385000D01*
X44146777Y-43485000D01*
X44136928Y-43585000D01*
X44136928Y-43675882D01*
X44054479Y-43710033D01*
X43917719Y-43801413D01*
X43801413Y-43917719D01*
X43710033Y-44054479D01*
X43647089Y-44206440D01*
X43615000Y-44367760D01*
X43615000Y-44513768D01*
X43468992Y-44513768D01*
X43307672Y-44545857D01*
X43155711Y-44608801D01*
X43018951Y-44700181D01*
X42902645Y-44816487D01*
X42811265Y-44953247D01*
X42768353Y-45056846D01*
X42725270Y-45099929D01*
X42696266Y-45123732D01*
X42657957Y-45170412D01*
X42601293Y-45239457D01*
X42549682Y-45336014D01*
X42530721Y-45371487D01*
X42487264Y-45514748D01*
X42476267Y-45626401D01*
X42476267Y-45626411D01*
X42472591Y-45663733D01*
X42476267Y-45701056D01*
X42476267Y-46096184D01*
X42473108Y-46095873D01*
X42361094Y-46049475D01*
X42199774Y-46017386D01*
X42035294Y-46017386D01*
X41873974Y-46049475D01*
X41722013Y-46112419D01*
X41585253Y-46203799D01*
X41468947Y-46320105D01*
X41377567Y-46456865D01*
X41314623Y-46608826D01*
X41282534Y-46770146D01*
X41282534Y-46934626D01*
X41314623Y-47095946D01*
X41377567Y-47247907D01*
X41468947Y-47384667D01*
X41585253Y-47500973D01*
X41722013Y-47592353D01*
X41873974Y-47655297D01*
X41875001Y-47655501D01*
X41875001Y-48025334D01*
X41820506Y-48054463D01*
X41723815Y-48133815D01*
X41675000Y-48193296D01*
X41626185Y-48133815D01*
X41529494Y-48054463D01*
X41452625Y-48013375D01*
X41389250Y-47950000D01*
X41375000Y-47946928D01*
X41275000Y-47956777D01*
X41175000Y-47946928D01*
X40575000Y-47946928D01*
X40475000Y-47956777D01*
X40375000Y-47946928D01*
X39775000Y-47946928D01*
X39675000Y-47956777D01*
X39575000Y-47946928D01*
X38975000Y-47946928D01*
X38875000Y-47956777D01*
X38775000Y-47946928D01*
X38413072Y-47946928D01*
X38413072Y-47585000D01*
X38403223Y-47485000D01*
X38413072Y-47385000D01*
X38413072Y-46785000D01*
X38403223Y-46685000D01*
X38413072Y-46585000D01*
X38413072Y-45985000D01*
X38403223Y-45885000D01*
X38413072Y-45785000D01*
X38413072Y-45185000D01*
X38403223Y-45085000D01*
X38413072Y-44985000D01*
X38413072Y-44385000D01*
X38403223Y-44285000D01*
X38413072Y-44185000D01*
X38413072Y-43888036D01*
X38498354Y-43905000D01*
X38662834Y-43905000D01*
X38824154Y-43872911D01*
X38927751Y-43830000D01*
X40402678Y-43830000D01*
X40440000Y-43833676D01*
X40477322Y-43830000D01*
X40477333Y-43830000D01*
X40588986Y-43819003D01*
X40732247Y-43775546D01*
X40864276Y-43704974D01*
X40980001Y-43610001D01*
X41003804Y-43580997D01*
X41725796Y-42859005D01*
X41873973Y-42920382D01*
X42035293Y-42952471D01*
X42199773Y-42952471D01*
X42361093Y-42920382D01*
X42513054Y-42857438D01*
X42649814Y-42766058D01*
X42766120Y-42649752D01*
X42771687Y-42641420D01*
X42784479Y-42649967D01*
X42936440Y-42712911D01*
X43097760Y-42745000D01*
X43262240Y-42745000D01*
X43423560Y-42712911D01*
X43575521Y-42649967D01*
X43615000Y-42623588D01*
X43615000Y-42627240D01*
G37*
%TD.AperFunction*%
%TD*%
M02*
