%TF.GenerationSoftware,KiCad,Pcbnew,(5.1.9)-1*%
%TF.CreationDate,2021-07-06T13:24:45-04:00*%
%TF.ProjectId,ESC_5A,4553435f-3541-42e6-9b69-6361645f7063,rev?*%
%TF.SameCoordinates,Original*%
%TF.FileFunction,Legend,Bot*%
%TF.FilePolarity,Positive*%
%FSLAX46Y46*%
G04 Gerber Fmt 4.6, Leading zero omitted, Abs format (unit mm)*
G04 Created by KiCad (PCBNEW (5.1.9)-1) date 2021-07-06 13:24:45*
%MOMM*%
%LPD*%
G01*
G04 APERTURE LIST*
%ADD10C,0.200000*%
%ADD11C,0.120000*%
%ADD12C,0.100000*%
%ADD13C,0.400000*%
%ADD14C,0.254000*%
%ADD15C,0.150000*%
%ADD16C,0.015000*%
G04 APERTURE END LIST*
D10*
%TO.C,R9*%
X28655000Y-55245000D02*
X31505000Y-55245000D01*
%TO.C,R7*%
X24610000Y-55260000D02*
X27460000Y-55260000D01*
%TO.C,R6*%
X32700000Y-55260000D02*
X35550000Y-55260000D01*
D11*
%TO.C,R4*%
X46936359Y-58575000D02*
X47243641Y-58575000D01*
X46936359Y-59335000D02*
X47243641Y-59335000D01*
%TO.C,R2*%
X55091359Y-44705000D02*
X55398641Y-44705000D01*
X55091359Y-45465000D02*
X55398641Y-45465000D01*
D12*
%TO.C,L1*%
X43810000Y-51330000D02*
X43810000Y-57890000D01*
X50170000Y-51330000D02*
X43810000Y-51330000D01*
X50170000Y-57890000D02*
X50170000Y-51330000D01*
X43810000Y-57890000D02*
X50170000Y-57890000D01*
D10*
%TO.C,J1*%
X23840000Y-43925000D02*
X23840000Y-42675000D01*
X14260000Y-43925000D02*
X14260000Y-42675000D01*
X23840000Y-38675000D02*
X23840000Y-39955000D01*
X14260000Y-38675000D02*
X23840000Y-38675000D01*
X14260000Y-39955000D02*
X14260000Y-38675000D01*
D13*
%TO.C,IC4*%
X36875000Y-49085000D02*
G75*
G03*
X36875000Y-49085000I-200000J0D01*
G01*
D10*
X38125000Y-41935000D02*
X38125000Y-48235000D01*
X44425000Y-41935000D02*
X38125000Y-41935000D01*
X44425000Y-48235000D02*
X44425000Y-41935000D01*
X38125000Y-48235000D02*
X44425000Y-48235000D01*
%TO.C,IC1*%
X46715000Y-64810000D02*
X48215000Y-64810000D01*
X48565000Y-59780000D02*
X48565000Y-64680000D01*
X51765000Y-59780000D02*
X48565000Y-59780000D01*
X51765000Y-64680000D02*
X51765000Y-59780000D01*
X48565000Y-64680000D02*
X51765000Y-64680000D01*
%TO.C,D2*%
X54007000Y-48837000D02*
X54007000Y-54033000D01*
X51403000Y-54033000D02*
X51403000Y-48510000D01*
%TO.C,C6*%
X52220000Y-46635000D02*
G75*
G03*
X52220000Y-46635000I-50000J0D01*
G01*
%TO.C,C5*%
X48945000Y-49610000D02*
G75*
G03*
X48945000Y-49610000I-50000J0D01*
G01*
%TO.C,C2*%
X44500000Y-59610000D02*
G75*
G03*
X44500000Y-59610000I-50000J0D01*
G01*
%TO.C,R9*%
D14*
X30654523Y-55033333D02*
X30049761Y-54610000D01*
X30654523Y-54307619D02*
X29384523Y-54307619D01*
X29384523Y-54791428D01*
X29445000Y-54912380D01*
X29505476Y-54972857D01*
X29626428Y-55033333D01*
X29807857Y-55033333D01*
X29928809Y-54972857D01*
X29989285Y-54912380D01*
X30049761Y-54791428D01*
X30049761Y-54307619D01*
X30654523Y-55638095D02*
X30654523Y-55880000D01*
X30594047Y-56000952D01*
X30533571Y-56061428D01*
X30352142Y-56182380D01*
X30110238Y-56242857D01*
X29626428Y-56242857D01*
X29505476Y-56182380D01*
X29445000Y-56121904D01*
X29384523Y-56000952D01*
X29384523Y-55759047D01*
X29445000Y-55638095D01*
X29505476Y-55577619D01*
X29626428Y-55517142D01*
X29928809Y-55517142D01*
X30049761Y-55577619D01*
X30110238Y-55638095D01*
X30170714Y-55759047D01*
X30170714Y-56000952D01*
X30110238Y-56121904D01*
X30049761Y-56182380D01*
X29928809Y-56242857D01*
%TO.C,R7*%
X26609523Y-55048333D02*
X26004761Y-54625000D01*
X26609523Y-54322619D02*
X25339523Y-54322619D01*
X25339523Y-54806428D01*
X25400000Y-54927380D01*
X25460476Y-54987857D01*
X25581428Y-55048333D01*
X25762857Y-55048333D01*
X25883809Y-54987857D01*
X25944285Y-54927380D01*
X26004761Y-54806428D01*
X26004761Y-54322619D01*
X25339523Y-55471666D02*
X25339523Y-56318333D01*
X26609523Y-55774047D01*
%TO.C,R6*%
X34699523Y-55048333D02*
X34094761Y-54625000D01*
X34699523Y-54322619D02*
X33429523Y-54322619D01*
X33429523Y-54806428D01*
X33490000Y-54927380D01*
X33550476Y-54987857D01*
X33671428Y-55048333D01*
X33852857Y-55048333D01*
X33973809Y-54987857D01*
X34034285Y-54927380D01*
X34094761Y-54806428D01*
X34094761Y-54322619D01*
X33429523Y-56136904D02*
X33429523Y-55895000D01*
X33490000Y-55774047D01*
X33550476Y-55713571D01*
X33731904Y-55592619D01*
X33973809Y-55532142D01*
X34457619Y-55532142D01*
X34578571Y-55592619D01*
X34639047Y-55653095D01*
X34699523Y-55774047D01*
X34699523Y-56015952D01*
X34639047Y-56136904D01*
X34578571Y-56197380D01*
X34457619Y-56257857D01*
X34155238Y-56257857D01*
X34034285Y-56197380D01*
X33973809Y-56136904D01*
X33913333Y-56015952D01*
X33913333Y-55774047D01*
X33973809Y-55653095D01*
X34034285Y-55592619D01*
X34155238Y-55532142D01*
%TO.C,R4*%
D15*
X47256666Y-60577380D02*
X47590000Y-60101190D01*
X47828095Y-60577380D02*
X47828095Y-59577380D01*
X47447142Y-59577380D01*
X47351904Y-59625000D01*
X47304285Y-59672619D01*
X47256666Y-59767857D01*
X47256666Y-59910714D01*
X47304285Y-60005952D01*
X47351904Y-60053571D01*
X47447142Y-60101190D01*
X47828095Y-60101190D01*
X46399523Y-59910714D02*
X46399523Y-60577380D01*
X46637619Y-59529761D02*
X46875714Y-60244047D01*
X46256666Y-60244047D01*
%TO.C,R2*%
X55411666Y-46707380D02*
X55745000Y-46231190D01*
X55983095Y-46707380D02*
X55983095Y-45707380D01*
X55602142Y-45707380D01*
X55506904Y-45755000D01*
X55459285Y-45802619D01*
X55411666Y-45897857D01*
X55411666Y-46040714D01*
X55459285Y-46135952D01*
X55506904Y-46183571D01*
X55602142Y-46231190D01*
X55983095Y-46231190D01*
X55030714Y-45802619D02*
X54983095Y-45755000D01*
X54887857Y-45707380D01*
X54649761Y-45707380D01*
X54554523Y-45755000D01*
X54506904Y-45802619D01*
X54459285Y-45897857D01*
X54459285Y-45993095D01*
X54506904Y-46135952D01*
X55078333Y-46707380D01*
X54459285Y-46707380D01*
%TO.C,L1*%
D14*
X47201666Y-55184523D02*
X47806428Y-55184523D01*
X47806428Y-53914523D01*
X46113095Y-55184523D02*
X46838809Y-55184523D01*
X46475952Y-55184523D02*
X46475952Y-53914523D01*
X46596904Y-54095952D01*
X46717857Y-54216904D01*
X46838809Y-54277380D01*
%TO.C,J1*%
D16*
X17558333Y-48862380D02*
X17558333Y-49576666D01*
X17605952Y-49719523D01*
X17701190Y-49814761D01*
X17844047Y-49862380D01*
X17939285Y-49862380D01*
X16558333Y-49862380D02*
X17129761Y-49862380D01*
X16844047Y-49862380D02*
X16844047Y-48862380D01*
X16939285Y-49005238D01*
X17034523Y-49100476D01*
X17129761Y-49148095D01*
%TO.C,IC4*%
D14*
X42514761Y-45659523D02*
X42514761Y-44389523D01*
X41184285Y-45538571D02*
X41244761Y-45599047D01*
X41426190Y-45659523D01*
X41547142Y-45659523D01*
X41728571Y-45599047D01*
X41849523Y-45478095D01*
X41910000Y-45357142D01*
X41970476Y-45115238D01*
X41970476Y-44933809D01*
X41910000Y-44691904D01*
X41849523Y-44570952D01*
X41728571Y-44450000D01*
X41547142Y-44389523D01*
X41426190Y-44389523D01*
X41244761Y-44450000D01*
X41184285Y-44510476D01*
X40095714Y-44812857D02*
X40095714Y-45659523D01*
X40398095Y-44329047D02*
X40700476Y-45236190D01*
X39914285Y-45236190D01*
%TO.C,IC1*%
X51404761Y-62804523D02*
X51404761Y-61534523D01*
X50074285Y-62683571D02*
X50134761Y-62744047D01*
X50316190Y-62804523D01*
X50437142Y-62804523D01*
X50618571Y-62744047D01*
X50739523Y-62623095D01*
X50800000Y-62502142D01*
X50860476Y-62260238D01*
X50860476Y-62078809D01*
X50800000Y-61836904D01*
X50739523Y-61715952D01*
X50618571Y-61595000D01*
X50437142Y-61534523D01*
X50316190Y-61534523D01*
X50134761Y-61595000D01*
X50074285Y-61655476D01*
X48864761Y-62804523D02*
X49590476Y-62804523D01*
X49227619Y-62804523D02*
X49227619Y-61534523D01*
X49348571Y-61715952D01*
X49469523Y-61836904D01*
X49590476Y-61897380D01*
%TO.C,D2*%
X53279523Y-50497619D02*
X52009523Y-50497619D01*
X52009523Y-50800000D01*
X52070000Y-50981428D01*
X52190952Y-51102380D01*
X52311904Y-51162857D01*
X52553809Y-51223333D01*
X52735238Y-51223333D01*
X52977142Y-51162857D01*
X53098095Y-51102380D01*
X53219047Y-50981428D01*
X53279523Y-50800000D01*
X53279523Y-50497619D01*
X52130476Y-51707142D02*
X52070000Y-51767619D01*
X52009523Y-51888571D01*
X52009523Y-52190952D01*
X52070000Y-52311904D01*
X52130476Y-52372380D01*
X52251428Y-52432857D01*
X52372380Y-52432857D01*
X52553809Y-52372380D01*
X53279523Y-51646666D01*
X53279523Y-52432857D01*
%TO.C,C10*%
X20773571Y-60778571D02*
X20834047Y-60718095D01*
X20894523Y-60536666D01*
X20894523Y-60415714D01*
X20834047Y-60234285D01*
X20713095Y-60113333D01*
X20592142Y-60052857D01*
X20350238Y-59992380D01*
X20168809Y-59992380D01*
X19926904Y-60052857D01*
X19805952Y-60113333D01*
X19685000Y-60234285D01*
X19624523Y-60415714D01*
X19624523Y-60536666D01*
X19685000Y-60718095D01*
X19745476Y-60778571D01*
X20894523Y-61988095D02*
X20894523Y-61262380D01*
X20894523Y-61625238D02*
X19624523Y-61625238D01*
X19805952Y-61504285D01*
X19926904Y-61383333D01*
X19987380Y-61262380D01*
X19624523Y-62774285D02*
X19624523Y-62895238D01*
X19685000Y-63016190D01*
X19745476Y-63076666D01*
X19866428Y-63137142D01*
X20108333Y-63197619D01*
X20410714Y-63197619D01*
X20652619Y-63137142D01*
X20773571Y-63076666D01*
X20834047Y-63016190D01*
X20894523Y-62895238D01*
X20894523Y-62774285D01*
X20834047Y-62653333D01*
X20773571Y-62592857D01*
X20652619Y-62532380D01*
X20410714Y-62471904D01*
X20108333Y-62471904D01*
X19866428Y-62532380D01*
X19745476Y-62592857D01*
X19685000Y-62653333D01*
X19624523Y-62774285D01*
%TO.C,C9*%
X35136666Y-41093571D02*
X35197142Y-41154047D01*
X35378571Y-41214523D01*
X35499523Y-41214523D01*
X35680952Y-41154047D01*
X35801904Y-41033095D01*
X35862380Y-40912142D01*
X35922857Y-40670238D01*
X35922857Y-40488809D01*
X35862380Y-40246904D01*
X35801904Y-40125952D01*
X35680952Y-40005000D01*
X35499523Y-39944523D01*
X35378571Y-39944523D01*
X35197142Y-40005000D01*
X35136666Y-40065476D01*
X34531904Y-41214523D02*
X34290000Y-41214523D01*
X34169047Y-41154047D01*
X34108571Y-41093571D01*
X33987619Y-40912142D01*
X33927142Y-40670238D01*
X33927142Y-40186428D01*
X33987619Y-40065476D01*
X34048095Y-40005000D01*
X34169047Y-39944523D01*
X34410952Y-39944523D01*
X34531904Y-40005000D01*
X34592380Y-40065476D01*
X34652857Y-40186428D01*
X34652857Y-40488809D01*
X34592380Y-40609761D01*
X34531904Y-40670238D01*
X34410952Y-40730714D01*
X34169047Y-40730714D01*
X34048095Y-40670238D01*
X33987619Y-40609761D01*
X33927142Y-40488809D01*
%TO.C,C8*%
X39823571Y-51858333D02*
X39884047Y-51797857D01*
X39944523Y-51616428D01*
X39944523Y-51495476D01*
X39884047Y-51314047D01*
X39763095Y-51193095D01*
X39642142Y-51132619D01*
X39400238Y-51072142D01*
X39218809Y-51072142D01*
X38976904Y-51132619D01*
X38855952Y-51193095D01*
X38735000Y-51314047D01*
X38674523Y-51495476D01*
X38674523Y-51616428D01*
X38735000Y-51797857D01*
X38795476Y-51858333D01*
X39218809Y-52584047D02*
X39158333Y-52463095D01*
X39097857Y-52402619D01*
X38976904Y-52342142D01*
X38916428Y-52342142D01*
X38795476Y-52402619D01*
X38735000Y-52463095D01*
X38674523Y-52584047D01*
X38674523Y-52825952D01*
X38735000Y-52946904D01*
X38795476Y-53007380D01*
X38916428Y-53067857D01*
X38976904Y-53067857D01*
X39097857Y-53007380D01*
X39158333Y-52946904D01*
X39218809Y-52825952D01*
X39218809Y-52584047D01*
X39279285Y-52463095D01*
X39339761Y-52402619D01*
X39460714Y-52342142D01*
X39702619Y-52342142D01*
X39823571Y-52402619D01*
X39884047Y-52463095D01*
X39944523Y-52584047D01*
X39944523Y-52825952D01*
X39884047Y-52946904D01*
X39823571Y-53007380D01*
X39702619Y-53067857D01*
X39460714Y-53067857D01*
X39339761Y-53007380D01*
X39279285Y-52946904D01*
X39218809Y-52825952D01*
%TO.C,C7*%
X41093571Y-51858333D02*
X41154047Y-51797857D01*
X41214523Y-51616428D01*
X41214523Y-51495476D01*
X41154047Y-51314047D01*
X41033095Y-51193095D01*
X40912142Y-51132619D01*
X40670238Y-51072142D01*
X40488809Y-51072142D01*
X40246904Y-51132619D01*
X40125952Y-51193095D01*
X40005000Y-51314047D01*
X39944523Y-51495476D01*
X39944523Y-51616428D01*
X40005000Y-51797857D01*
X40065476Y-51858333D01*
X39944523Y-52281666D02*
X39944523Y-53128333D01*
X41214523Y-52584047D01*
%TO.C,C6*%
X52623571Y-44873333D02*
X52684047Y-44812857D01*
X52744523Y-44631428D01*
X52744523Y-44510476D01*
X52684047Y-44329047D01*
X52563095Y-44208095D01*
X52442142Y-44147619D01*
X52200238Y-44087142D01*
X52018809Y-44087142D01*
X51776904Y-44147619D01*
X51655952Y-44208095D01*
X51535000Y-44329047D01*
X51474523Y-44510476D01*
X51474523Y-44631428D01*
X51535000Y-44812857D01*
X51595476Y-44873333D01*
X51474523Y-45961904D02*
X51474523Y-45720000D01*
X51535000Y-45599047D01*
X51595476Y-45538571D01*
X51776904Y-45417619D01*
X52018809Y-45357142D01*
X52502619Y-45357142D01*
X52623571Y-45417619D01*
X52684047Y-45478095D01*
X52744523Y-45599047D01*
X52744523Y-45840952D01*
X52684047Y-45961904D01*
X52623571Y-46022380D01*
X52502619Y-46082857D01*
X52200238Y-46082857D01*
X52079285Y-46022380D01*
X52018809Y-45961904D01*
X51958333Y-45840952D01*
X51958333Y-45599047D01*
X52018809Y-45478095D01*
X52079285Y-45417619D01*
X52200238Y-45357142D01*
%TO.C,C5*%
X49348571Y-47848333D02*
X49409047Y-47787857D01*
X49469523Y-47606428D01*
X49469523Y-47485476D01*
X49409047Y-47304047D01*
X49288095Y-47183095D01*
X49167142Y-47122619D01*
X48925238Y-47062142D01*
X48743809Y-47062142D01*
X48501904Y-47122619D01*
X48380952Y-47183095D01*
X48260000Y-47304047D01*
X48199523Y-47485476D01*
X48199523Y-47606428D01*
X48260000Y-47787857D01*
X48320476Y-47848333D01*
X48199523Y-48997380D02*
X48199523Y-48392619D01*
X48804285Y-48332142D01*
X48743809Y-48392619D01*
X48683333Y-48513571D01*
X48683333Y-48815952D01*
X48743809Y-48936904D01*
X48804285Y-48997380D01*
X48925238Y-49057857D01*
X49227619Y-49057857D01*
X49348571Y-48997380D01*
X49409047Y-48936904D01*
X49469523Y-48815952D01*
X49469523Y-48513571D01*
X49409047Y-48392619D01*
X49348571Y-48332142D01*
%TO.C,C4*%
X52281666Y-57603571D02*
X52342142Y-57664047D01*
X52523571Y-57724523D01*
X52644523Y-57724523D01*
X52825952Y-57664047D01*
X52946904Y-57543095D01*
X53007380Y-57422142D01*
X53067857Y-57180238D01*
X53067857Y-56998809D01*
X53007380Y-56756904D01*
X52946904Y-56635952D01*
X52825952Y-56515000D01*
X52644523Y-56454523D01*
X52523571Y-56454523D01*
X52342142Y-56515000D01*
X52281666Y-56575476D01*
X51193095Y-56877857D02*
X51193095Y-57724523D01*
X51495476Y-56394047D02*
X51797857Y-57301190D01*
X51011666Y-57301190D01*
%TO.C,C2*%
X44903571Y-60948333D02*
X44964047Y-60887857D01*
X45024523Y-60706428D01*
X45024523Y-60585476D01*
X44964047Y-60404047D01*
X44843095Y-60283095D01*
X44722142Y-60222619D01*
X44480238Y-60162142D01*
X44298809Y-60162142D01*
X44056904Y-60222619D01*
X43935952Y-60283095D01*
X43815000Y-60404047D01*
X43754523Y-60585476D01*
X43754523Y-60706428D01*
X43815000Y-60887857D01*
X43875476Y-60948333D01*
X43875476Y-61432142D02*
X43815000Y-61492619D01*
X43754523Y-61613571D01*
X43754523Y-61915952D01*
X43815000Y-62036904D01*
X43875476Y-62097380D01*
X43996428Y-62157857D01*
X44117380Y-62157857D01*
X44298809Y-62097380D01*
X45024523Y-61371666D01*
X45024523Y-62157857D01*
%TO.C,C1*%
X55456666Y-46808571D02*
X55517142Y-46869047D01*
X55698571Y-46929523D01*
X55819523Y-46929523D01*
X56000952Y-46869047D01*
X56121904Y-46748095D01*
X56182380Y-46627142D01*
X56242857Y-46385238D01*
X56242857Y-46203809D01*
X56182380Y-45961904D01*
X56121904Y-45840952D01*
X56000952Y-45720000D01*
X55819523Y-45659523D01*
X55698571Y-45659523D01*
X55517142Y-45720000D01*
X55456666Y-45780476D01*
X54247142Y-46929523D02*
X54972857Y-46929523D01*
X54610000Y-46929523D02*
X54610000Y-45659523D01*
X54730952Y-45840952D01*
X54851904Y-45961904D01*
X54972857Y-46022380D01*
%TD*%
M02*
