G04 #@! TF.GenerationSoftware,KiCad,Pcbnew,(5.1.9)-1*
G04 #@! TF.CreationDate,2021-07-07T12:50:41-04:00*
G04 #@! TF.ProjectId,ESC_5A,4553435f-3541-42e6-9b69-6361645f7063,rev?*
G04 #@! TF.SameCoordinates,Original*
G04 #@! TF.FileFunction,Copper,L2,Inr*
G04 #@! TF.FilePolarity,Positive*
%FSLAX46Y46*%
G04 Gerber Fmt 4.6, Leading zero omitted, Abs format (unit mm)*
G04 Created by KiCad (PCBNEW (5.1.9)-1) date 2021-07-07 12:50:41*
%MOMM*%
%LPD*%
G01*
G04 APERTURE LIST*
G04 #@! TA.AperFunction,ComponentPad*
%ADD10O,1.700000X1.700000*%
G04 #@! TD*
G04 #@! TA.AperFunction,ComponentPad*
%ADD11R,1.700000X1.700000*%
G04 #@! TD*
G04 #@! TA.AperFunction,ComponentPad*
%ADD12C,3.800000*%
G04 #@! TD*
G04 #@! TA.AperFunction,ComponentPad*
%ADD13R,3.800000X3.800000*%
G04 #@! TD*
G04 #@! TA.AperFunction,ComponentPad*
%ADD14O,1.050000X2.100000*%
G04 #@! TD*
G04 #@! TA.AperFunction,ComponentPad*
%ADD15O,1.000000X2.000000*%
G04 #@! TD*
G04 #@! TA.AperFunction,ViaPad*
%ADD16C,0.400000*%
G04 #@! TD*
G04 #@! TA.AperFunction,ViaPad*
%ADD17C,0.800000*%
G04 #@! TD*
G04 #@! TA.AperFunction,ViaPad*
%ADD18C,0.200000*%
G04 #@! TD*
G04 #@! TA.AperFunction,Conductor*
%ADD19C,0.250000*%
G04 #@! TD*
G04 #@! TA.AperFunction,Conductor*
%ADD20C,0.200000*%
G04 #@! TD*
G04 APERTURE END LIST*
D10*
G04 #@! TO.N,GND*
G04 #@! TO.C,J6*
X173355000Y-161925000D03*
G04 #@! TO.N,+5V*
X173355000Y-159385000D03*
D11*
G04 #@! TO.N,PPM_2*
X173355000Y-156845000D03*
G04 #@! TD*
D12*
G04 #@! TO.N,GND*
G04 #@! TO.C,J5*
X130175000Y-161310000D03*
D13*
G04 #@! TO.N,PWR_IN*
X130175000Y-156310000D03*
G04 #@! TD*
D12*
G04 #@! TO.N,MotorB_Neg*
G04 #@! TO.C,J4*
X154760000Y-161290000D03*
D13*
G04 #@! TO.N,ADC_2*
X149760000Y-161290000D03*
G04 #@! TD*
D12*
G04 #@! TO.N,ADC_3*
G04 #@! TO.C,J3*
X143430000Y-161290000D03*
D13*
G04 #@! TO.N,ADC_1*
X138430000Y-161290000D03*
G04 #@! TD*
D10*
G04 #@! TO.N,GND*
G04 #@! TO.C,J2*
X169545000Y-161925000D03*
G04 #@! TO.N,+5V*
X169545000Y-159385000D03*
D11*
G04 #@! TO.N,PPM_1*
X169545000Y-156845000D03*
G04 #@! TD*
D14*
G04 #@! TO.N,GND*
G04 #@! TO.C,J1*
X137035000Y-144515000D03*
X128395000Y-144515000D03*
D15*
X137035000Y-140335000D03*
X128395000Y-140335000D03*
G04 #@! TD*
D16*
G04 #@! TO.N,NRST*
X168910000Y-146685000D03*
D17*
G04 #@! TO.N,GND*
X164465000Y-140970000D03*
X163195000Y-142240000D03*
X155575000Y-146685000D03*
X144145000Y-144145000D03*
X143310000Y-143945000D03*
D16*
X164465000Y-160655000D03*
D17*
X143470399Y-144819601D03*
D16*
X153073927Y-140901464D03*
D17*
X135192500Y-142177500D03*
X128905000Y-149225000D03*
X172825000Y-143405000D03*
D16*
G04 #@! TO.N,+3V3*
X158815000Y-159320000D03*
D17*
X161290000Y-160655000D03*
D16*
G04 #@! TO.N,+5V*
X161720000Y-155780000D03*
X161720000Y-155002000D03*
D18*
X165735000Y-146050000D03*
X130810000Y-146685000D03*
G04 #@! TO.N,TBLKAB*
X139700000Y-141605000D03*
X153030066Y-142879934D03*
D16*
G04 #@! TO.N,RGB_PWR*
X131505011Y-138369989D03*
G04 #@! TO.N,RGB_DATA*
X158774810Y-139040190D03*
G04 #@! TO.N,Net-(D2-Pad1)*
X158115000Y-155575000D03*
X158115000Y-156210000D03*
D18*
G04 #@! TO.N,CS_EEPROM*
X153670000Y-140970000D03*
X154305000Y-142240000D03*
G04 #@! TO.N,HBMODE*
X140970000Y-142240000D03*
X157216232Y-144408768D03*
G04 #@! TO.N,D+*
X157426268Y-146103732D03*
X133490000Y-144145000D03*
G04 #@! TO.N,D-*
X158115000Y-146050000D03*
X132715000Y-143510000D03*
D16*
G04 #@! TO.N,PWMB*
X159885191Y-139565191D03*
D18*
G04 #@! TO.N,PWMA*
X151796529Y-140938471D03*
X158115000Y-141605000D03*
G04 #@! TO.N,INB2*
X143513630Y-139696370D03*
G04 #@! TO.N,INB1*
X152245594Y-142130000D03*
X144845958Y-139594095D03*
G04 #@! TO.N,INA2*
X145580438Y-139592144D03*
G04 #@! TO.N,INA1*
X156845000Y-140970000D03*
X146190000Y-139726463D03*
D17*
G04 #@! TO.N,ADC_VREFB*
X147099154Y-149639154D03*
D18*
G04 #@! TO.N,ADC_VREFA*
X148590000Y-144145000D03*
D17*
X139559345Y-148603001D03*
G04 #@! TO.N,ADC_MUX_GND*
X144145000Y-148590000D03*
D18*
X148590000Y-145415000D03*
D16*
G04 #@! TO.N,LO2*
X141882398Y-140692602D03*
D18*
X140916268Y-147901268D03*
X148790001Y-146050000D03*
D16*
G04 #@! TO.N,LO1*
X142240000Y-139700000D03*
D18*
X140281268Y-148536268D03*
X148790001Y-147320000D03*
D17*
G04 #@! TO.N,Net-(J1-PadA5)*
X130810000Y-143510000D03*
D16*
G04 #@! TO.N,Net-(J1-PadB5)*
X133350000Y-142614990D03*
D17*
G04 #@! TO.N,MotorB_Neg*
X148590000Y-148522397D03*
D18*
G04 #@! TO.N,PPM_2*
X153035000Y-149860000D03*
G04 #@! TO.N,PPM_1*
X155782534Y-145912386D03*
D17*
G04 #@! TO.N,PWR*
X135890000Y-153035000D03*
G04 #@! TD*
D19*
G04 #@! TO.N,+5V*
X158892002Y-146050000D02*
X165735000Y-146050000D01*
X158313269Y-146628733D02*
X158892002Y-146050000D01*
X156880144Y-146628733D02*
X158313269Y-146628733D01*
X156750010Y-146498599D02*
X156880144Y-146628733D01*
X156750010Y-146102860D02*
X156750010Y-146498599D01*
X156034535Y-145387385D02*
X156750010Y-146102860D01*
X155530533Y-145387385D02*
X156034535Y-145387385D01*
X154849999Y-146067919D02*
X155530533Y-145387385D01*
X154849999Y-148131999D02*
X154849999Y-146067919D01*
X161720000Y-155002000D02*
X154849999Y-148131999D01*
X139127000Y-155002000D02*
X130810000Y-146685000D01*
X147115998Y-155002000D02*
X139127000Y-155002000D01*
X152782999Y-149334999D02*
X147115998Y-155002000D01*
X156052999Y-149334999D02*
X152782999Y-149334999D01*
X161720000Y-155002000D02*
X156052999Y-149334999D01*
G04 #@! TO.N,TBLKAB*
X151769934Y-142879934D02*
X153030066Y-142879934D01*
X150495000Y-141605000D02*
X151769934Y-142879934D01*
X139700000Y-141605000D02*
X150495000Y-141605000D01*
G04 #@! TO.N,CS_EEPROM*
X153670000Y-141605000D02*
X154305000Y-142240000D01*
X153670000Y-140970000D02*
X153670000Y-141605000D01*
G04 #@! TO.N,HBMODE*
X155575000Y-143510000D02*
X156210000Y-143510000D01*
X150403437Y-142240000D02*
X151673437Y-143510000D01*
X149858590Y-142240000D02*
X150403437Y-142240000D01*
X140970000Y-142240000D02*
X149858590Y-142240000D01*
X156317464Y-143510000D02*
X153670000Y-143510000D01*
X157216232Y-144408768D02*
X156317464Y-143510000D01*
X153670000Y-143510000D02*
X155575000Y-143510000D01*
X151673437Y-143510000D02*
X153670000Y-143510000D01*
D20*
G04 #@! TO.N,D+*
X157426268Y-146103732D02*
X157426268Y-145997665D01*
X157426268Y-145997665D02*
X155813604Y-144385001D01*
X155813604Y-144385001D02*
X151311001Y-144385001D01*
X151311001Y-144385001D02*
X150170999Y-143244999D01*
X150170999Y-143244999D02*
X137456739Y-143244999D01*
X137456739Y-143244999D02*
X137376730Y-143164990D01*
X137376730Y-143164990D02*
X136693270Y-143164990D01*
X136693270Y-143164990D02*
X136468261Y-143389999D01*
X136468261Y-143389999D02*
X135304999Y-143389999D01*
X135304999Y-143389999D02*
X134979999Y-143714999D01*
X134979999Y-143714999D02*
X134979999Y-143735000D01*
D19*
X134549998Y-144145000D02*
X133490000Y-144145000D01*
X134979999Y-143714999D02*
X134549998Y-144145000D01*
D20*
G04 #@! TO.N,D-*
X135118607Y-142940008D02*
X134773615Y-143285000D01*
X136091393Y-142940008D02*
X135118607Y-142940008D01*
X136316402Y-142714999D02*
X136091393Y-142940008D01*
X151497393Y-143935010D02*
X150357391Y-142795008D01*
X150357391Y-142795008D02*
X137643131Y-142795008D01*
X137643131Y-142795008D02*
X137563122Y-142714999D01*
X137563122Y-142714999D02*
X136316402Y-142714999D01*
X158115000Y-146050000D02*
X156000010Y-143935010D01*
X156000010Y-143935010D02*
X151497393Y-143935010D01*
X134773615Y-143285000D02*
X133985000Y-143285000D01*
D19*
X133608946Y-143510000D02*
X132715000Y-143510000D01*
X133833946Y-143285000D02*
X133608946Y-143510000D01*
X133985000Y-143285000D02*
X133833946Y-143285000D01*
G04 #@! TO.N,PWMA*
X156845000Y-142875000D02*
X158115000Y-141605000D01*
X151796529Y-140938471D02*
X153733058Y-142875000D01*
X155575000Y-142875000D02*
X156845000Y-142875000D01*
X153767596Y-142875000D02*
X155575000Y-142875000D01*
G04 #@! TO.N,INB1*
X152245594Y-142130000D02*
X151085594Y-140970000D01*
X151085594Y-140970000D02*
X145415000Y-140970000D01*
X145415000Y-140970000D02*
X144780000Y-140335000D01*
X144780000Y-139660053D02*
X144845958Y-139594095D01*
X144780000Y-140335000D02*
X144780000Y-139660053D01*
G04 #@! TO.N,INA1*
X156845000Y-140970000D02*
X156210000Y-140335000D01*
X156210000Y-140335000D02*
X147176227Y-140335000D01*
X146798537Y-140335000D02*
X146190000Y-139726463D01*
X147176227Y-140335000D02*
X146798537Y-140335000D01*
G04 #@! TO.N,ADC_VREFA*
X146617397Y-144145000D02*
X148590000Y-144145000D01*
X142240000Y-148522397D02*
X146617397Y-144145000D01*
G04 #@! TO.N,ADC_MUX_GND*
X144145000Y-148590000D02*
X144145000Y-147955000D01*
X144145000Y-147955000D02*
X146685000Y-145415000D01*
X146685000Y-145415000D02*
X148590000Y-145415000D01*
G04 #@! TO.N,LO2*
X147516998Y-146050000D02*
X148790001Y-146050000D01*
X145324999Y-148483003D02*
X145324999Y-148241999D01*
X144493001Y-149315001D02*
X145324999Y-148483003D01*
X141959602Y-149315001D02*
X144493001Y-149315001D01*
X145324999Y-148241999D02*
X147516998Y-146050000D01*
X140916268Y-148271667D02*
X141959602Y-149315001D01*
X140916268Y-147901268D02*
X140916268Y-148271667D01*
G04 #@! TO.N,LO1*
X148393002Y-147320000D02*
X148790001Y-147320000D01*
X145947991Y-149765011D02*
X148393002Y-147320000D01*
X141510011Y-149765011D02*
X145947991Y-149765011D01*
X140281268Y-148536268D02*
X141510011Y-149765011D01*
G04 #@! TO.N,PPM_2*
X153177002Y-149860000D02*
X153035000Y-149860000D01*
X161337003Y-158020001D02*
X153177002Y-149860000D01*
X172179999Y-158020001D02*
X161337003Y-158020001D01*
X173355000Y-156845000D02*
X172179999Y-158020001D01*
G04 #@! TO.N,PPM_1*
X169545000Y-156845000D02*
X166460001Y-156845000D01*
X166460001Y-156845000D02*
X156300001Y-146685000D01*
X155875388Y-145912386D02*
X155782534Y-145912386D01*
X156300001Y-146336999D02*
X155875388Y-145912386D01*
X156300001Y-146685000D02*
X156300001Y-146336999D01*
G04 #@! TD*
M02*
