M48
; DRILL file {KiCad (5.1.9)-1} date 07/08/21 11:24:10
; FORMAT={-:-/ absolute / inch / decimal}
; #@! TF.CreationDate,2021-07-08T11:24:10-04:00
; #@! TF.GenerationSoftware,Kicad,Pcbnew,(5.1.9)-1
; #@! TF.FileFunction,Plated,1,4,PTH
FMAT,2
INCH
T1C0.0118
T2C0.0157
T3C0.0236
T4C0.0394
T5C0.1063
%
G90
G05
T1
X5.1774Y-5.4476
X5.25Y-5.6148
X5.5859Y-5.5391
X5.6Y-5.5
X6.0265Y-5.5473
X6.225Y-6.125
X6.225Y-6.15
X6.251Y-5.474
X6.2526Y-6.2724
X6.2947Y-5.4947
X6.3669Y-6.1024
X6.3669Y-6.1331
X6.475Y-6.325
X6.65Y-5.775
T2
X5.075Y-5.875
X5.15Y-5.65
X5.3225Y-5.5975
X5.35Y-6.025
X5.4945Y-5.8505
X5.6421Y-5.6671
X5.6484Y-5.7016
X5.675Y-5.675
X5.675Y-5.85
X5.7913Y-5.8913
X5.85Y-5.8473
X6.125Y-5.775
X6.35Y-6.325
X6.425Y-5.6
X6.475Y-5.55
T4
X6.675Y-6.175
X6.675Y-6.275
X6.675Y-6.375
X6.825Y-6.175
X6.825Y-6.275
X6.825Y-6.375
T5
X5.125Y-6.1539
X5.125Y-6.3508
X5.45Y-6.35
X5.6469Y-6.35
X5.8961Y-6.35
X6.0929Y-6.35
T3
G00X5.0549Y-5.5093
M15
G01X5.0549Y-5.5407
M16
G05
G00X5.0549Y-5.6679
M15
G01X5.0549Y-5.7112
M16
G05
G00X5.3951Y-5.5093
M15
G01X5.3951Y-5.5407
M16
G05
G00X5.3951Y-5.6679
M15
G01X5.3951Y-5.7112
M16
G05
T0
M30
