%TF.GenerationSoftware,KiCad,Pcbnew,(5.1.9)-1*%
%TF.CreationDate,2021-07-06T13:24:45-04:00*%
%TF.ProjectId,ESC_5A,4553435f-3541-42e6-9b69-6361645f7063,rev?*%
%TF.SameCoordinates,Original*%
%TF.FileFunction,Legend,Top*%
%TF.FilePolarity,Positive*%
%FSLAX46Y46*%
G04 Gerber Fmt 4.6, Leading zero omitted, Abs format (unit mm)*
G04 Created by KiCad (PCBNEW (5.1.9)-1) date 2021-07-06 13:24:45*
%MOMM*%
%LPD*%
G01*
G04 APERTURE LIST*
%ADD10C,0.200000*%
%ADD11C,0.120000*%
%ADD12C,0.100000*%
%ADD13C,0.254000*%
%ADD14C,0.150000*%
G04 APERTURE END LIST*
D10*
%TO.C,Z1*%
X22415000Y-54080000D02*
X22415000Y-58650000D01*
X19965000Y-54850000D02*
X19965000Y-58650000D01*
D11*
%TO.C,J6*%
X58360000Y-64195000D02*
X61020000Y-64195000D01*
X58360000Y-59055000D02*
X58360000Y-64195000D01*
X61020000Y-59055000D02*
X61020000Y-64195000D01*
X58360000Y-59055000D02*
X61020000Y-59055000D01*
X58360000Y-57785000D02*
X58360000Y-56455000D01*
X58360000Y-56455000D02*
X59690000Y-56455000D01*
D12*
%TO.C,U1*%
G36*
X32809500Y-41026199D02*
G01*
X32809500Y-40772199D01*
X33190500Y-40772199D01*
X33190500Y-41026199D01*
X32809500Y-41026199D01*
G37*
X32809500Y-41026199D02*
X32809500Y-40772199D01*
X33190500Y-40772199D01*
X33190500Y-41026199D01*
X32809500Y-41026199D01*
G36*
X36062801Y-45144499D02*
G01*
X36062801Y-45525500D01*
X35808801Y-45525500D01*
X35808801Y-45144499D01*
X36062801Y-45144499D01*
G37*
X36062801Y-45144499D02*
X36062801Y-45525500D01*
X35808801Y-45525500D01*
X35808801Y-45144499D01*
X36062801Y-45144499D01*
G36*
X32309501Y-49143801D02*
G01*
X32309501Y-49397801D01*
X32690501Y-49397801D01*
X32690501Y-49143801D01*
X32309501Y-49143801D01*
G37*
X32309501Y-49143801D02*
X32309501Y-49397801D01*
X32690501Y-49397801D01*
X32690501Y-49143801D01*
X32309501Y-49143801D01*
G36*
X27437199Y-46644499D02*
G01*
X27437199Y-47025499D01*
X27691199Y-47025499D01*
X27691199Y-46644499D01*
X27437199Y-46644499D01*
G37*
X27437199Y-46644499D02*
X27437199Y-47025499D01*
X27691199Y-47025499D01*
X27691199Y-46644499D01*
X27437199Y-46644499D01*
D11*
X28567660Y-41457999D02*
X28122999Y-41457999D01*
X35377001Y-41902660D02*
X35377001Y-41457999D01*
X34932340Y-48712001D02*
X35377001Y-48712001D01*
X28122999Y-48267340D02*
X28122999Y-48712001D01*
X28122999Y-41457999D02*
X28122999Y-41902660D01*
X35377001Y-41457999D02*
X34932340Y-41457999D01*
X35377001Y-48712001D02*
X35377001Y-48267340D01*
X28122999Y-48712001D02*
X28567660Y-48712001D01*
D10*
%TO.C,S1*%
X59250000Y-42795000D02*
X59250000Y-42795000D01*
X59450000Y-42795000D02*
X59450000Y-42795000D01*
D12*
X54150000Y-45895000D02*
X60150000Y-45895000D01*
X54150000Y-51895000D02*
X54150000Y-45895000D01*
X60150000Y-51895000D02*
X54150000Y-51895000D01*
X60150000Y-45895000D02*
X60150000Y-51895000D01*
D10*
X59450000Y-42795000D02*
G75*
G03*
X59250000Y-42795000I-100000J0D01*
G01*
X59250000Y-42795000D02*
G75*
G03*
X59450000Y-42795000I100000J0D01*
G01*
D11*
%TO.C,R12*%
X26516359Y-42090000D02*
X26823641Y-42090000D01*
X26516359Y-41330000D02*
X26823641Y-41330000D01*
%TO.C,R11*%
X26516359Y-41020000D02*
X26823641Y-41020000D01*
X26516359Y-40260000D02*
X26823641Y-40260000D01*
%TO.C,R10*%
X36775000Y-45238641D02*
X36775000Y-44931359D01*
X36015000Y-45238641D02*
X36015000Y-44931359D01*
%TO.C,R8*%
X37696359Y-45030000D02*
X38003641Y-45030000D01*
X37696359Y-44270000D02*
X38003641Y-44270000D01*
%TO.C,R5*%
X36676359Y-43310000D02*
X36983641Y-43310000D01*
X36676359Y-42550000D02*
X36983641Y-42550000D01*
%TO.C,R3*%
X20473641Y-44705000D02*
X20166359Y-44705000D01*
X20473641Y-45465000D02*
X20166359Y-45465000D01*
%TO.C,R1*%
X17626359Y-45465000D02*
X17933641Y-45465000D01*
X17626359Y-44705000D02*
X17933641Y-44705000D01*
%TO.C,J5*%
X17920000Y-54540000D02*
X15100000Y-54540000D01*
X15100000Y-54540000D02*
X13800000Y-56240000D01*
X17920000Y-54540000D02*
X19220000Y-56240000D01*
X13800000Y-56240000D02*
X13800000Y-64960000D01*
X19220000Y-64960000D02*
X13800000Y-64960000D01*
X19220000Y-56240000D02*
X19220000Y-64960000D01*
%TO.C,J4*%
X33385000Y-60820000D02*
X33385000Y-63640000D01*
X33385000Y-63640000D02*
X35085000Y-64940000D01*
X33385000Y-60820000D02*
X35085000Y-59520000D01*
X35085000Y-64940000D02*
X43805000Y-64940000D01*
X43805000Y-59520000D02*
X43805000Y-64940000D01*
X35085000Y-59520000D02*
X43805000Y-59520000D01*
%TO.C,J3*%
X22055000Y-60820000D02*
X22055000Y-63640000D01*
X22055000Y-63640000D02*
X23755000Y-64940000D01*
X22055000Y-60820000D02*
X23755000Y-59520000D01*
X23755000Y-64940000D02*
X32475000Y-64940000D01*
X32475000Y-59520000D02*
X32475000Y-64940000D01*
X23755000Y-59520000D02*
X32475000Y-59520000D01*
%TO.C,J2*%
X54550000Y-56455000D02*
X55880000Y-56455000D01*
X54550000Y-57785000D02*
X54550000Y-56455000D01*
X54550000Y-59055000D02*
X57210000Y-59055000D01*
X57210000Y-59055000D02*
X57210000Y-64195000D01*
X54550000Y-59055000D02*
X54550000Y-64195000D01*
X54550000Y-64195000D02*
X57210000Y-64195000D01*
D12*
%TO.C,IC3*%
X41275000Y-52442000D02*
X41275000Y-51442000D01*
X51435000Y-52442000D02*
X41275000Y-52442000D01*
X51435000Y-51442000D02*
X51435000Y-52442000D01*
D10*
X41755000Y-55942000D02*
X41755000Y-55942000D01*
X41755000Y-55743000D02*
X41755000Y-55743000D01*
X41755000Y-55743000D02*
G75*
G02*
X41755000Y-55942000I0J-99500D01*
G01*
X41755000Y-55942000D02*
G75*
G02*
X41755000Y-55743000I0J99500D01*
G01*
%TO.C,IC2*%
X44810000Y-59650000D02*
X46310000Y-59650000D01*
X46660000Y-64680000D02*
X46660000Y-59780000D01*
X49860000Y-64680000D02*
X46660000Y-64680000D01*
X49860000Y-59780000D02*
X49860000Y-64680000D01*
X46660000Y-59780000D02*
X49860000Y-59780000D01*
D11*
%TO.C,D1*%
X22700000Y-44360000D02*
X22700000Y-43210000D01*
X15400000Y-44360000D02*
X22700000Y-44360000D01*
X15400000Y-38860000D02*
X22700000Y-38860000D01*
%TO.C,C12*%
X36722164Y-42270000D02*
X36937836Y-42270000D01*
X36722164Y-41550000D02*
X36937836Y-41550000D01*
D10*
%TO.C,C11*%
X20065000Y-46665000D02*
X15115000Y-46665000D01*
X23115000Y-53265000D02*
X15115000Y-53265000D01*
%TO.C,C3*%
X24700000Y-46355000D02*
X26100000Y-46355000D01*
%TO.C,Z1*%
D13*
X20494523Y-57778095D02*
X20494523Y-56931428D01*
X21764523Y-57778095D01*
X21764523Y-56931428D01*
X21764523Y-55782380D02*
X21764523Y-56508095D01*
X21764523Y-56145238D02*
X20494523Y-56145238D01*
X20675952Y-56266190D01*
X20796904Y-56387142D01*
X20857380Y-56508095D01*
%TO.C,J6*%
D14*
X59356666Y-54907380D02*
X59356666Y-55621666D01*
X59309047Y-55764523D01*
X59213809Y-55859761D01*
X59070952Y-55907380D01*
X58975714Y-55907380D01*
X60261428Y-54907380D02*
X60070952Y-54907380D01*
X59975714Y-54955000D01*
X59928095Y-55002619D01*
X59832857Y-55145476D01*
X59785238Y-55335952D01*
X59785238Y-55716904D01*
X59832857Y-55812142D01*
X59880476Y-55859761D01*
X59975714Y-55907380D01*
X60166190Y-55907380D01*
X60261428Y-55859761D01*
X60309047Y-55812142D01*
X60356666Y-55716904D01*
X60356666Y-55478809D01*
X60309047Y-55383571D01*
X60261428Y-55335952D01*
X60166190Y-55288333D01*
X59975714Y-55288333D01*
X59880476Y-55335952D01*
X59832857Y-55383571D01*
X59785238Y-55478809D01*
%TO.C,U1*%
X30988095Y-44537380D02*
X30988095Y-45346904D01*
X31035714Y-45442142D01*
X31083333Y-45489761D01*
X31178571Y-45537380D01*
X31369047Y-45537380D01*
X31464285Y-45489761D01*
X31511904Y-45442142D01*
X31559523Y-45346904D01*
X31559523Y-44537380D01*
X32559523Y-45537380D02*
X31988095Y-45537380D01*
X32273809Y-45537380D02*
X32273809Y-44537380D01*
X32178571Y-44680238D01*
X32083333Y-44775476D01*
X31988095Y-44823095D01*
X25511904Y-44537380D02*
X26083333Y-44537380D01*
X25797619Y-45537380D02*
X25797619Y-44537380D01*
X26749999Y-45013571D02*
X26892857Y-45061190D01*
X26940476Y-45108809D01*
X26988095Y-45204047D01*
X26988095Y-45346904D01*
X26940476Y-45442142D01*
X26892857Y-45489761D01*
X26797619Y-45537380D01*
X26416666Y-45537380D01*
X26416666Y-44537380D01*
X26749999Y-44537380D01*
X26845238Y-44585000D01*
X26892857Y-44632619D01*
X26940476Y-44727857D01*
X26940476Y-44823095D01*
X26892857Y-44918333D01*
X26845238Y-44965952D01*
X26749999Y-45013571D01*
X26416666Y-45013571D01*
X27845238Y-44537380D02*
X27654761Y-44537380D01*
X27559523Y-44585000D01*
X27511904Y-44632619D01*
X27416666Y-44775476D01*
X27369047Y-44965952D01*
X27369047Y-45346904D01*
X27416666Y-45442142D01*
X27464285Y-45489761D01*
X27559523Y-45537380D01*
X27749999Y-45537380D01*
X27845238Y-45489761D01*
X27892857Y-45442142D01*
X27940476Y-45346904D01*
X27940476Y-45108809D01*
X27892857Y-45013571D01*
X27845238Y-44965952D01*
X27749999Y-44918333D01*
X27559523Y-44918333D01*
X27464285Y-44965952D01*
X27416666Y-45013571D01*
X27369047Y-45108809D01*
X28273809Y-44537380D02*
X28940476Y-44537380D01*
X28511904Y-45537380D01*
X29321428Y-45537380D02*
X29321428Y-44537380D01*
X29321428Y-45013571D02*
X29892857Y-45013571D01*
X29892857Y-45537380D02*
X29892857Y-44537380D01*
X30797619Y-44870714D02*
X30797619Y-45537380D01*
X30559523Y-44489761D02*
X30321428Y-45204047D01*
X30940476Y-45204047D01*
X31273809Y-44632619D02*
X31321428Y-44585000D01*
X31416666Y-44537380D01*
X31654761Y-44537380D01*
X31749999Y-44585000D01*
X31797619Y-44632619D01*
X31845238Y-44727857D01*
X31845238Y-44823095D01*
X31797619Y-44965952D01*
X31226190Y-45537380D01*
X31845238Y-45537380D01*
X32464285Y-44537380D02*
X32559523Y-44537380D01*
X32654761Y-44585000D01*
X32702380Y-44632619D01*
X32749999Y-44727857D01*
X32797619Y-44918333D01*
X32797619Y-45156428D01*
X32749999Y-45346904D01*
X32702380Y-45442142D01*
X32654761Y-45489761D01*
X32559523Y-45537380D01*
X32464285Y-45537380D01*
X32369047Y-45489761D01*
X32321428Y-45442142D01*
X32273809Y-45346904D01*
X32226190Y-45156428D01*
X32226190Y-44918333D01*
X32273809Y-44727857D01*
X32321428Y-44632619D01*
X32369047Y-44585000D01*
X32464285Y-44537380D01*
X33559523Y-45013571D02*
X33226190Y-45013571D01*
X33226190Y-45537380D02*
X33226190Y-44537380D01*
X33702380Y-44537380D01*
X33940476Y-44537380D02*
X34511904Y-44537380D01*
X34226190Y-45537380D02*
X34226190Y-44537380D01*
X35369047Y-44585000D02*
X35273809Y-44537380D01*
X35130952Y-44537380D01*
X34988095Y-44585000D01*
X34892857Y-44680238D01*
X34845238Y-44775476D01*
X34797619Y-44965952D01*
X34797619Y-45108809D01*
X34845238Y-45299285D01*
X34892857Y-45394523D01*
X34988095Y-45489761D01*
X35130952Y-45537380D01*
X35226190Y-45537380D01*
X35369047Y-45489761D01*
X35416666Y-45442142D01*
X35416666Y-45108809D01*
X35226190Y-45108809D01*
X35607142Y-45632619D02*
X36369047Y-45632619D01*
X36607142Y-45013571D02*
X36940476Y-45013571D01*
X37083333Y-45537380D02*
X36607142Y-45537380D01*
X36607142Y-44537380D01*
X37083333Y-44537380D01*
X37988095Y-45537380D02*
X37511904Y-45537380D01*
X37511904Y-44537380D01*
X27310200Y-41537380D02*
X27310200Y-41775476D01*
X27072104Y-41680238D02*
X27310200Y-41775476D01*
X27548295Y-41680238D01*
X27167342Y-41965952D02*
X27310200Y-41775476D01*
X27453057Y-41965952D01*
X27310200Y-41537380D02*
X27310200Y-41775476D01*
X27072104Y-41680238D02*
X27310200Y-41775476D01*
X27548295Y-41680238D01*
X27167342Y-41965952D02*
X27310200Y-41775476D01*
X27453057Y-41965952D01*
%TO.C,S1*%
D13*
X57664047Y-49562619D02*
X57724523Y-49381190D01*
X57724523Y-49078809D01*
X57664047Y-48957857D01*
X57603571Y-48897380D01*
X57482619Y-48836904D01*
X57361666Y-48836904D01*
X57240714Y-48897380D01*
X57180238Y-48957857D01*
X57119761Y-49078809D01*
X57059285Y-49320714D01*
X56998809Y-49441666D01*
X56938333Y-49502142D01*
X56817380Y-49562619D01*
X56696428Y-49562619D01*
X56575476Y-49502142D01*
X56515000Y-49441666D01*
X56454523Y-49320714D01*
X56454523Y-49018333D01*
X56515000Y-48836904D01*
X57724523Y-47627380D02*
X57724523Y-48353095D01*
X57724523Y-47990238D02*
X56454523Y-47990238D01*
X56635952Y-48111190D01*
X56756904Y-48232142D01*
X56817380Y-48353095D01*
%TO.C,R12*%
D14*
X26027142Y-40992380D02*
X25693809Y-40516190D01*
X25455714Y-40992380D02*
X25455714Y-39992380D01*
X25836666Y-39992380D01*
X25931904Y-40040000D01*
X25979523Y-40087619D01*
X26027142Y-40182857D01*
X26027142Y-40325714D01*
X25979523Y-40420952D01*
X25931904Y-40468571D01*
X25836666Y-40516190D01*
X25455714Y-40516190D01*
X26979523Y-40992380D02*
X26408095Y-40992380D01*
X26693809Y-40992380D02*
X26693809Y-39992380D01*
X26598571Y-40135238D01*
X26503333Y-40230476D01*
X26408095Y-40278095D01*
X27360476Y-40087619D02*
X27408095Y-40040000D01*
X27503333Y-39992380D01*
X27741428Y-39992380D01*
X27836666Y-40040000D01*
X27884285Y-40087619D01*
X27931904Y-40182857D01*
X27931904Y-40278095D01*
X27884285Y-40420952D01*
X27312857Y-40992380D01*
X27931904Y-40992380D01*
%TO.C,R11*%
X26027142Y-39922380D02*
X25693809Y-39446190D01*
X25455714Y-39922380D02*
X25455714Y-38922380D01*
X25836666Y-38922380D01*
X25931904Y-38970000D01*
X25979523Y-39017619D01*
X26027142Y-39112857D01*
X26027142Y-39255714D01*
X25979523Y-39350952D01*
X25931904Y-39398571D01*
X25836666Y-39446190D01*
X25455714Y-39446190D01*
X26979523Y-39922380D02*
X26408095Y-39922380D01*
X26693809Y-39922380D02*
X26693809Y-38922380D01*
X26598571Y-39065238D01*
X26503333Y-39160476D01*
X26408095Y-39208095D01*
X27931904Y-39922380D02*
X27360476Y-39922380D01*
X27646190Y-39922380D02*
X27646190Y-38922380D01*
X27550952Y-39065238D01*
X27455714Y-39160476D01*
X27360476Y-39208095D01*
%TO.C,R10*%
X35677380Y-45727857D02*
X35201190Y-46061190D01*
X35677380Y-46299285D02*
X34677380Y-46299285D01*
X34677380Y-45918333D01*
X34725000Y-45823095D01*
X34772619Y-45775476D01*
X34867857Y-45727857D01*
X35010714Y-45727857D01*
X35105952Y-45775476D01*
X35153571Y-45823095D01*
X35201190Y-45918333D01*
X35201190Y-46299285D01*
X35677380Y-44775476D02*
X35677380Y-45346904D01*
X35677380Y-45061190D02*
X34677380Y-45061190D01*
X34820238Y-45156428D01*
X34915476Y-45251666D01*
X34963095Y-45346904D01*
X34677380Y-44156428D02*
X34677380Y-44061190D01*
X34725000Y-43965952D01*
X34772619Y-43918333D01*
X34867857Y-43870714D01*
X35058333Y-43823095D01*
X35296428Y-43823095D01*
X35486904Y-43870714D01*
X35582142Y-43918333D01*
X35629761Y-43965952D01*
X35677380Y-44061190D01*
X35677380Y-44156428D01*
X35629761Y-44251666D01*
X35582142Y-44299285D01*
X35486904Y-44346904D01*
X35296428Y-44394523D01*
X35058333Y-44394523D01*
X34867857Y-44346904D01*
X34772619Y-44299285D01*
X34725000Y-44251666D01*
X34677380Y-44156428D01*
%TO.C,R8*%
X37683333Y-43932380D02*
X37350000Y-43456190D01*
X37111904Y-43932380D02*
X37111904Y-42932380D01*
X37492857Y-42932380D01*
X37588095Y-42980000D01*
X37635714Y-43027619D01*
X37683333Y-43122857D01*
X37683333Y-43265714D01*
X37635714Y-43360952D01*
X37588095Y-43408571D01*
X37492857Y-43456190D01*
X37111904Y-43456190D01*
X38254761Y-43360952D02*
X38159523Y-43313333D01*
X38111904Y-43265714D01*
X38064285Y-43170476D01*
X38064285Y-43122857D01*
X38111904Y-43027619D01*
X38159523Y-42980000D01*
X38254761Y-42932380D01*
X38445238Y-42932380D01*
X38540476Y-42980000D01*
X38588095Y-43027619D01*
X38635714Y-43122857D01*
X38635714Y-43170476D01*
X38588095Y-43265714D01*
X38540476Y-43313333D01*
X38445238Y-43360952D01*
X38254761Y-43360952D01*
X38159523Y-43408571D01*
X38111904Y-43456190D01*
X38064285Y-43551428D01*
X38064285Y-43741904D01*
X38111904Y-43837142D01*
X38159523Y-43884761D01*
X38254761Y-43932380D01*
X38445238Y-43932380D01*
X38540476Y-43884761D01*
X38588095Y-43837142D01*
X38635714Y-43741904D01*
X38635714Y-43551428D01*
X38588095Y-43456190D01*
X38540476Y-43408571D01*
X38445238Y-43360952D01*
%TO.C,R5*%
X36663333Y-42212380D02*
X36330000Y-41736190D01*
X36091904Y-42212380D02*
X36091904Y-41212380D01*
X36472857Y-41212380D01*
X36568095Y-41260000D01*
X36615714Y-41307619D01*
X36663333Y-41402857D01*
X36663333Y-41545714D01*
X36615714Y-41640952D01*
X36568095Y-41688571D01*
X36472857Y-41736190D01*
X36091904Y-41736190D01*
X37568095Y-41212380D02*
X37091904Y-41212380D01*
X37044285Y-41688571D01*
X37091904Y-41640952D01*
X37187142Y-41593333D01*
X37425238Y-41593333D01*
X37520476Y-41640952D01*
X37568095Y-41688571D01*
X37615714Y-41783809D01*
X37615714Y-42021904D01*
X37568095Y-42117142D01*
X37520476Y-42164761D01*
X37425238Y-42212380D01*
X37187142Y-42212380D01*
X37091904Y-42164761D01*
X37044285Y-42117142D01*
%TO.C,R3*%
X20153333Y-46707380D02*
X19820000Y-46231190D01*
X19581904Y-46707380D02*
X19581904Y-45707380D01*
X19962857Y-45707380D01*
X20058095Y-45755000D01*
X20105714Y-45802619D01*
X20153333Y-45897857D01*
X20153333Y-46040714D01*
X20105714Y-46135952D01*
X20058095Y-46183571D01*
X19962857Y-46231190D01*
X19581904Y-46231190D01*
X20486666Y-45707380D02*
X21105714Y-45707380D01*
X20772380Y-46088333D01*
X20915238Y-46088333D01*
X21010476Y-46135952D01*
X21058095Y-46183571D01*
X21105714Y-46278809D01*
X21105714Y-46516904D01*
X21058095Y-46612142D01*
X21010476Y-46659761D01*
X20915238Y-46707380D01*
X20629523Y-46707380D01*
X20534285Y-46659761D01*
X20486666Y-46612142D01*
%TO.C,R1*%
X17613333Y-44367380D02*
X17280000Y-43891190D01*
X17041904Y-44367380D02*
X17041904Y-43367380D01*
X17422857Y-43367380D01*
X17518095Y-43415000D01*
X17565714Y-43462619D01*
X17613333Y-43557857D01*
X17613333Y-43700714D01*
X17565714Y-43795952D01*
X17518095Y-43843571D01*
X17422857Y-43891190D01*
X17041904Y-43891190D01*
X18565714Y-44367380D02*
X17994285Y-44367380D01*
X18280000Y-44367380D02*
X18280000Y-43367380D01*
X18184761Y-43510238D01*
X18089523Y-43605476D01*
X17994285Y-43653095D01*
%TO.C,J5*%
X19962380Y-60083333D02*
X20676666Y-60083333D01*
X20819523Y-60130952D01*
X20914761Y-60226190D01*
X20962380Y-60369047D01*
X20962380Y-60464285D01*
X19962380Y-59130952D02*
X19962380Y-59607142D01*
X20438571Y-59654761D01*
X20390952Y-59607142D01*
X20343333Y-59511904D01*
X20343333Y-59273809D01*
X20390952Y-59178571D01*
X20438571Y-59130952D01*
X20533809Y-59083333D01*
X20771904Y-59083333D01*
X20867142Y-59130952D01*
X20914761Y-59178571D01*
X20962380Y-59273809D01*
X20962380Y-59511904D01*
X20914761Y-59607142D01*
X20867142Y-59654761D01*
X16617142Y-53821428D02*
X16617142Y-52678571D01*
X16617142Y-66821428D02*
X16617142Y-65678571D01*
X17188571Y-66250000D02*
X16045714Y-66250000D01*
%TO.C,J4*%
X38261666Y-57682380D02*
X38261666Y-58396666D01*
X38214047Y-58539523D01*
X38118809Y-58634761D01*
X37975952Y-58682380D01*
X37880714Y-58682380D01*
X39166428Y-58015714D02*
X39166428Y-58682380D01*
X38928333Y-57634761D02*
X38690238Y-58349047D01*
X39309285Y-58349047D01*
X31523571Y-62337142D02*
X32666428Y-62337142D01*
X44523571Y-62337142D02*
X45666428Y-62337142D01*
X45095000Y-62908571D02*
X45095000Y-61765714D01*
%TO.C,J3*%
X26931666Y-57682380D02*
X26931666Y-58396666D01*
X26884047Y-58539523D01*
X26788809Y-58634761D01*
X26645952Y-58682380D01*
X26550714Y-58682380D01*
X27312619Y-57682380D02*
X27931666Y-57682380D01*
X27598333Y-58063333D01*
X27741190Y-58063333D01*
X27836428Y-58110952D01*
X27884047Y-58158571D01*
X27931666Y-58253809D01*
X27931666Y-58491904D01*
X27884047Y-58587142D01*
X27836428Y-58634761D01*
X27741190Y-58682380D01*
X27455476Y-58682380D01*
X27360238Y-58634761D01*
X27312619Y-58587142D01*
X20193571Y-62337142D02*
X21336428Y-62337142D01*
X33193571Y-62337142D02*
X34336428Y-62337142D01*
X33765000Y-62908571D02*
X33765000Y-61765714D01*
%TO.C,J2*%
X55546666Y-54907380D02*
X55546666Y-55621666D01*
X55499047Y-55764523D01*
X55403809Y-55859761D01*
X55260952Y-55907380D01*
X55165714Y-55907380D01*
X55975238Y-55002619D02*
X56022857Y-54955000D01*
X56118095Y-54907380D01*
X56356190Y-54907380D01*
X56451428Y-54955000D01*
X56499047Y-55002619D01*
X56546666Y-55097857D01*
X56546666Y-55193095D01*
X56499047Y-55335952D01*
X55927619Y-55907380D01*
X56546666Y-55907380D01*
%TO.C,IC3*%
D13*
X45115238Y-50104523D02*
X45115238Y-48834523D01*
X46445714Y-49983571D02*
X46385238Y-50044047D01*
X46203809Y-50104523D01*
X46082857Y-50104523D01*
X45901428Y-50044047D01*
X45780476Y-49923095D01*
X45720000Y-49802142D01*
X45659523Y-49560238D01*
X45659523Y-49378809D01*
X45720000Y-49136904D01*
X45780476Y-49015952D01*
X45901428Y-48895000D01*
X46082857Y-48834523D01*
X46203809Y-48834523D01*
X46385238Y-48895000D01*
X46445714Y-48955476D01*
X46869047Y-48834523D02*
X47655238Y-48834523D01*
X47231904Y-49318333D01*
X47413333Y-49318333D01*
X47534285Y-49378809D01*
X47594761Y-49439285D01*
X47655238Y-49560238D01*
X47655238Y-49862619D01*
X47594761Y-49983571D01*
X47534285Y-50044047D01*
X47413333Y-50104523D01*
X47050476Y-50104523D01*
X46929523Y-50044047D01*
X46869047Y-49983571D01*
%TO.C,IC2*%
X47020238Y-62804523D02*
X47020238Y-61534523D01*
X48350714Y-62683571D02*
X48290238Y-62744047D01*
X48108809Y-62804523D01*
X47987857Y-62804523D01*
X47806428Y-62744047D01*
X47685476Y-62623095D01*
X47625000Y-62502142D01*
X47564523Y-62260238D01*
X47564523Y-62078809D01*
X47625000Y-61836904D01*
X47685476Y-61715952D01*
X47806428Y-61595000D01*
X47987857Y-61534523D01*
X48108809Y-61534523D01*
X48290238Y-61595000D01*
X48350714Y-61655476D01*
X48834523Y-61655476D02*
X48895000Y-61595000D01*
X49015952Y-61534523D01*
X49318333Y-61534523D01*
X49439285Y-61595000D01*
X49499761Y-61655476D01*
X49560238Y-61776428D01*
X49560238Y-61897380D01*
X49499761Y-62078809D01*
X48774047Y-62804523D01*
X49560238Y-62804523D01*
%TO.C,H1*%
D14*
X38843095Y-53132380D02*
X38843095Y-52132380D01*
X38843095Y-52608571D02*
X39414523Y-52608571D01*
X39414523Y-53132380D02*
X39414523Y-52132380D01*
X40414523Y-53132380D02*
X39843095Y-53132380D01*
X40128809Y-53132380D02*
X40128809Y-52132380D01*
X40033571Y-52275238D01*
X39938333Y-52370476D01*
X39843095Y-52418095D01*
%TO.C,D1*%
X18311904Y-38562380D02*
X18311904Y-37562380D01*
X18550000Y-37562380D01*
X18692857Y-37610000D01*
X18788095Y-37705238D01*
X18835714Y-37800476D01*
X18883333Y-37990952D01*
X18883333Y-38133809D01*
X18835714Y-38324285D01*
X18788095Y-38419523D01*
X18692857Y-38514761D01*
X18550000Y-38562380D01*
X18311904Y-38562380D01*
X19835714Y-38562380D02*
X19264285Y-38562380D01*
X19550000Y-38562380D02*
X19550000Y-37562380D01*
X19454761Y-37705238D01*
X19359523Y-37800476D01*
X19264285Y-37848095D01*
X15185714Y-40462380D02*
X14614285Y-40462380D01*
X14900000Y-40462380D02*
X14900000Y-39462380D01*
X14804761Y-39605238D01*
X14709523Y-39700476D01*
X14614285Y-39748095D01*
%TO.C,C13*%
D13*
X37283571Y-44268571D02*
X37223095Y-44329047D01*
X37041666Y-44389523D01*
X36920714Y-44389523D01*
X36739285Y-44329047D01*
X36618333Y-44208095D01*
X36557857Y-44087142D01*
X36497380Y-43845238D01*
X36497380Y-43663809D01*
X36557857Y-43421904D01*
X36618333Y-43300952D01*
X36739285Y-43180000D01*
X36920714Y-43119523D01*
X37041666Y-43119523D01*
X37223095Y-43180000D01*
X37283571Y-43240476D01*
X38493095Y-44389523D02*
X37767380Y-44389523D01*
X38130238Y-44389523D02*
X38130238Y-43119523D01*
X38009285Y-43300952D01*
X37888333Y-43421904D01*
X37767380Y-43482380D01*
X38916428Y-43119523D02*
X39702619Y-43119523D01*
X39279285Y-43603333D01*
X39460714Y-43603333D01*
X39581666Y-43663809D01*
X39642142Y-43724285D01*
X39702619Y-43845238D01*
X39702619Y-44147619D01*
X39642142Y-44268571D01*
X39581666Y-44329047D01*
X39460714Y-44389523D01*
X39097857Y-44389523D01*
X38976904Y-44329047D01*
X38916428Y-44268571D01*
%TO.C,C12*%
D14*
X36187142Y-41107142D02*
X36139523Y-41154761D01*
X35996666Y-41202380D01*
X35901428Y-41202380D01*
X35758571Y-41154761D01*
X35663333Y-41059523D01*
X35615714Y-40964285D01*
X35568095Y-40773809D01*
X35568095Y-40630952D01*
X35615714Y-40440476D01*
X35663333Y-40345238D01*
X35758571Y-40250000D01*
X35901428Y-40202380D01*
X35996666Y-40202380D01*
X36139523Y-40250000D01*
X36187142Y-40297619D01*
X37139523Y-41202380D02*
X36568095Y-41202380D01*
X36853809Y-41202380D02*
X36853809Y-40202380D01*
X36758571Y-40345238D01*
X36663333Y-40440476D01*
X36568095Y-40488095D01*
X37520476Y-40297619D02*
X37568095Y-40250000D01*
X37663333Y-40202380D01*
X37901428Y-40202380D01*
X37996666Y-40250000D01*
X38044285Y-40297619D01*
X38091904Y-40392857D01*
X38091904Y-40488095D01*
X38044285Y-40630952D01*
X37472857Y-41202380D01*
X38091904Y-41202380D01*
%TO.C,C11*%
D13*
X17598571Y-50418571D02*
X17538095Y-50479047D01*
X17356666Y-50539523D01*
X17235714Y-50539523D01*
X17054285Y-50479047D01*
X16933333Y-50358095D01*
X16872857Y-50237142D01*
X16812380Y-49995238D01*
X16812380Y-49813809D01*
X16872857Y-49571904D01*
X16933333Y-49450952D01*
X17054285Y-49330000D01*
X17235714Y-49269523D01*
X17356666Y-49269523D01*
X17538095Y-49330000D01*
X17598571Y-49390476D01*
X18808095Y-50539523D02*
X18082380Y-50539523D01*
X18445238Y-50539523D02*
X18445238Y-49269523D01*
X18324285Y-49450952D01*
X18203333Y-49571904D01*
X18082380Y-49632380D01*
X20017619Y-50539523D02*
X19291904Y-50539523D01*
X19654761Y-50539523D02*
X19654761Y-49269523D01*
X19533809Y-49450952D01*
X19412857Y-49571904D01*
X19291904Y-49632380D01*
%TO.C,C3*%
X25853571Y-46566666D02*
X25914047Y-46627142D01*
X25974523Y-46808571D01*
X25974523Y-46929523D01*
X25914047Y-47110952D01*
X25793095Y-47231904D01*
X25672142Y-47292380D01*
X25430238Y-47352857D01*
X25248809Y-47352857D01*
X25006904Y-47292380D01*
X24885952Y-47231904D01*
X24765000Y-47110952D01*
X24704523Y-46929523D01*
X24704523Y-46808571D01*
X24765000Y-46627142D01*
X24825476Y-46566666D01*
X24704523Y-46143333D02*
X24704523Y-45357142D01*
X25188333Y-45780476D01*
X25188333Y-45599047D01*
X25248809Y-45478095D01*
X25309285Y-45417619D01*
X25430238Y-45357142D01*
X25732619Y-45357142D01*
X25853571Y-45417619D01*
X25914047Y-45478095D01*
X25974523Y-45599047D01*
X25974523Y-45961904D01*
X25914047Y-46082857D01*
X25853571Y-46143333D01*
%TD*%
M02*
