G04 #@! TF.GenerationSoftware,KiCad,Pcbnew,(5.1.9)-1*
G04 #@! TF.CreationDate,2021-07-08T11:24:13-04:00*
G04 #@! TF.ProjectId,ESC_5A,4553435f-3541-42e6-9b69-6361645f7063,rev?*
G04 #@! TF.SameCoordinates,Original*
G04 #@! TF.FileFunction,Legend,Top*
G04 #@! TF.FilePolarity,Positive*
%FSLAX46Y46*%
G04 Gerber Fmt 4.6, Leading zero omitted, Abs format (unit mm)*
G04 Created by KiCad (PCBNEW (5.1.9)-1) date 2021-07-08 11:24:13*
%MOMM*%
%LPD*%
G01*
G04 APERTURE LIST*
%ADD10C,0.200000*%
%ADD11C,0.100000*%
%ADD12C,0.120000*%
%ADD13C,0.254000*%
%ADD14C,0.150000*%
G04 APERTURE END LIST*
D10*
G04 #@! TO.C,S1*
X168915000Y-153860000D02*
G75*
G02*
X168915000Y-153660000I0J100000D01*
G01*
X168915000Y-153660000D02*
G75*
G02*
X168915000Y-153860000I0J-100000D01*
G01*
D11*
X172115000Y-152460000D02*
X169515000Y-152460000D01*
X172115000Y-147260000D02*
X169515000Y-147260000D01*
X173215000Y-152460000D02*
X173415000Y-152460000D01*
X173415000Y-152460000D02*
X173415000Y-147260000D01*
X173415000Y-147260000D02*
X173215000Y-147260000D01*
X168415000Y-152460000D02*
X168215000Y-152460000D01*
X168215000Y-152460000D02*
X168215000Y-147260000D01*
X168215000Y-147260000D02*
X168415000Y-147260000D01*
D10*
X168915000Y-153860000D02*
X168915000Y-153860000D01*
X168915000Y-153660000D02*
X168915000Y-153660000D01*
G04 #@! TO.C,Z1*
X136080000Y-153140000D02*
X136080000Y-157710000D01*
X133630000Y-153910000D02*
X133630000Y-157710000D01*
D12*
G04 #@! TO.C,J6*
X172025000Y-163255000D02*
X174685000Y-163255000D01*
X172025000Y-158115000D02*
X172025000Y-163255000D01*
X174685000Y-158115000D02*
X174685000Y-163255000D01*
X172025000Y-158115000D02*
X174685000Y-158115000D01*
X172025000Y-156845000D02*
X172025000Y-155515000D01*
X172025000Y-155515000D02*
X173355000Y-155515000D01*
D11*
G04 #@! TO.C,U1*
G36*
X146474500Y-140086199D02*
G01*
X146474500Y-139832199D01*
X146855500Y-139832199D01*
X146855500Y-140086199D01*
X146474500Y-140086199D01*
G37*
X146474500Y-140086199D02*
X146474500Y-139832199D01*
X146855500Y-139832199D01*
X146855500Y-140086199D01*
X146474500Y-140086199D01*
G36*
X149727801Y-144204499D02*
G01*
X149727801Y-144585500D01*
X149473801Y-144585500D01*
X149473801Y-144204499D01*
X149727801Y-144204499D01*
G37*
X149727801Y-144204499D02*
X149727801Y-144585500D01*
X149473801Y-144585500D01*
X149473801Y-144204499D01*
X149727801Y-144204499D01*
G36*
X145974501Y-148203801D02*
G01*
X145974501Y-148457801D01*
X146355501Y-148457801D01*
X146355501Y-148203801D01*
X145974501Y-148203801D01*
G37*
X145974501Y-148203801D02*
X145974501Y-148457801D01*
X146355501Y-148457801D01*
X146355501Y-148203801D01*
X145974501Y-148203801D01*
G36*
X141102199Y-145704499D02*
G01*
X141102199Y-146085499D01*
X141356199Y-146085499D01*
X141356199Y-145704499D01*
X141102199Y-145704499D01*
G37*
X141102199Y-145704499D02*
X141102199Y-146085499D01*
X141356199Y-146085499D01*
X141356199Y-145704499D01*
X141102199Y-145704499D01*
D12*
X142232660Y-140517999D02*
X141787999Y-140517999D01*
X149042001Y-140962660D02*
X149042001Y-140517999D01*
X148597340Y-147772001D02*
X149042001Y-147772001D01*
X141787999Y-147327340D02*
X141787999Y-147772001D01*
X141787999Y-140517999D02*
X141787999Y-140962660D01*
X149042001Y-140517999D02*
X148597340Y-140517999D01*
X149042001Y-147772001D02*
X149042001Y-147327340D01*
X141787999Y-147772001D02*
X142232660Y-147772001D01*
G04 #@! TO.C,R12*
X140181359Y-141150000D02*
X140488641Y-141150000D01*
X140181359Y-140390000D02*
X140488641Y-140390000D01*
G04 #@! TO.C,R11*
X140181359Y-140080000D02*
X140488641Y-140080000D01*
X140181359Y-139320000D02*
X140488641Y-139320000D01*
G04 #@! TO.C,R10*
X150440000Y-144298641D02*
X150440000Y-143991359D01*
X149680000Y-144298641D02*
X149680000Y-143991359D01*
G04 #@! TO.C,R8*
X151361359Y-144090000D02*
X151668641Y-144090000D01*
X151361359Y-143330000D02*
X151668641Y-143330000D01*
G04 #@! TO.C,R5*
X150341359Y-142370000D02*
X150648641Y-142370000D01*
X150341359Y-141610000D02*
X150648641Y-141610000D01*
G04 #@! TO.C,R3*
X134138641Y-143765000D02*
X133831359Y-143765000D01*
X134138641Y-144525000D02*
X133831359Y-144525000D01*
G04 #@! TO.C,R1*
X131291359Y-144525000D02*
X131598641Y-144525000D01*
X131291359Y-143765000D02*
X131598641Y-143765000D01*
G04 #@! TO.C,J5*
X131585000Y-153600000D02*
X128765000Y-153600000D01*
X128765000Y-153600000D02*
X127465000Y-155300000D01*
X131585000Y-153600000D02*
X132885000Y-155300000D01*
X127465000Y-155300000D02*
X127465000Y-164020000D01*
X132885000Y-164020000D02*
X127465000Y-164020000D01*
X132885000Y-155300000D02*
X132885000Y-164020000D01*
G04 #@! TO.C,J4*
X147050000Y-159880000D02*
X147050000Y-162700000D01*
X147050000Y-162700000D02*
X148750000Y-164000000D01*
X147050000Y-159880000D02*
X148750000Y-158580000D01*
X148750000Y-164000000D02*
X157470000Y-164000000D01*
X157470000Y-158580000D02*
X157470000Y-164000000D01*
X148750000Y-158580000D02*
X157470000Y-158580000D01*
G04 #@! TO.C,J3*
X135720000Y-159880000D02*
X135720000Y-162700000D01*
X135720000Y-162700000D02*
X137420000Y-164000000D01*
X135720000Y-159880000D02*
X137420000Y-158580000D01*
X137420000Y-164000000D02*
X146140000Y-164000000D01*
X146140000Y-158580000D02*
X146140000Y-164000000D01*
X137420000Y-158580000D02*
X146140000Y-158580000D01*
G04 #@! TO.C,J2*
X168215000Y-155515000D02*
X169545000Y-155515000D01*
X168215000Y-156845000D02*
X168215000Y-155515000D01*
X168215000Y-158115000D02*
X170875000Y-158115000D01*
X170875000Y-158115000D02*
X170875000Y-163255000D01*
X168215000Y-158115000D02*
X168215000Y-163255000D01*
X168215000Y-163255000D02*
X170875000Y-163255000D01*
D11*
G04 #@! TO.C,IC3*
X154940000Y-151502000D02*
X154940000Y-150502000D01*
X165100000Y-151502000D02*
X154940000Y-151502000D01*
X165100000Y-150502000D02*
X165100000Y-151502000D01*
D10*
X155420000Y-155002000D02*
X155420000Y-155002000D01*
X155420000Y-154803000D02*
X155420000Y-154803000D01*
X155420000Y-154803000D02*
G75*
G02*
X155420000Y-155002000I0J-99500D01*
G01*
X155420000Y-155002000D02*
G75*
G02*
X155420000Y-154803000I0J99500D01*
G01*
G04 #@! TO.C,IC2*
X158475000Y-158710000D02*
X159975000Y-158710000D01*
X160325000Y-163740000D02*
X160325000Y-158840000D01*
X163525000Y-163740000D02*
X160325000Y-163740000D01*
X163525000Y-158840000D02*
X163525000Y-163740000D01*
X160325000Y-158840000D02*
X163525000Y-158840000D01*
D12*
G04 #@! TO.C,D1*
X136365000Y-143420000D02*
X136365000Y-142270000D01*
X129065000Y-143420000D02*
X136365000Y-143420000D01*
X129065000Y-137920000D02*
X136365000Y-137920000D01*
G04 #@! TO.C,C12*
X150387164Y-141330000D02*
X150602836Y-141330000D01*
X150387164Y-140610000D02*
X150602836Y-140610000D01*
D10*
G04 #@! TO.C,C11*
X133730000Y-145725000D02*
X128780000Y-145725000D01*
X136780000Y-152325000D02*
X128780000Y-152325000D01*
G04 #@! TO.C,C3*
X138365000Y-145415000D02*
X139765000Y-145415000D01*
G04 #@! TO.C,S1*
D13*
X171329047Y-151077619D02*
X171389523Y-150896190D01*
X171389523Y-150593809D01*
X171329047Y-150472857D01*
X171268571Y-150412380D01*
X171147619Y-150351904D01*
X171026666Y-150351904D01*
X170905714Y-150412380D01*
X170845238Y-150472857D01*
X170784761Y-150593809D01*
X170724285Y-150835714D01*
X170663809Y-150956666D01*
X170603333Y-151017142D01*
X170482380Y-151077619D01*
X170361428Y-151077619D01*
X170240476Y-151017142D01*
X170180000Y-150956666D01*
X170119523Y-150835714D01*
X170119523Y-150533333D01*
X170180000Y-150351904D01*
X171389523Y-149142380D02*
X171389523Y-149868095D01*
X171389523Y-149505238D02*
X170119523Y-149505238D01*
X170300952Y-149626190D01*
X170421904Y-149747142D01*
X170482380Y-149868095D01*
G04 #@! TO.C,H2*
D14*
X171323095Y-138222380D02*
X171323095Y-137222380D01*
X171323095Y-137698571D02*
X171894523Y-137698571D01*
X171894523Y-138222380D02*
X171894523Y-137222380D01*
X172323095Y-137317619D02*
X172370714Y-137270000D01*
X172465952Y-137222380D01*
X172704047Y-137222380D01*
X172799285Y-137270000D01*
X172846904Y-137317619D01*
X172894523Y-137412857D01*
X172894523Y-137508095D01*
X172846904Y-137650952D01*
X172275476Y-138222380D01*
X172894523Y-138222380D01*
G04 #@! TO.C,Z1*
D13*
X134159523Y-156838095D02*
X134159523Y-155991428D01*
X135429523Y-156838095D01*
X135429523Y-155991428D01*
X135429523Y-154842380D02*
X135429523Y-155568095D01*
X135429523Y-155205238D02*
X134159523Y-155205238D01*
X134340952Y-155326190D01*
X134461904Y-155447142D01*
X134522380Y-155568095D01*
G04 #@! TO.C,J6*
D14*
X173021666Y-153967380D02*
X173021666Y-154681666D01*
X172974047Y-154824523D01*
X172878809Y-154919761D01*
X172735952Y-154967380D01*
X172640714Y-154967380D01*
X173926428Y-153967380D02*
X173735952Y-153967380D01*
X173640714Y-154015000D01*
X173593095Y-154062619D01*
X173497857Y-154205476D01*
X173450238Y-154395952D01*
X173450238Y-154776904D01*
X173497857Y-154872142D01*
X173545476Y-154919761D01*
X173640714Y-154967380D01*
X173831190Y-154967380D01*
X173926428Y-154919761D01*
X173974047Y-154872142D01*
X174021666Y-154776904D01*
X174021666Y-154538809D01*
X173974047Y-154443571D01*
X173926428Y-154395952D01*
X173831190Y-154348333D01*
X173640714Y-154348333D01*
X173545476Y-154395952D01*
X173497857Y-154443571D01*
X173450238Y-154538809D01*
G04 #@! TO.C,U1*
X144653095Y-143597380D02*
X144653095Y-144406904D01*
X144700714Y-144502142D01*
X144748333Y-144549761D01*
X144843571Y-144597380D01*
X145034047Y-144597380D01*
X145129285Y-144549761D01*
X145176904Y-144502142D01*
X145224523Y-144406904D01*
X145224523Y-143597380D01*
X146224523Y-144597380D02*
X145653095Y-144597380D01*
X145938809Y-144597380D02*
X145938809Y-143597380D01*
X145843571Y-143740238D01*
X145748333Y-143835476D01*
X145653095Y-143883095D01*
X139176904Y-143597380D02*
X139748333Y-143597380D01*
X139462619Y-144597380D02*
X139462619Y-143597380D01*
X140415000Y-144073571D02*
X140557857Y-144121190D01*
X140605476Y-144168809D01*
X140653095Y-144264047D01*
X140653095Y-144406904D01*
X140605476Y-144502142D01*
X140557857Y-144549761D01*
X140462619Y-144597380D01*
X140081666Y-144597380D01*
X140081666Y-143597380D01*
X140415000Y-143597380D01*
X140510238Y-143645000D01*
X140557857Y-143692619D01*
X140605476Y-143787857D01*
X140605476Y-143883095D01*
X140557857Y-143978333D01*
X140510238Y-144025952D01*
X140415000Y-144073571D01*
X140081666Y-144073571D01*
X141510238Y-143597380D02*
X141319761Y-143597380D01*
X141224523Y-143645000D01*
X141176904Y-143692619D01*
X141081666Y-143835476D01*
X141034047Y-144025952D01*
X141034047Y-144406904D01*
X141081666Y-144502142D01*
X141129285Y-144549761D01*
X141224523Y-144597380D01*
X141415000Y-144597380D01*
X141510238Y-144549761D01*
X141557857Y-144502142D01*
X141605476Y-144406904D01*
X141605476Y-144168809D01*
X141557857Y-144073571D01*
X141510238Y-144025952D01*
X141415000Y-143978333D01*
X141224523Y-143978333D01*
X141129285Y-144025952D01*
X141081666Y-144073571D01*
X141034047Y-144168809D01*
X141938809Y-143597380D02*
X142605476Y-143597380D01*
X142176904Y-144597380D01*
X142986428Y-144597380D02*
X142986428Y-143597380D01*
X142986428Y-144073571D02*
X143557857Y-144073571D01*
X143557857Y-144597380D02*
X143557857Y-143597380D01*
X144462619Y-143930714D02*
X144462619Y-144597380D01*
X144224523Y-143549761D02*
X143986428Y-144264047D01*
X144605476Y-144264047D01*
X144938809Y-143692619D02*
X144986428Y-143645000D01*
X145081666Y-143597380D01*
X145319761Y-143597380D01*
X145415000Y-143645000D01*
X145462619Y-143692619D01*
X145510238Y-143787857D01*
X145510238Y-143883095D01*
X145462619Y-144025952D01*
X144891190Y-144597380D01*
X145510238Y-144597380D01*
X146129285Y-143597380D02*
X146224523Y-143597380D01*
X146319761Y-143645000D01*
X146367380Y-143692619D01*
X146415000Y-143787857D01*
X146462619Y-143978333D01*
X146462619Y-144216428D01*
X146415000Y-144406904D01*
X146367380Y-144502142D01*
X146319761Y-144549761D01*
X146224523Y-144597380D01*
X146129285Y-144597380D01*
X146034047Y-144549761D01*
X145986428Y-144502142D01*
X145938809Y-144406904D01*
X145891190Y-144216428D01*
X145891190Y-143978333D01*
X145938809Y-143787857D01*
X145986428Y-143692619D01*
X146034047Y-143645000D01*
X146129285Y-143597380D01*
X147224523Y-144073571D02*
X146891190Y-144073571D01*
X146891190Y-144597380D02*
X146891190Y-143597380D01*
X147367380Y-143597380D01*
X147605476Y-143597380D02*
X148176904Y-143597380D01*
X147891190Y-144597380D02*
X147891190Y-143597380D01*
X149034047Y-143645000D02*
X148938809Y-143597380D01*
X148795952Y-143597380D01*
X148653095Y-143645000D01*
X148557857Y-143740238D01*
X148510238Y-143835476D01*
X148462619Y-144025952D01*
X148462619Y-144168809D01*
X148510238Y-144359285D01*
X148557857Y-144454523D01*
X148653095Y-144549761D01*
X148795952Y-144597380D01*
X148891190Y-144597380D01*
X149034047Y-144549761D01*
X149081666Y-144502142D01*
X149081666Y-144168809D01*
X148891190Y-144168809D01*
X149272142Y-144692619D02*
X150034047Y-144692619D01*
X150272142Y-144073571D02*
X150605476Y-144073571D01*
X150748333Y-144597380D02*
X150272142Y-144597380D01*
X150272142Y-143597380D01*
X150748333Y-143597380D01*
X151653095Y-144597380D02*
X151176904Y-144597380D01*
X151176904Y-143597380D01*
X140975200Y-140597380D02*
X140975200Y-140835476D01*
X140737104Y-140740238D02*
X140975200Y-140835476D01*
X141213295Y-140740238D01*
X140832342Y-141025952D02*
X140975200Y-140835476D01*
X141118057Y-141025952D01*
X140975200Y-140597380D02*
X140975200Y-140835476D01*
X140737104Y-140740238D02*
X140975200Y-140835476D01*
X141213295Y-140740238D01*
X140832342Y-141025952D02*
X140975200Y-140835476D01*
X141118057Y-141025952D01*
G04 #@! TO.C,R12*
X139692142Y-140052380D02*
X139358809Y-139576190D01*
X139120714Y-140052380D02*
X139120714Y-139052380D01*
X139501666Y-139052380D01*
X139596904Y-139100000D01*
X139644523Y-139147619D01*
X139692142Y-139242857D01*
X139692142Y-139385714D01*
X139644523Y-139480952D01*
X139596904Y-139528571D01*
X139501666Y-139576190D01*
X139120714Y-139576190D01*
X140644523Y-140052380D02*
X140073095Y-140052380D01*
X140358809Y-140052380D02*
X140358809Y-139052380D01*
X140263571Y-139195238D01*
X140168333Y-139290476D01*
X140073095Y-139338095D01*
X141025476Y-139147619D02*
X141073095Y-139100000D01*
X141168333Y-139052380D01*
X141406428Y-139052380D01*
X141501666Y-139100000D01*
X141549285Y-139147619D01*
X141596904Y-139242857D01*
X141596904Y-139338095D01*
X141549285Y-139480952D01*
X140977857Y-140052380D01*
X141596904Y-140052380D01*
G04 #@! TO.C,R11*
X139692142Y-138982380D02*
X139358809Y-138506190D01*
X139120714Y-138982380D02*
X139120714Y-137982380D01*
X139501666Y-137982380D01*
X139596904Y-138030000D01*
X139644523Y-138077619D01*
X139692142Y-138172857D01*
X139692142Y-138315714D01*
X139644523Y-138410952D01*
X139596904Y-138458571D01*
X139501666Y-138506190D01*
X139120714Y-138506190D01*
X140644523Y-138982380D02*
X140073095Y-138982380D01*
X140358809Y-138982380D02*
X140358809Y-137982380D01*
X140263571Y-138125238D01*
X140168333Y-138220476D01*
X140073095Y-138268095D01*
X141596904Y-138982380D02*
X141025476Y-138982380D01*
X141311190Y-138982380D02*
X141311190Y-137982380D01*
X141215952Y-138125238D01*
X141120714Y-138220476D01*
X141025476Y-138268095D01*
G04 #@! TO.C,R10*
X149342380Y-144787857D02*
X148866190Y-145121190D01*
X149342380Y-145359285D02*
X148342380Y-145359285D01*
X148342380Y-144978333D01*
X148390000Y-144883095D01*
X148437619Y-144835476D01*
X148532857Y-144787857D01*
X148675714Y-144787857D01*
X148770952Y-144835476D01*
X148818571Y-144883095D01*
X148866190Y-144978333D01*
X148866190Y-145359285D01*
X149342380Y-143835476D02*
X149342380Y-144406904D01*
X149342380Y-144121190D02*
X148342380Y-144121190D01*
X148485238Y-144216428D01*
X148580476Y-144311666D01*
X148628095Y-144406904D01*
X148342380Y-143216428D02*
X148342380Y-143121190D01*
X148390000Y-143025952D01*
X148437619Y-142978333D01*
X148532857Y-142930714D01*
X148723333Y-142883095D01*
X148961428Y-142883095D01*
X149151904Y-142930714D01*
X149247142Y-142978333D01*
X149294761Y-143025952D01*
X149342380Y-143121190D01*
X149342380Y-143216428D01*
X149294761Y-143311666D01*
X149247142Y-143359285D01*
X149151904Y-143406904D01*
X148961428Y-143454523D01*
X148723333Y-143454523D01*
X148532857Y-143406904D01*
X148437619Y-143359285D01*
X148390000Y-143311666D01*
X148342380Y-143216428D01*
G04 #@! TO.C,R8*
X151348333Y-142992380D02*
X151015000Y-142516190D01*
X150776904Y-142992380D02*
X150776904Y-141992380D01*
X151157857Y-141992380D01*
X151253095Y-142040000D01*
X151300714Y-142087619D01*
X151348333Y-142182857D01*
X151348333Y-142325714D01*
X151300714Y-142420952D01*
X151253095Y-142468571D01*
X151157857Y-142516190D01*
X150776904Y-142516190D01*
X151919761Y-142420952D02*
X151824523Y-142373333D01*
X151776904Y-142325714D01*
X151729285Y-142230476D01*
X151729285Y-142182857D01*
X151776904Y-142087619D01*
X151824523Y-142040000D01*
X151919761Y-141992380D01*
X152110238Y-141992380D01*
X152205476Y-142040000D01*
X152253095Y-142087619D01*
X152300714Y-142182857D01*
X152300714Y-142230476D01*
X152253095Y-142325714D01*
X152205476Y-142373333D01*
X152110238Y-142420952D01*
X151919761Y-142420952D01*
X151824523Y-142468571D01*
X151776904Y-142516190D01*
X151729285Y-142611428D01*
X151729285Y-142801904D01*
X151776904Y-142897142D01*
X151824523Y-142944761D01*
X151919761Y-142992380D01*
X152110238Y-142992380D01*
X152205476Y-142944761D01*
X152253095Y-142897142D01*
X152300714Y-142801904D01*
X152300714Y-142611428D01*
X152253095Y-142516190D01*
X152205476Y-142468571D01*
X152110238Y-142420952D01*
G04 #@! TO.C,R5*
X150328333Y-141272380D02*
X149995000Y-140796190D01*
X149756904Y-141272380D02*
X149756904Y-140272380D01*
X150137857Y-140272380D01*
X150233095Y-140320000D01*
X150280714Y-140367619D01*
X150328333Y-140462857D01*
X150328333Y-140605714D01*
X150280714Y-140700952D01*
X150233095Y-140748571D01*
X150137857Y-140796190D01*
X149756904Y-140796190D01*
X151233095Y-140272380D02*
X150756904Y-140272380D01*
X150709285Y-140748571D01*
X150756904Y-140700952D01*
X150852142Y-140653333D01*
X151090238Y-140653333D01*
X151185476Y-140700952D01*
X151233095Y-140748571D01*
X151280714Y-140843809D01*
X151280714Y-141081904D01*
X151233095Y-141177142D01*
X151185476Y-141224761D01*
X151090238Y-141272380D01*
X150852142Y-141272380D01*
X150756904Y-141224761D01*
X150709285Y-141177142D01*
G04 #@! TO.C,R3*
X133818333Y-145767380D02*
X133485000Y-145291190D01*
X133246904Y-145767380D02*
X133246904Y-144767380D01*
X133627857Y-144767380D01*
X133723095Y-144815000D01*
X133770714Y-144862619D01*
X133818333Y-144957857D01*
X133818333Y-145100714D01*
X133770714Y-145195952D01*
X133723095Y-145243571D01*
X133627857Y-145291190D01*
X133246904Y-145291190D01*
X134151666Y-144767380D02*
X134770714Y-144767380D01*
X134437380Y-145148333D01*
X134580238Y-145148333D01*
X134675476Y-145195952D01*
X134723095Y-145243571D01*
X134770714Y-145338809D01*
X134770714Y-145576904D01*
X134723095Y-145672142D01*
X134675476Y-145719761D01*
X134580238Y-145767380D01*
X134294523Y-145767380D01*
X134199285Y-145719761D01*
X134151666Y-145672142D01*
G04 #@! TO.C,R1*
X131278333Y-143427380D02*
X130945000Y-142951190D01*
X130706904Y-143427380D02*
X130706904Y-142427380D01*
X131087857Y-142427380D01*
X131183095Y-142475000D01*
X131230714Y-142522619D01*
X131278333Y-142617857D01*
X131278333Y-142760714D01*
X131230714Y-142855952D01*
X131183095Y-142903571D01*
X131087857Y-142951190D01*
X130706904Y-142951190D01*
X132230714Y-143427380D02*
X131659285Y-143427380D01*
X131945000Y-143427380D02*
X131945000Y-142427380D01*
X131849761Y-142570238D01*
X131754523Y-142665476D01*
X131659285Y-142713095D01*
G04 #@! TO.C,J5*
X133627380Y-159143333D02*
X134341666Y-159143333D01*
X134484523Y-159190952D01*
X134579761Y-159286190D01*
X134627380Y-159429047D01*
X134627380Y-159524285D01*
X133627380Y-158190952D02*
X133627380Y-158667142D01*
X134103571Y-158714761D01*
X134055952Y-158667142D01*
X134008333Y-158571904D01*
X134008333Y-158333809D01*
X134055952Y-158238571D01*
X134103571Y-158190952D01*
X134198809Y-158143333D01*
X134436904Y-158143333D01*
X134532142Y-158190952D01*
X134579761Y-158238571D01*
X134627380Y-158333809D01*
X134627380Y-158571904D01*
X134579761Y-158667142D01*
X134532142Y-158714761D01*
X130282142Y-152881428D02*
X130282142Y-151738571D01*
X130282142Y-165881428D02*
X130282142Y-164738571D01*
X130853571Y-165310000D02*
X129710714Y-165310000D01*
G04 #@! TO.C,J4*
X151926666Y-156742380D02*
X151926666Y-157456666D01*
X151879047Y-157599523D01*
X151783809Y-157694761D01*
X151640952Y-157742380D01*
X151545714Y-157742380D01*
X152831428Y-157075714D02*
X152831428Y-157742380D01*
X152593333Y-156694761D02*
X152355238Y-157409047D01*
X152974285Y-157409047D01*
X145188571Y-161397142D02*
X146331428Y-161397142D01*
X158188571Y-161397142D02*
X159331428Y-161397142D01*
X158760000Y-161968571D02*
X158760000Y-160825714D01*
G04 #@! TO.C,J3*
X140596666Y-156742380D02*
X140596666Y-157456666D01*
X140549047Y-157599523D01*
X140453809Y-157694761D01*
X140310952Y-157742380D01*
X140215714Y-157742380D01*
X140977619Y-156742380D02*
X141596666Y-156742380D01*
X141263333Y-157123333D01*
X141406190Y-157123333D01*
X141501428Y-157170952D01*
X141549047Y-157218571D01*
X141596666Y-157313809D01*
X141596666Y-157551904D01*
X141549047Y-157647142D01*
X141501428Y-157694761D01*
X141406190Y-157742380D01*
X141120476Y-157742380D01*
X141025238Y-157694761D01*
X140977619Y-157647142D01*
X133858571Y-161397142D02*
X135001428Y-161397142D01*
X146858571Y-161397142D02*
X148001428Y-161397142D01*
X147430000Y-161968571D02*
X147430000Y-160825714D01*
G04 #@! TO.C,J2*
X169211666Y-153967380D02*
X169211666Y-154681666D01*
X169164047Y-154824523D01*
X169068809Y-154919761D01*
X168925952Y-154967380D01*
X168830714Y-154967380D01*
X169640238Y-154062619D02*
X169687857Y-154015000D01*
X169783095Y-153967380D01*
X170021190Y-153967380D01*
X170116428Y-154015000D01*
X170164047Y-154062619D01*
X170211666Y-154157857D01*
X170211666Y-154253095D01*
X170164047Y-154395952D01*
X169592619Y-154967380D01*
X170211666Y-154967380D01*
G04 #@! TO.C,IC3*
D13*
X158780238Y-149164523D02*
X158780238Y-147894523D01*
X160110714Y-149043571D02*
X160050238Y-149104047D01*
X159868809Y-149164523D01*
X159747857Y-149164523D01*
X159566428Y-149104047D01*
X159445476Y-148983095D01*
X159385000Y-148862142D01*
X159324523Y-148620238D01*
X159324523Y-148438809D01*
X159385000Y-148196904D01*
X159445476Y-148075952D01*
X159566428Y-147955000D01*
X159747857Y-147894523D01*
X159868809Y-147894523D01*
X160050238Y-147955000D01*
X160110714Y-148015476D01*
X160534047Y-147894523D02*
X161320238Y-147894523D01*
X160896904Y-148378333D01*
X161078333Y-148378333D01*
X161199285Y-148438809D01*
X161259761Y-148499285D01*
X161320238Y-148620238D01*
X161320238Y-148922619D01*
X161259761Y-149043571D01*
X161199285Y-149104047D01*
X161078333Y-149164523D01*
X160715476Y-149164523D01*
X160594523Y-149104047D01*
X160534047Y-149043571D01*
G04 #@! TO.C,IC2*
X160685238Y-161864523D02*
X160685238Y-160594523D01*
X162015714Y-161743571D02*
X161955238Y-161804047D01*
X161773809Y-161864523D01*
X161652857Y-161864523D01*
X161471428Y-161804047D01*
X161350476Y-161683095D01*
X161290000Y-161562142D01*
X161229523Y-161320238D01*
X161229523Y-161138809D01*
X161290000Y-160896904D01*
X161350476Y-160775952D01*
X161471428Y-160655000D01*
X161652857Y-160594523D01*
X161773809Y-160594523D01*
X161955238Y-160655000D01*
X162015714Y-160715476D01*
X162499523Y-160715476D02*
X162560000Y-160655000D01*
X162680952Y-160594523D01*
X162983333Y-160594523D01*
X163104285Y-160655000D01*
X163164761Y-160715476D01*
X163225238Y-160836428D01*
X163225238Y-160957380D01*
X163164761Y-161138809D01*
X162439047Y-161864523D01*
X163225238Y-161864523D01*
G04 #@! TO.C,H1*
D14*
X152508095Y-152192380D02*
X152508095Y-151192380D01*
X152508095Y-151668571D02*
X153079523Y-151668571D01*
X153079523Y-152192380D02*
X153079523Y-151192380D01*
X154079523Y-152192380D02*
X153508095Y-152192380D01*
X153793809Y-152192380D02*
X153793809Y-151192380D01*
X153698571Y-151335238D01*
X153603333Y-151430476D01*
X153508095Y-151478095D01*
G04 #@! TO.C,D1*
X131976904Y-137622380D02*
X131976904Y-136622380D01*
X132215000Y-136622380D01*
X132357857Y-136670000D01*
X132453095Y-136765238D01*
X132500714Y-136860476D01*
X132548333Y-137050952D01*
X132548333Y-137193809D01*
X132500714Y-137384285D01*
X132453095Y-137479523D01*
X132357857Y-137574761D01*
X132215000Y-137622380D01*
X131976904Y-137622380D01*
X133500714Y-137622380D02*
X132929285Y-137622380D01*
X133215000Y-137622380D02*
X133215000Y-136622380D01*
X133119761Y-136765238D01*
X133024523Y-136860476D01*
X132929285Y-136908095D01*
X128850714Y-139522380D02*
X128279285Y-139522380D01*
X128565000Y-139522380D02*
X128565000Y-138522380D01*
X128469761Y-138665238D01*
X128374523Y-138760476D01*
X128279285Y-138808095D01*
G04 #@! TO.C,C13*
D13*
X150948571Y-143328571D02*
X150888095Y-143389047D01*
X150706666Y-143449523D01*
X150585714Y-143449523D01*
X150404285Y-143389047D01*
X150283333Y-143268095D01*
X150222857Y-143147142D01*
X150162380Y-142905238D01*
X150162380Y-142723809D01*
X150222857Y-142481904D01*
X150283333Y-142360952D01*
X150404285Y-142240000D01*
X150585714Y-142179523D01*
X150706666Y-142179523D01*
X150888095Y-142240000D01*
X150948571Y-142300476D01*
X152158095Y-143449523D02*
X151432380Y-143449523D01*
X151795238Y-143449523D02*
X151795238Y-142179523D01*
X151674285Y-142360952D01*
X151553333Y-142481904D01*
X151432380Y-142542380D01*
X152581428Y-142179523D02*
X153367619Y-142179523D01*
X152944285Y-142663333D01*
X153125714Y-142663333D01*
X153246666Y-142723809D01*
X153307142Y-142784285D01*
X153367619Y-142905238D01*
X153367619Y-143207619D01*
X153307142Y-143328571D01*
X153246666Y-143389047D01*
X153125714Y-143449523D01*
X152762857Y-143449523D01*
X152641904Y-143389047D01*
X152581428Y-143328571D01*
G04 #@! TO.C,C12*
D14*
X149852142Y-140167142D02*
X149804523Y-140214761D01*
X149661666Y-140262380D01*
X149566428Y-140262380D01*
X149423571Y-140214761D01*
X149328333Y-140119523D01*
X149280714Y-140024285D01*
X149233095Y-139833809D01*
X149233095Y-139690952D01*
X149280714Y-139500476D01*
X149328333Y-139405238D01*
X149423571Y-139310000D01*
X149566428Y-139262380D01*
X149661666Y-139262380D01*
X149804523Y-139310000D01*
X149852142Y-139357619D01*
X150804523Y-140262380D02*
X150233095Y-140262380D01*
X150518809Y-140262380D02*
X150518809Y-139262380D01*
X150423571Y-139405238D01*
X150328333Y-139500476D01*
X150233095Y-139548095D01*
X151185476Y-139357619D02*
X151233095Y-139310000D01*
X151328333Y-139262380D01*
X151566428Y-139262380D01*
X151661666Y-139310000D01*
X151709285Y-139357619D01*
X151756904Y-139452857D01*
X151756904Y-139548095D01*
X151709285Y-139690952D01*
X151137857Y-140262380D01*
X151756904Y-140262380D01*
G04 #@! TO.C,C11*
D13*
X131263571Y-149478571D02*
X131203095Y-149539047D01*
X131021666Y-149599523D01*
X130900714Y-149599523D01*
X130719285Y-149539047D01*
X130598333Y-149418095D01*
X130537857Y-149297142D01*
X130477380Y-149055238D01*
X130477380Y-148873809D01*
X130537857Y-148631904D01*
X130598333Y-148510952D01*
X130719285Y-148390000D01*
X130900714Y-148329523D01*
X131021666Y-148329523D01*
X131203095Y-148390000D01*
X131263571Y-148450476D01*
X132473095Y-149599523D02*
X131747380Y-149599523D01*
X132110238Y-149599523D02*
X132110238Y-148329523D01*
X131989285Y-148510952D01*
X131868333Y-148631904D01*
X131747380Y-148692380D01*
X133682619Y-149599523D02*
X132956904Y-149599523D01*
X133319761Y-149599523D02*
X133319761Y-148329523D01*
X133198809Y-148510952D01*
X133077857Y-148631904D01*
X132956904Y-148692380D01*
G04 #@! TO.C,C3*
X139518571Y-145626666D02*
X139579047Y-145687142D01*
X139639523Y-145868571D01*
X139639523Y-145989523D01*
X139579047Y-146170952D01*
X139458095Y-146291904D01*
X139337142Y-146352380D01*
X139095238Y-146412857D01*
X138913809Y-146412857D01*
X138671904Y-146352380D01*
X138550952Y-146291904D01*
X138430000Y-146170952D01*
X138369523Y-145989523D01*
X138369523Y-145868571D01*
X138430000Y-145687142D01*
X138490476Y-145626666D01*
X138369523Y-145203333D02*
X138369523Y-144417142D01*
X138853333Y-144840476D01*
X138853333Y-144659047D01*
X138913809Y-144538095D01*
X138974285Y-144477619D01*
X139095238Y-144417142D01*
X139397619Y-144417142D01*
X139518571Y-144477619D01*
X139579047Y-144538095D01*
X139639523Y-144659047D01*
X139639523Y-145021904D01*
X139579047Y-145142857D01*
X139518571Y-145203333D01*
G04 #@! TD*
M02*
