%TF.GenerationSoftware,KiCad,Pcbnew,(5.1.9)-1*%
%TF.CreationDate,2021-07-06T13:24:45-04:00*%
%TF.ProjectId,ESC_5A,4553435f-3541-42e6-9b69-6361645f7063,rev?*%
%TF.SameCoordinates,Original*%
%TF.FileFunction,Soldermask,Top*%
%TF.FilePolarity,Negative*%
%FSLAX46Y46*%
G04 Gerber Fmt 4.6, Leading zero omitted, Abs format (unit mm)*
G04 Created by KiCad (PCBNEW (5.1.9)-1) date 2021-07-06 13:24:45*
%MOMM*%
%LPD*%
G01*
G04 APERTURE LIST*
%ADD10R,1.890000X1.140000*%
%ADD11O,1.700000X1.700000*%
%ADD12R,1.700000X1.700000*%
%ADD13R,5.499999X5.499999*%
%ADD14R,0.199200X0.704800*%
%ADD15R,0.704800X0.199200*%
%ADD16R,1.400000X2.100000*%
%ADD17C,3.800000*%
%ADD18R,3.800000X3.800000*%
%ADD19C,0.650000*%
%ADD20O,1.050000X2.100000*%
%ADD21O,1.000000X2.000000*%
%ADD22R,10.750000X9.450000*%
%ADD23R,1.000000X3.800000*%
%ADD24R,1.500000X0.650000*%
%ADD25C,2.200000*%
%ADD26R,1.500000X1.000000*%
%ADD27R,0.460000X0.420000*%
%ADD28R,3.400000X1.800000*%
%ADD29R,1.820000X1.070000*%
G04 APERTURE END LIST*
D10*
%TO.C,Z1*%
X21190000Y-58850000D03*
X21190000Y-54650000D03*
%TD*%
D11*
%TO.C,J6*%
X59690000Y-62865000D03*
X59690000Y-60325000D03*
D12*
X59690000Y-57785000D03*
%TD*%
D13*
%TO.C,U1*%
X31750000Y-45085000D03*
D14*
X29000000Y-41632602D03*
X29499999Y-41632602D03*
X30000001Y-41632602D03*
X30500000Y-41632602D03*
X30999999Y-41632602D03*
X31500000Y-41632602D03*
X32000000Y-41632602D03*
X32500001Y-41632602D03*
X33000000Y-41632602D03*
X33499999Y-41632602D03*
X34000001Y-41632602D03*
X34500000Y-41632602D03*
D15*
X35202398Y-42335000D03*
X35202398Y-42834999D03*
X35202398Y-43335001D03*
X35202398Y-43835000D03*
X35202398Y-44334999D03*
X35202398Y-44835000D03*
X35202398Y-45335000D03*
X35202398Y-45835001D03*
X35202398Y-46335000D03*
X35202398Y-46834999D03*
X35202398Y-47335001D03*
X35202398Y-47835000D03*
D14*
X34500000Y-48537398D03*
X34000001Y-48537398D03*
X33499999Y-48537398D03*
X33000000Y-48537398D03*
X32500001Y-48537398D03*
X32000000Y-48537398D03*
X31500000Y-48537398D03*
X30999999Y-48537398D03*
X30500000Y-48537398D03*
X30000001Y-48537398D03*
X29499999Y-48537398D03*
X29000000Y-48537398D03*
D15*
X28297602Y-47835000D03*
X28297602Y-47335001D03*
X28297602Y-46834999D03*
X28297602Y-46335000D03*
X28297602Y-45835001D03*
X28297602Y-45335000D03*
X28297602Y-44835000D03*
X28297602Y-44334999D03*
X28297602Y-43835000D03*
X28297602Y-43335001D03*
X28297602Y-42834999D03*
X28297602Y-42335000D03*
%TD*%
D16*
%TO.C,S1*%
X54900000Y-53445000D03*
X54900000Y-44345000D03*
X59400000Y-53445000D03*
X59400000Y-44345000D03*
%TD*%
%TO.C,R12*%
G36*
G01*
X26910000Y-41895000D02*
X26910000Y-41525000D01*
G75*
G02*
X27045000Y-41390000I135000J0D01*
G01*
X27315000Y-41390000D01*
G75*
G02*
X27450000Y-41525000I0J-135000D01*
G01*
X27450000Y-41895000D01*
G75*
G02*
X27315000Y-42030000I-135000J0D01*
G01*
X27045000Y-42030000D01*
G75*
G02*
X26910000Y-41895000I0J135000D01*
G01*
G37*
G36*
G01*
X25890000Y-41895000D02*
X25890000Y-41525000D01*
G75*
G02*
X26025000Y-41390000I135000J0D01*
G01*
X26295000Y-41390000D01*
G75*
G02*
X26430000Y-41525000I0J-135000D01*
G01*
X26430000Y-41895000D01*
G75*
G02*
X26295000Y-42030000I-135000J0D01*
G01*
X26025000Y-42030000D01*
G75*
G02*
X25890000Y-41895000I0J135000D01*
G01*
G37*
%TD*%
%TO.C,R11*%
G36*
G01*
X26910000Y-40825000D02*
X26910000Y-40455000D01*
G75*
G02*
X27045000Y-40320000I135000J0D01*
G01*
X27315000Y-40320000D01*
G75*
G02*
X27450000Y-40455000I0J-135000D01*
G01*
X27450000Y-40825000D01*
G75*
G02*
X27315000Y-40960000I-135000J0D01*
G01*
X27045000Y-40960000D01*
G75*
G02*
X26910000Y-40825000I0J135000D01*
G01*
G37*
G36*
G01*
X25890000Y-40825000D02*
X25890000Y-40455000D01*
G75*
G02*
X26025000Y-40320000I135000J0D01*
G01*
X26295000Y-40320000D01*
G75*
G02*
X26430000Y-40455000I0J-135000D01*
G01*
X26430000Y-40825000D01*
G75*
G02*
X26295000Y-40960000I-135000J0D01*
G01*
X26025000Y-40960000D01*
G75*
G02*
X25890000Y-40825000I0J135000D01*
G01*
G37*
%TD*%
%TO.C,R10*%
G36*
G01*
X36580000Y-44845000D02*
X36210000Y-44845000D01*
G75*
G02*
X36075000Y-44710000I0J135000D01*
G01*
X36075000Y-44440000D01*
G75*
G02*
X36210000Y-44305000I135000J0D01*
G01*
X36580000Y-44305000D01*
G75*
G02*
X36715000Y-44440000I0J-135000D01*
G01*
X36715000Y-44710000D01*
G75*
G02*
X36580000Y-44845000I-135000J0D01*
G01*
G37*
G36*
G01*
X36580000Y-45865000D02*
X36210000Y-45865000D01*
G75*
G02*
X36075000Y-45730000I0J135000D01*
G01*
X36075000Y-45460000D01*
G75*
G02*
X36210000Y-45325000I135000J0D01*
G01*
X36580000Y-45325000D01*
G75*
G02*
X36715000Y-45460000I0J-135000D01*
G01*
X36715000Y-45730000D01*
G75*
G02*
X36580000Y-45865000I-135000J0D01*
G01*
G37*
%TD*%
%TO.C,R8*%
G36*
G01*
X38090000Y-44835000D02*
X38090000Y-44465000D01*
G75*
G02*
X38225000Y-44330000I135000J0D01*
G01*
X38495000Y-44330000D01*
G75*
G02*
X38630000Y-44465000I0J-135000D01*
G01*
X38630000Y-44835000D01*
G75*
G02*
X38495000Y-44970000I-135000J0D01*
G01*
X38225000Y-44970000D01*
G75*
G02*
X38090000Y-44835000I0J135000D01*
G01*
G37*
G36*
G01*
X37070000Y-44835000D02*
X37070000Y-44465000D01*
G75*
G02*
X37205000Y-44330000I135000J0D01*
G01*
X37475000Y-44330000D01*
G75*
G02*
X37610000Y-44465000I0J-135000D01*
G01*
X37610000Y-44835000D01*
G75*
G02*
X37475000Y-44970000I-135000J0D01*
G01*
X37205000Y-44970000D01*
G75*
G02*
X37070000Y-44835000I0J135000D01*
G01*
G37*
%TD*%
%TO.C,R5*%
G36*
G01*
X37070000Y-43115000D02*
X37070000Y-42745000D01*
G75*
G02*
X37205000Y-42610000I135000J0D01*
G01*
X37475000Y-42610000D01*
G75*
G02*
X37610000Y-42745000I0J-135000D01*
G01*
X37610000Y-43115000D01*
G75*
G02*
X37475000Y-43250000I-135000J0D01*
G01*
X37205000Y-43250000D01*
G75*
G02*
X37070000Y-43115000I0J135000D01*
G01*
G37*
G36*
G01*
X36050000Y-43115000D02*
X36050000Y-42745000D01*
G75*
G02*
X36185000Y-42610000I135000J0D01*
G01*
X36455000Y-42610000D01*
G75*
G02*
X36590000Y-42745000I0J-135000D01*
G01*
X36590000Y-43115000D01*
G75*
G02*
X36455000Y-43250000I-135000J0D01*
G01*
X36185000Y-43250000D01*
G75*
G02*
X36050000Y-43115000I0J135000D01*
G01*
G37*
%TD*%
%TO.C,R3*%
G36*
G01*
X20080000Y-44900000D02*
X20080000Y-45270000D01*
G75*
G02*
X19945000Y-45405000I-135000J0D01*
G01*
X19675000Y-45405000D01*
G75*
G02*
X19540000Y-45270000I0J135000D01*
G01*
X19540000Y-44900000D01*
G75*
G02*
X19675000Y-44765000I135000J0D01*
G01*
X19945000Y-44765000D01*
G75*
G02*
X20080000Y-44900000I0J-135000D01*
G01*
G37*
G36*
G01*
X21100000Y-44900000D02*
X21100000Y-45270000D01*
G75*
G02*
X20965000Y-45405000I-135000J0D01*
G01*
X20695000Y-45405000D01*
G75*
G02*
X20560000Y-45270000I0J135000D01*
G01*
X20560000Y-44900000D01*
G75*
G02*
X20695000Y-44765000I135000J0D01*
G01*
X20965000Y-44765000D01*
G75*
G02*
X21100000Y-44900000I0J-135000D01*
G01*
G37*
%TD*%
%TO.C,R1*%
G36*
G01*
X18020000Y-45270000D02*
X18020000Y-44900000D01*
G75*
G02*
X18155000Y-44765000I135000J0D01*
G01*
X18425000Y-44765000D01*
G75*
G02*
X18560000Y-44900000I0J-135000D01*
G01*
X18560000Y-45270000D01*
G75*
G02*
X18425000Y-45405000I-135000J0D01*
G01*
X18155000Y-45405000D01*
G75*
G02*
X18020000Y-45270000I0J135000D01*
G01*
G37*
G36*
G01*
X17000000Y-45270000D02*
X17000000Y-44900000D01*
G75*
G02*
X17135000Y-44765000I135000J0D01*
G01*
X17405000Y-44765000D01*
G75*
G02*
X17540000Y-44900000I0J-135000D01*
G01*
X17540000Y-45270000D01*
G75*
G02*
X17405000Y-45405000I-135000J0D01*
G01*
X17135000Y-45405000D01*
G75*
G02*
X17000000Y-45270000I0J135000D01*
G01*
G37*
%TD*%
D17*
%TO.C,J5*%
X16510000Y-62250000D03*
D18*
X16510000Y-57250000D03*
%TD*%
D17*
%TO.C,J4*%
X41095000Y-62230000D03*
D18*
X36095000Y-62230000D03*
%TD*%
D17*
%TO.C,J3*%
X29765000Y-62230000D03*
D18*
X24765000Y-62230000D03*
%TD*%
D11*
%TO.C,J2*%
X55880000Y-62865000D03*
X55880000Y-60325000D03*
D12*
X55880000Y-57785000D03*
%TD*%
D19*
%TO.C,J1*%
X16160000Y-44955000D03*
X21940000Y-44955000D03*
D20*
X23370000Y-45455000D03*
X14730000Y-45455000D03*
D21*
X23370000Y-41275000D03*
X14730000Y-41275000D03*
%TD*%
D22*
%TO.C,IC3*%
X46355000Y-45942000D03*
D23*
X49755000Y-55942000D03*
X48055000Y-55942000D03*
X46355000Y-55942000D03*
X44655000Y-55942000D03*
X42955000Y-55942000D03*
%TD*%
D24*
%TO.C,IC2*%
X50960000Y-60325000D03*
X50960000Y-61595000D03*
X50960000Y-62865000D03*
X50960000Y-64135000D03*
X45560000Y-64135000D03*
X45560000Y-62865000D03*
X45560000Y-61595000D03*
X45560000Y-60325000D03*
%TD*%
D25*
%TO.C,H1*%
X39605000Y-55880000D03*
%TD*%
D26*
%TO.C,D1*%
X16600000Y-40010000D03*
X16600000Y-43210000D03*
X21500000Y-40010000D03*
X21500000Y-43210000D03*
%TD*%
D27*
%TO.C,C13*%
X37770000Y-43815000D03*
X38430000Y-43815000D03*
%TD*%
%TO.C,C12*%
G36*
G01*
X37030000Y-42080000D02*
X37030000Y-41740000D01*
G75*
G02*
X37170000Y-41600000I140000J0D01*
G01*
X37450000Y-41600000D01*
G75*
G02*
X37590000Y-41740000I0J-140000D01*
G01*
X37590000Y-42080000D01*
G75*
G02*
X37450000Y-42220000I-140000J0D01*
G01*
X37170000Y-42220000D01*
G75*
G02*
X37030000Y-42080000I0J140000D01*
G01*
G37*
G36*
G01*
X36070000Y-42080000D02*
X36070000Y-41740000D01*
G75*
G02*
X36210000Y-41600000I140000J0D01*
G01*
X36490000Y-41600000D01*
G75*
G02*
X36630000Y-41740000I0J-140000D01*
G01*
X36630000Y-42080000D01*
G75*
G02*
X36490000Y-42220000I-140000J0D01*
G01*
X36210000Y-42220000D01*
G75*
G02*
X36070000Y-42080000I0J140000D01*
G01*
G37*
%TD*%
D28*
%TO.C,C11*%
X15415000Y-49965000D03*
X21415000Y-49965000D03*
%TD*%
D29*
%TO.C,C3*%
X25400000Y-44975000D03*
X25400000Y-47735000D03*
%TD*%
M02*
