M48
; DRILL file {KiCad (5.1.9)-1} date 07/06/21 13:24:42
; FORMAT={-:-/ absolute / inch / decimal}
; #@! TF.CreationDate,2021-07-06T13:24:42-04:00
; #@! TF.GenerationSoftware,Kicad,Pcbnew,(5.1.9)-1
; #@! TF.FileFunction,Plated,1,4,PTH
FMAT,2
INCH
T1C0.0118
T2C0.0157
T3C0.0236
T4C0.0394
T5C0.1063
%
G90
G05
T1
X0.7024Y-1.5476
X0.775Y-1.7148
X1.1109Y-1.6391
X1.125Y-1.6
X1.5515Y-1.6473
X1.75Y-2.225
X1.75Y-2.25
X1.776Y-1.574
X1.7776Y-2.3724
X1.8197Y-1.5947
X1.8919Y-2.2024
X1.8919Y-2.2331
X2.0Y-2.425
X2.175Y-1.875
T2
X0.6Y-1.975
X0.675Y-1.75
X0.8475Y-1.6975
X0.875Y-2.125
X1.125Y-1.9473
X1.1671Y-1.7671
X1.1734Y-1.8016
X1.2Y-1.775
X1.2Y-1.95
X1.275Y-1.95
X1.375Y-1.9473
X1.65Y-1.875
X1.875Y-2.425
X1.95Y-1.7
X2.0Y-1.65
X2.3291Y-1.7459
T4
X2.2Y-2.275
X2.2Y-2.375
X2.2Y-2.475
X2.35Y-2.275
X2.35Y-2.375
X2.35Y-2.475
T5
X0.65Y-2.2539
X0.65Y-2.4508
X0.975Y-2.45
X1.1719Y-2.45
X1.4211Y-2.45
X1.6179Y-2.45
T3
G00X0.5799Y-1.6093
M15
G01X0.5799Y-1.6407
M16
G05
G00X0.5799Y-1.7679
M15
G01X0.5799Y-1.8112
M16
G05
G00X0.9201Y-1.6093
M15
G01X0.9201Y-1.6407
M16
G05
G00X0.9201Y-1.7679
M15
G01X0.9201Y-1.8112
M16
G05
T0
M30
