G04 #@! TF.GenerationSoftware,KiCad,Pcbnew,(5.1.9)-1*
G04 #@! TF.CreationDate,2021-07-08T11:24:13-04:00*
G04 #@! TF.ProjectId,ESC_5A,4553435f-3541-42e6-9b69-6361645f7063,rev?*
G04 #@! TF.SameCoordinates,Original*
G04 #@! TF.FileFunction,Copper,L1,Top*
G04 #@! TF.FilePolarity,Positive*
%FSLAX46Y46*%
G04 Gerber Fmt 4.6, Leading zero omitted, Abs format (unit mm)*
G04 Created by KiCad (PCBNEW (5.1.9)-1) date 2021-07-08 11:24:13*
%MOMM*%
%LPD*%
G01*
G04 APERTURE LIST*
G04 #@! TA.AperFunction,SMDPad,CuDef*
%ADD10R,0.700000X1.000000*%
G04 #@! TD*
G04 #@! TA.AperFunction,SMDPad,CuDef*
%ADD11R,1.890000X1.140000*%
G04 #@! TD*
G04 #@! TA.AperFunction,ComponentPad*
%ADD12O,1.700000X1.700000*%
G04 #@! TD*
G04 #@! TA.AperFunction,ComponentPad*
%ADD13R,1.700000X1.700000*%
G04 #@! TD*
G04 #@! TA.AperFunction,SMDPad,CuDef*
%ADD14R,5.499999X5.499999*%
G04 #@! TD*
G04 #@! TA.AperFunction,SMDPad,CuDef*
%ADD15R,0.199200X0.704800*%
G04 #@! TD*
G04 #@! TA.AperFunction,SMDPad,CuDef*
%ADD16R,0.704800X0.199200*%
G04 #@! TD*
G04 #@! TA.AperFunction,ComponentPad*
%ADD17C,3.800000*%
G04 #@! TD*
G04 #@! TA.AperFunction,ComponentPad*
%ADD18R,3.800000X3.800000*%
G04 #@! TD*
G04 #@! TA.AperFunction,ComponentPad*
%ADD19O,1.050000X2.100000*%
G04 #@! TD*
G04 #@! TA.AperFunction,ComponentPad*
%ADD20O,1.000000X2.000000*%
G04 #@! TD*
G04 #@! TA.AperFunction,SMDPad,CuDef*
%ADD21R,10.750000X9.450000*%
G04 #@! TD*
G04 #@! TA.AperFunction,SMDPad,CuDef*
%ADD22R,1.000000X3.800000*%
G04 #@! TD*
G04 #@! TA.AperFunction,SMDPad,CuDef*
%ADD23R,1.500000X0.650000*%
G04 #@! TD*
G04 #@! TA.AperFunction,SMDPad,CuDef*
%ADD24R,1.500000X1.000000*%
G04 #@! TD*
G04 #@! TA.AperFunction,SMDPad,CuDef*
%ADD25R,0.460000X0.420000*%
G04 #@! TD*
G04 #@! TA.AperFunction,SMDPad,CuDef*
%ADD26R,3.400000X1.800000*%
G04 #@! TD*
G04 #@! TA.AperFunction,SMDPad,CuDef*
%ADD27R,1.820000X1.070000*%
G04 #@! TD*
G04 #@! TA.AperFunction,ViaPad*
%ADD28C,0.400000*%
G04 #@! TD*
G04 #@! TA.AperFunction,ViaPad*
%ADD29C,0.800000*%
G04 #@! TD*
G04 #@! TA.AperFunction,ViaPad*
%ADD30C,0.200000*%
G04 #@! TD*
G04 #@! TA.AperFunction,Conductor*
%ADD31C,0.250000*%
G04 #@! TD*
G04 #@! TA.AperFunction,Conductor*
%ADD32C,0.500000*%
G04 #@! TD*
G04 #@! TA.AperFunction,Conductor*
%ADD33C,0.750000*%
G04 #@! TD*
G04 #@! TA.AperFunction,Conductor*
%ADD34C,1.000000*%
G04 #@! TD*
G04 #@! TA.AperFunction,Conductor*
%ADD35C,1.500000*%
G04 #@! TD*
G04 #@! TA.AperFunction,Conductor*
%ADD36C,0.254000*%
G04 #@! TD*
G04 #@! TA.AperFunction,Conductor*
%ADD37C,0.100000*%
G04 #@! TD*
G04 APERTURE END LIST*
D10*
G04 #@! TO.P,S1,4*
G04 #@! TO.N,GND*
X172665000Y-146860000D03*
G04 #@! TO.P,S1,3*
X172665000Y-152860000D03*
G04 #@! TO.P,S1,2*
G04 #@! TO.N,NRST*
X168965000Y-146860000D03*
G04 #@! TO.P,S1,1*
X168965000Y-152860000D03*
G04 #@! TD*
D11*
G04 #@! TO.P,Z1,2*
G04 #@! TO.N,PWR_IN*
X134855000Y-157910000D03*
G04 #@! TO.P,Z1,1*
G04 #@! TO.N,PWR*
X134855000Y-153710000D03*
G04 #@! TD*
D12*
G04 #@! TO.P,J6,3*
G04 #@! TO.N,GND*
X173355000Y-161925000D03*
G04 #@! TO.P,J6,2*
G04 #@! TO.N,+5V*
X173355000Y-159385000D03*
D13*
G04 #@! TO.P,J6,1*
G04 #@! TO.N,PPM_2*
X173355000Y-156845000D03*
G04 #@! TD*
D14*
G04 #@! TO.P,U1,49*
G04 #@! TO.N,GND*
X145415000Y-144145000D03*
D15*
G04 #@! TO.P,U1,48*
G04 #@! TO.N,LO2*
X142665000Y-140692602D03*
G04 #@! TO.P,U1,47*
G04 #@! TO.N,LO1*
X143164999Y-140692602D03*
G04 #@! TO.P,U1,46*
G04 #@! TO.N,Net-(U1-Pad46)*
X143665001Y-140692602D03*
G04 #@! TO.P,U1,45*
G04 #@! TO.N,Net-(U1-Pad45)*
X144165000Y-140692602D03*
G04 #@! TO.P,U1,44*
G04 #@! TO.N,INB2*
X144664999Y-140692602D03*
G04 #@! TO.P,U1,43*
G04 #@! TO.N,INB1*
X145165000Y-140692602D03*
G04 #@! TO.P,U1,42*
G04 #@! TO.N,INA2*
X145665000Y-140692602D03*
G04 #@! TO.P,U1,41*
G04 #@! TO.N,INA1*
X146165001Y-140692602D03*
G04 #@! TO.P,U1,40*
G04 #@! TO.N,PWMB*
X146665000Y-140692602D03*
G04 #@! TO.P,U1,39*
G04 #@! TO.N,PWMA*
X147164999Y-140692602D03*
G04 #@! TO.P,U1,38*
G04 #@! TO.N,Net-(U1-Pad38)*
X147665001Y-140692602D03*
G04 #@! TO.P,U1,37*
G04 #@! TO.N,Net-(U1-Pad37)*
X148165000Y-140692602D03*
D16*
G04 #@! TO.P,U1,36*
G04 #@! TO.N,Net-(U1-Pad36)*
X148867398Y-141395000D03*
G04 #@! TO.P,U1,35*
G04 #@! TO.N,OSCM*
X148867398Y-141894999D03*
G04 #@! TO.P,U1,34*
G04 #@! TO.N,TBLKAB*
X148867398Y-142395001D03*
G04 #@! TO.P,U1,33*
X148867398Y-142895000D03*
G04 #@! TO.P,U1,32*
G04 #@! TO.N,VREF*
X148867398Y-143394999D03*
G04 #@! TO.P,U1,31*
X148867398Y-143895000D03*
G04 #@! TO.P,U1,30*
G04 #@! TO.N,GND*
X148867398Y-144395000D03*
G04 #@! TO.P,U1,29*
X148867398Y-144895001D03*
G04 #@! TO.P,U1,28*
G04 #@! TO.N,Net-(U1-Pad28)*
X148867398Y-145395000D03*
G04 #@! TO.P,U1,27*
G04 #@! TO.N,PWR*
X148867398Y-145894999D03*
G04 #@! TO.P,U1,26*
X148867398Y-146395001D03*
G04 #@! TO.P,U1,25*
G04 #@! TO.N,Net-(U1-Pad25)*
X148867398Y-146895000D03*
D15*
G04 #@! TO.P,U1,24*
G04 #@! TO.N,MotorB_Neg*
X148165000Y-147597398D03*
G04 #@! TO.P,U1,23*
X147665001Y-147597398D03*
G04 #@! TO.P,U1,22*
G04 #@! TO.N,GND*
X147164999Y-147597398D03*
G04 #@! TO.P,U1,21*
X146665000Y-147597398D03*
G04 #@! TO.P,U1,20*
G04 #@! TO.N,ADC_VREFB*
X146165001Y-147597398D03*
G04 #@! TO.P,U1,19*
X145665000Y-147597398D03*
G04 #@! TO.P,U1,18*
G04 #@! TO.N,ADC_MUX_GND*
X145165000Y-147597398D03*
G04 #@! TO.P,U1,17*
X144664999Y-147597398D03*
G04 #@! TO.P,U1,16*
G04 #@! TO.N,GND*
X144165000Y-147597398D03*
G04 #@! TO.P,U1,15*
X143665001Y-147597398D03*
G04 #@! TO.P,U1,14*
G04 #@! TO.N,ADC_VREFA*
X143164999Y-147597398D03*
G04 #@! TO.P,U1,13*
X142665000Y-147597398D03*
D16*
G04 #@! TO.P,U1,12*
G04 #@! TO.N,Net-(U1-Pad12)*
X141962602Y-146895000D03*
G04 #@! TO.P,U1,11*
G04 #@! TO.N,PWR*
X141962602Y-146395001D03*
G04 #@! TO.P,U1,10*
X141962602Y-145894999D03*
G04 #@! TO.P,U1,9*
G04 #@! TO.N,Net-(U1-Pad9)*
X141962602Y-145395000D03*
G04 #@! TO.P,U1,8*
G04 #@! TO.N,GND*
X141962602Y-144895001D03*
G04 #@! TO.P,U1,7*
G04 #@! TO.N,Net-(U1-Pad7)*
X141962602Y-144395000D03*
G04 #@! TO.P,U1,6*
G04 #@! TO.N,Net-(U1-Pad6)*
X141962602Y-143895000D03*
G04 #@! TO.P,U1,5*
G04 #@! TO.N,Net-(U1-Pad5)*
X141962602Y-143394999D03*
G04 #@! TO.P,U1,4*
G04 #@! TO.N,Net-(U1-Pad4)*
X141962602Y-142895000D03*
G04 #@! TO.P,U1,3*
G04 #@! TO.N,Net-(U1-Pad3)*
X141962602Y-142395001D03*
G04 #@! TO.P,U1,2*
G04 #@! TO.N,HBMODE*
X141962602Y-141894999D03*
G04 #@! TO.P,U1,1*
G04 #@! TO.N,TBLKAB*
X141962602Y-141395000D03*
G04 #@! TD*
G04 #@! TO.P,R12,2*
G04 #@! TO.N,LO2*
G04 #@! TA.AperFunction,SMDPad,CuDef*
G36*
G01*
X140575000Y-140955000D02*
X140575000Y-140585000D01*
G75*
G02*
X140710000Y-140450000I135000J0D01*
G01*
X140980000Y-140450000D01*
G75*
G02*
X141115000Y-140585000I0J-135000D01*
G01*
X141115000Y-140955000D01*
G75*
G02*
X140980000Y-141090000I-135000J0D01*
G01*
X140710000Y-141090000D01*
G75*
G02*
X140575000Y-140955000I0J135000D01*
G01*
G37*
G04 #@! TD.AperFunction*
G04 #@! TO.P,R12,1*
G04 #@! TO.N,TBLKAB*
G04 #@! TA.AperFunction,SMDPad,CuDef*
G36*
G01*
X139555000Y-140955000D02*
X139555000Y-140585000D01*
G75*
G02*
X139690000Y-140450000I135000J0D01*
G01*
X139960000Y-140450000D01*
G75*
G02*
X140095000Y-140585000I0J-135000D01*
G01*
X140095000Y-140955000D01*
G75*
G02*
X139960000Y-141090000I-135000J0D01*
G01*
X139690000Y-141090000D01*
G75*
G02*
X139555000Y-140955000I0J135000D01*
G01*
G37*
G04 #@! TD.AperFunction*
G04 #@! TD*
G04 #@! TO.P,R11,2*
G04 #@! TO.N,LO1*
G04 #@! TA.AperFunction,SMDPad,CuDef*
G36*
G01*
X140575000Y-139885000D02*
X140575000Y-139515000D01*
G75*
G02*
X140710000Y-139380000I135000J0D01*
G01*
X140980000Y-139380000D01*
G75*
G02*
X141115000Y-139515000I0J-135000D01*
G01*
X141115000Y-139885000D01*
G75*
G02*
X140980000Y-140020000I-135000J0D01*
G01*
X140710000Y-140020000D01*
G75*
G02*
X140575000Y-139885000I0J135000D01*
G01*
G37*
G04 #@! TD.AperFunction*
G04 #@! TO.P,R11,1*
G04 #@! TO.N,TBLKAB*
G04 #@! TA.AperFunction,SMDPad,CuDef*
G36*
G01*
X139555000Y-139885000D02*
X139555000Y-139515000D01*
G75*
G02*
X139690000Y-139380000I135000J0D01*
G01*
X139960000Y-139380000D01*
G75*
G02*
X140095000Y-139515000I0J-135000D01*
G01*
X140095000Y-139885000D01*
G75*
G02*
X139960000Y-140020000I-135000J0D01*
G01*
X139690000Y-140020000D01*
G75*
G02*
X139555000Y-139885000I0J135000D01*
G01*
G37*
G04 #@! TD.AperFunction*
G04 #@! TD*
G04 #@! TO.P,R10,2*
G04 #@! TO.N,VREF*
G04 #@! TA.AperFunction,SMDPad,CuDef*
G36*
G01*
X150245000Y-143905000D02*
X149875000Y-143905000D01*
G75*
G02*
X149740000Y-143770000I0J135000D01*
G01*
X149740000Y-143500000D01*
G75*
G02*
X149875000Y-143365000I135000J0D01*
G01*
X150245000Y-143365000D01*
G75*
G02*
X150380000Y-143500000I0J-135000D01*
G01*
X150380000Y-143770000D01*
G75*
G02*
X150245000Y-143905000I-135000J0D01*
G01*
G37*
G04 #@! TD.AperFunction*
G04 #@! TO.P,R10,1*
G04 #@! TO.N,GND*
G04 #@! TA.AperFunction,SMDPad,CuDef*
G36*
G01*
X150245000Y-144925000D02*
X149875000Y-144925000D01*
G75*
G02*
X149740000Y-144790000I0J135000D01*
G01*
X149740000Y-144520000D01*
G75*
G02*
X149875000Y-144385000I135000J0D01*
G01*
X150245000Y-144385000D01*
G75*
G02*
X150380000Y-144520000I0J-135000D01*
G01*
X150380000Y-144790000D01*
G75*
G02*
X150245000Y-144925000I-135000J0D01*
G01*
G37*
G04 #@! TD.AperFunction*
G04 #@! TD*
G04 #@! TO.P,R8,2*
G04 #@! TO.N,TBLKAB*
G04 #@! TA.AperFunction,SMDPad,CuDef*
G36*
G01*
X151755000Y-143895000D02*
X151755000Y-143525000D01*
G75*
G02*
X151890000Y-143390000I135000J0D01*
G01*
X152160000Y-143390000D01*
G75*
G02*
X152295000Y-143525000I0J-135000D01*
G01*
X152295000Y-143895000D01*
G75*
G02*
X152160000Y-144030000I-135000J0D01*
G01*
X151890000Y-144030000D01*
G75*
G02*
X151755000Y-143895000I0J135000D01*
G01*
G37*
G04 #@! TD.AperFunction*
G04 #@! TO.P,R8,1*
G04 #@! TO.N,VREF*
G04 #@! TA.AperFunction,SMDPad,CuDef*
G36*
G01*
X150735000Y-143895000D02*
X150735000Y-143525000D01*
G75*
G02*
X150870000Y-143390000I135000J0D01*
G01*
X151140000Y-143390000D01*
G75*
G02*
X151275000Y-143525000I0J-135000D01*
G01*
X151275000Y-143895000D01*
G75*
G02*
X151140000Y-144030000I-135000J0D01*
G01*
X150870000Y-144030000D01*
G75*
G02*
X150735000Y-143895000I0J135000D01*
G01*
G37*
G04 #@! TD.AperFunction*
G04 #@! TD*
G04 #@! TO.P,R5,2*
G04 #@! TO.N,TBLKAB*
G04 #@! TA.AperFunction,SMDPad,CuDef*
G36*
G01*
X150735000Y-142175000D02*
X150735000Y-141805000D01*
G75*
G02*
X150870000Y-141670000I135000J0D01*
G01*
X151140000Y-141670000D01*
G75*
G02*
X151275000Y-141805000I0J-135000D01*
G01*
X151275000Y-142175000D01*
G75*
G02*
X151140000Y-142310000I-135000J0D01*
G01*
X150870000Y-142310000D01*
G75*
G02*
X150735000Y-142175000I0J135000D01*
G01*
G37*
G04 #@! TD.AperFunction*
G04 #@! TO.P,R5,1*
G04 #@! TO.N,OSCM*
G04 #@! TA.AperFunction,SMDPad,CuDef*
G36*
G01*
X149715000Y-142175000D02*
X149715000Y-141805000D01*
G75*
G02*
X149850000Y-141670000I135000J0D01*
G01*
X150120000Y-141670000D01*
G75*
G02*
X150255000Y-141805000I0J-135000D01*
G01*
X150255000Y-142175000D01*
G75*
G02*
X150120000Y-142310000I-135000J0D01*
G01*
X149850000Y-142310000D01*
G75*
G02*
X149715000Y-142175000I0J135000D01*
G01*
G37*
G04 #@! TD.AperFunction*
G04 #@! TD*
G04 #@! TO.P,R3,2*
G04 #@! TO.N,GND*
G04 #@! TA.AperFunction,SMDPad,CuDef*
G36*
G01*
X133745000Y-143960000D02*
X133745000Y-144330000D01*
G75*
G02*
X133610000Y-144465000I-135000J0D01*
G01*
X133340000Y-144465000D01*
G75*
G02*
X133205000Y-144330000I0J135000D01*
G01*
X133205000Y-143960000D01*
G75*
G02*
X133340000Y-143825000I135000J0D01*
G01*
X133610000Y-143825000D01*
G75*
G02*
X133745000Y-143960000I0J-135000D01*
G01*
G37*
G04 #@! TD.AperFunction*
G04 #@! TO.P,R3,1*
G04 #@! TO.N,Net-(J1-PadB5)*
G04 #@! TA.AperFunction,SMDPad,CuDef*
G36*
G01*
X134765000Y-143960000D02*
X134765000Y-144330000D01*
G75*
G02*
X134630000Y-144465000I-135000J0D01*
G01*
X134360000Y-144465000D01*
G75*
G02*
X134225000Y-144330000I0J135000D01*
G01*
X134225000Y-143960000D01*
G75*
G02*
X134360000Y-143825000I135000J0D01*
G01*
X134630000Y-143825000D01*
G75*
G02*
X134765000Y-143960000I0J-135000D01*
G01*
G37*
G04 #@! TD.AperFunction*
G04 #@! TD*
G04 #@! TO.P,R1,2*
G04 #@! TO.N,GND*
G04 #@! TA.AperFunction,SMDPad,CuDef*
G36*
G01*
X131685000Y-144330000D02*
X131685000Y-143960000D01*
G75*
G02*
X131820000Y-143825000I135000J0D01*
G01*
X132090000Y-143825000D01*
G75*
G02*
X132225000Y-143960000I0J-135000D01*
G01*
X132225000Y-144330000D01*
G75*
G02*
X132090000Y-144465000I-135000J0D01*
G01*
X131820000Y-144465000D01*
G75*
G02*
X131685000Y-144330000I0J135000D01*
G01*
G37*
G04 #@! TD.AperFunction*
G04 #@! TO.P,R1,1*
G04 #@! TO.N,Net-(J1-PadA5)*
G04 #@! TA.AperFunction,SMDPad,CuDef*
G36*
G01*
X130665000Y-144330000D02*
X130665000Y-143960000D01*
G75*
G02*
X130800000Y-143825000I135000J0D01*
G01*
X131070000Y-143825000D01*
G75*
G02*
X131205000Y-143960000I0J-135000D01*
G01*
X131205000Y-144330000D01*
G75*
G02*
X131070000Y-144465000I-135000J0D01*
G01*
X130800000Y-144465000D01*
G75*
G02*
X130665000Y-144330000I0J135000D01*
G01*
G37*
G04 #@! TD.AperFunction*
G04 #@! TD*
D17*
G04 #@! TO.P,J5,2*
G04 #@! TO.N,GND*
X130175000Y-161310000D03*
D18*
G04 #@! TO.P,J5,1*
G04 #@! TO.N,PWR_IN*
X130175000Y-156310000D03*
G04 #@! TD*
D17*
G04 #@! TO.P,J4,2*
G04 #@! TO.N,MotorB_Neg*
X154760000Y-161290000D03*
D18*
G04 #@! TO.P,J4,1*
G04 #@! TO.N,ADC_2*
X149760000Y-161290000D03*
G04 #@! TD*
D17*
G04 #@! TO.P,J3,2*
G04 #@! TO.N,ADC_3*
X143430000Y-161290000D03*
D18*
G04 #@! TO.P,J3,1*
G04 #@! TO.N,ADC_1*
X138430000Y-161290000D03*
G04 #@! TD*
D12*
G04 #@! TO.P,J2,3*
G04 #@! TO.N,GND*
X169545000Y-161925000D03*
G04 #@! TO.P,J2,2*
G04 #@! TO.N,+5V*
X169545000Y-159385000D03*
D13*
G04 #@! TO.P,J2,1*
G04 #@! TO.N,PPM_1*
X169545000Y-156845000D03*
G04 #@! TD*
D19*
G04 #@! TO.P,J1,S4*
G04 #@! TO.N,GND*
X137035000Y-144515000D03*
G04 #@! TO.P,J1,S1*
X128395000Y-144515000D03*
D20*
G04 #@! TO.P,J1,S3*
X137035000Y-140335000D03*
G04 #@! TO.P,J1,S2*
X128395000Y-140335000D03*
G04 #@! TD*
D21*
G04 #@! TO.P,IC3,6*
G04 #@! TO.N,GND*
X160020000Y-145002000D03*
D22*
G04 #@! TO.P,IC3,5*
X163420000Y-155002000D03*
G04 #@! TO.P,IC3,4*
G04 #@! TO.N,+5V*
X161720000Y-155002000D03*
G04 #@! TO.P,IC3,3*
G04 #@! TO.N,GND*
X160020000Y-155002000D03*
G04 #@! TO.P,IC3,2*
G04 #@! TO.N,Net-(D2-Pad1)*
X158320000Y-155002000D03*
G04 #@! TO.P,IC3,1*
G04 #@! TO.N,PWR*
X156620000Y-155002000D03*
G04 #@! TD*
D23*
G04 #@! TO.P,IC2,8*
G04 #@! TO.N,+5V*
X164625000Y-159385000D03*
G04 #@! TO.P,IC2,7*
G04 #@! TO.N,GND*
X164625000Y-160655000D03*
G04 #@! TO.P,IC2,6*
X164625000Y-161925000D03*
G04 #@! TO.P,IC2,5*
G04 #@! TO.N,+5V*
X164625000Y-163195000D03*
G04 #@! TO.P,IC2,4*
G04 #@! TO.N,Net-(IC2-Pad4)*
X159225000Y-163195000D03*
G04 #@! TO.P,IC2,3*
G04 #@! TO.N,Net-(IC2-Pad3)*
X159225000Y-161925000D03*
G04 #@! TO.P,IC2,2*
G04 #@! TO.N,Net-(IC2-Pad2)*
X159225000Y-160655000D03*
G04 #@! TO.P,IC2,1*
G04 #@! TO.N,+3V3*
X159225000Y-159385000D03*
G04 #@! TD*
D24*
G04 #@! TO.P,D1,1*
G04 #@! TO.N,RGB_PWR*
X130265000Y-139070000D03*
G04 #@! TO.P,D1,2*
G04 #@! TO.N,Net-(D1-Pad2)*
X130265000Y-142270000D03*
G04 #@! TO.P,D1,4*
G04 #@! TO.N,RGB_DATA*
X135165000Y-139070000D03*
G04 #@! TO.P,D1,3*
G04 #@! TO.N,GND*
X135165000Y-142270000D03*
G04 #@! TD*
D25*
G04 #@! TO.P,C13,2*
G04 #@! TO.N,TBLKAB*
X151435000Y-142875000D03*
G04 #@! TO.P,C13,1*
G04 #@! TO.N,GND*
X152095000Y-142875000D03*
G04 #@! TD*
G04 #@! TO.P,C12,2*
G04 #@! TO.N,GND*
G04 #@! TA.AperFunction,SMDPad,CuDef*
G36*
G01*
X150695000Y-141140000D02*
X150695000Y-140800000D01*
G75*
G02*
X150835000Y-140660000I140000J0D01*
G01*
X151115000Y-140660000D01*
G75*
G02*
X151255000Y-140800000I0J-140000D01*
G01*
X151255000Y-141140000D01*
G75*
G02*
X151115000Y-141280000I-140000J0D01*
G01*
X150835000Y-141280000D01*
G75*
G02*
X150695000Y-141140000I0J140000D01*
G01*
G37*
G04 #@! TD.AperFunction*
G04 #@! TO.P,C12,1*
G04 #@! TO.N,OSCM*
G04 #@! TA.AperFunction,SMDPad,CuDef*
G36*
G01*
X149735000Y-141140000D02*
X149735000Y-140800000D01*
G75*
G02*
X149875000Y-140660000I140000J0D01*
G01*
X150155000Y-140660000D01*
G75*
G02*
X150295000Y-140800000I0J-140000D01*
G01*
X150295000Y-141140000D01*
G75*
G02*
X150155000Y-141280000I-140000J0D01*
G01*
X149875000Y-141280000D01*
G75*
G02*
X149735000Y-141140000I0J140000D01*
G01*
G37*
G04 #@! TD.AperFunction*
G04 #@! TD*
D26*
G04 #@! TO.P,C11,2*
G04 #@! TO.N,GND*
X129080000Y-149025000D03*
G04 #@! TO.P,C11,1*
G04 #@! TO.N,PWR*
X135080000Y-149025000D03*
G04 #@! TD*
D27*
G04 #@! TO.P,C3,2*
G04 #@! TO.N,GND*
X139065000Y-144035000D03*
G04 #@! TO.P,C3,1*
G04 #@! TO.N,PWR*
X139065000Y-146795000D03*
G04 #@! TD*
D28*
G04 #@! TO.N,NRST*
X168910000Y-146685000D03*
D29*
G04 #@! TO.N,GND*
X164465000Y-140970000D03*
X163195000Y-142240000D03*
X155575000Y-146685000D03*
X144145000Y-144145000D03*
X143310000Y-143945000D03*
D28*
X164465000Y-160655000D03*
D29*
X143470399Y-144819601D03*
D28*
X153073927Y-140901464D03*
D29*
X135192500Y-142177500D03*
X128905000Y-149225000D03*
D28*
G04 #@! TO.N,+3V3*
X158815000Y-159320000D03*
D29*
X161290000Y-160655000D03*
D28*
G04 #@! TO.N,+5V*
X161720000Y-155780000D03*
X161720000Y-155002000D03*
D30*
G04 #@! TO.N,TBLKAB*
X139700000Y-141605000D03*
X153030066Y-142879934D03*
D28*
G04 #@! TO.N,RGB_PWR*
X131505011Y-138369989D03*
G04 #@! TO.N,RGB_DATA*
X158774810Y-139040190D03*
G04 #@! TO.N,Net-(D2-Pad1)*
X158115000Y-155575000D03*
X158115000Y-156210000D03*
D30*
G04 #@! TO.N,HBMODE*
X140970000Y-142240000D03*
D28*
G04 #@! TO.N,PWMB*
X159885191Y-139565191D03*
D30*
G04 #@! TO.N,PWMA*
X151796529Y-140938471D03*
G04 #@! TO.N,INB2*
X143513630Y-139696370D03*
G04 #@! TO.N,INB1*
X144845958Y-139594095D03*
G04 #@! TO.N,INA2*
X145580438Y-139592144D03*
G04 #@! TO.N,INA1*
X146190000Y-139726463D03*
D29*
G04 #@! TO.N,ADC_VREFB*
X147099154Y-149639154D03*
G04 #@! TO.N,ADC_VREFA*
X139559345Y-148603001D03*
G04 #@! TO.N,ADC_MUX_GND*
X144145000Y-148590000D03*
D28*
G04 #@! TO.N,LO2*
X141882398Y-140692602D03*
G04 #@! TO.N,LO1*
X142240000Y-139700000D03*
D29*
G04 #@! TO.N,Net-(J1-PadA5)*
X130810000Y-143510000D03*
D28*
G04 #@! TO.N,Net-(J1-PadB5)*
X133350000Y-142614990D03*
D29*
G04 #@! TO.N,MotorB_Neg*
X148590000Y-148522397D03*
G04 #@! TO.N,PWR*
X135890000Y-153035000D03*
G04 #@! TD*
D31*
G04 #@! TO.N,NRST*
X168910000Y-146685000D02*
X168910000Y-146805000D01*
X168965000Y-152860000D02*
X168965000Y-146860000D01*
G04 #@! TO.N,GND*
X143665001Y-147597398D02*
X144165000Y-147597398D01*
X144165000Y-145395000D02*
X145415000Y-144145000D01*
X144165000Y-147597398D02*
X144165000Y-145395000D01*
X143665001Y-145894999D02*
X145415000Y-144145000D01*
X143665001Y-147597398D02*
X143665001Y-145894999D01*
X144664999Y-144895001D02*
X145415000Y-144145000D01*
X141962602Y-144895001D02*
X144664999Y-144895001D01*
X146165001Y-144895001D02*
X145415000Y-144145000D01*
X148867398Y-144895001D02*
X146165001Y-144895001D01*
X145665000Y-144395000D02*
X145415000Y-144145000D01*
X148867398Y-144395000D02*
X145665000Y-144395000D01*
X148867398Y-144395000D02*
X148867398Y-144895001D01*
X146665000Y-147597398D02*
X147164999Y-147597398D01*
X145415000Y-145725002D02*
X145415000Y-144145000D01*
X147164999Y-147475001D02*
X145415000Y-145725002D01*
X147164999Y-147597398D02*
X147164999Y-147475001D01*
X146665000Y-145395000D02*
X145415000Y-144145000D01*
X146665000Y-147597398D02*
X146665000Y-145395000D01*
X149819999Y-144895001D02*
X150060000Y-144655000D01*
X148867398Y-144895001D02*
X149819999Y-144895001D01*
X149800000Y-144395000D02*
X150060000Y-144655000D01*
X148867398Y-144395000D02*
X149800000Y-144395000D01*
X152095000Y-142090000D02*
X152095000Y-142875000D01*
X150975000Y-140970000D02*
X152095000Y-142090000D01*
X150060000Y-144655000D02*
X152050554Y-144655000D01*
X157893000Y-142875000D02*
X160020000Y-145002000D01*
X159103544Y-144085544D02*
X160020000Y-145002000D01*
X144740399Y-144819601D02*
X145415000Y-144145000D01*
X139849601Y-144819601D02*
X143470399Y-144819601D01*
X139065000Y-144035000D02*
X139849601Y-144819601D01*
X139925001Y-144895001D02*
X141962602Y-144895001D01*
X139065000Y-144035000D02*
X139925001Y-144895001D01*
X164625000Y-161925000D02*
X164625000Y-160655000D01*
X163420000Y-155002000D02*
X169987002Y-155002000D01*
X173355000Y-161925000D02*
X169545000Y-161925000D01*
X169545000Y-161925000D02*
X164625000Y-161925000D01*
X163420000Y-153716998D02*
X163420000Y-155002000D01*
X162480001Y-152776999D02*
X163420000Y-153716998D01*
X160095001Y-152776999D02*
X162480001Y-152776999D01*
X160020000Y-152852000D02*
X160095001Y-152776999D01*
X160020000Y-155002000D02*
X160020000Y-152852000D01*
D32*
X160020000Y-155002000D02*
X160020000Y-145002000D01*
X163420000Y-148402000D02*
X160020000Y-145002000D01*
X163420000Y-155002000D02*
X163420000Y-148402000D01*
D33*
X159623010Y-144605010D02*
X160020000Y-145002000D01*
X145875010Y-144605010D02*
X159623010Y-144605010D01*
X145415000Y-144145000D02*
X145875010Y-144605010D01*
D31*
X143470399Y-144819601D02*
X144740399Y-144819601D01*
D32*
X137515000Y-144035000D02*
X137035000Y-144515000D01*
X139065000Y-144035000D02*
X137515000Y-144035000D01*
D31*
X157372933Y-142354933D02*
X160020000Y-145002000D01*
X152615067Y-142354933D02*
X157372933Y-142354933D01*
X152095000Y-142875000D02*
X152615067Y-142354933D01*
X157174463Y-145002000D02*
X160020000Y-145002000D01*
X153073927Y-140901464D02*
X157174463Y-145002000D01*
X137600000Y-142570000D02*
X139065000Y-144035000D01*
X135165000Y-142570000D02*
X137600000Y-142570000D01*
X135165000Y-142645000D02*
X137035000Y-144515000D01*
X135165000Y-142570000D02*
X135165000Y-142645000D01*
X135165000Y-142570000D02*
X134925000Y-142570000D01*
X131955000Y-144145000D02*
X133475000Y-144145000D01*
X133475000Y-144830000D02*
X129080000Y-149225000D01*
X133475000Y-144145000D02*
X133475000Y-144830000D01*
X134984989Y-142089989D02*
X135165000Y-142270000D01*
X133097999Y-142089989D02*
X134984989Y-142089989D01*
X132824999Y-142362989D02*
X133097999Y-142089989D01*
X132824999Y-143494999D02*
X132824999Y-142362989D01*
X133475000Y-144145000D02*
X132824999Y-143494999D01*
D32*
X168501998Y-155002000D02*
X169987002Y-155002000D01*
X166151997Y-152651999D02*
X168501998Y-155002000D01*
X160859999Y-152651999D02*
X166151997Y-152651999D01*
X160020000Y-153491998D02*
X160859999Y-152651999D01*
X160020000Y-155002000D02*
X160020000Y-153491998D01*
X174655001Y-160624999D02*
X173355000Y-161925000D01*
X174655001Y-155634999D02*
X174655001Y-160624999D01*
X174022002Y-155002000D02*
X174655001Y-155634999D01*
X169987002Y-155002000D02*
X174022002Y-155002000D01*
X160020000Y-156512002D02*
X160020000Y-155002000D01*
X159180001Y-157352001D02*
X160020000Y-156512002D01*
X160020000Y-156402000D02*
X160020000Y-155002000D01*
X158024999Y-158397001D02*
X160020000Y-156402000D01*
X158024999Y-162015001D02*
X158024999Y-158397001D01*
X156399999Y-163640001D02*
X158024999Y-162015001D01*
X132505001Y-163640001D02*
X156399999Y-163640001D01*
X130175000Y-161310000D02*
X132505001Y-163640001D01*
X173355000Y-161925000D02*
X164625000Y-161925000D01*
X164625000Y-160815000D02*
X164465000Y-160655000D01*
X164625000Y-161925000D02*
X164625000Y-160815000D01*
D31*
X166359998Y-152860000D02*
X166151997Y-152651999D01*
X172665000Y-146860000D02*
X172665000Y-152860000D01*
X172665000Y-153644998D02*
X174022002Y-155002000D01*
X172665000Y-152860000D02*
X172665000Y-153644998D01*
G04 #@! TO.N,+3V3*
X160020000Y-159385000D02*
X159225000Y-159385000D01*
X161290000Y-160655000D02*
X160020000Y-159385000D01*
D34*
G04 #@! TO.N,PWR_IN*
X133255000Y-156310000D02*
X134855000Y-157910000D01*
X130175000Y-156310000D02*
X133255000Y-156310000D01*
D31*
G04 #@! TO.N,+5V*
X163549999Y-160069999D02*
X164234998Y-159385000D01*
X163625000Y-163195000D02*
X163195000Y-162765000D01*
X164625000Y-163195000D02*
X163625000Y-163195000D01*
X164234998Y-159385000D02*
X164625000Y-159385000D01*
X163195000Y-160424998D02*
X164234998Y-159385000D01*
X163195000Y-162765000D02*
X163195000Y-160424998D01*
X161720000Y-156480000D02*
X164625000Y-159385000D01*
X161720000Y-155002000D02*
X161720000Y-155002000D01*
X161720000Y-155780000D02*
X161720000Y-156480000D01*
X161720000Y-155002000D02*
X161720000Y-155780000D01*
D33*
X164625000Y-159385000D02*
X169545000Y-159385000D01*
X169545000Y-159385000D02*
X173355000Y-159385000D01*
X161720000Y-157980000D02*
X161720000Y-155002000D01*
X163125000Y-159385000D02*
X161720000Y-157980000D01*
X164625000Y-159385000D02*
X163125000Y-159385000D01*
D31*
G04 #@! TO.N,OSCM*
X149889999Y-141894999D02*
X149985000Y-141990000D01*
X148867398Y-141894999D02*
X149889999Y-141894999D01*
X149985000Y-141000000D02*
X150015000Y-140970000D01*
X149985000Y-141990000D02*
X149985000Y-141000000D01*
X150015000Y-141284400D02*
X150015000Y-140970000D01*
X149404401Y-141894999D02*
X150015000Y-141284400D01*
X148867398Y-141894999D02*
X149404401Y-141894999D01*
G04 #@! TO.N,TBLKAB*
X151435000Y-143120000D02*
X151435000Y-142875000D01*
X152025000Y-143710000D02*
X151435000Y-143120000D01*
X151435000Y-142420000D02*
X151005000Y-141990000D01*
X151435000Y-142875000D02*
X151435000Y-142420000D01*
X148867398Y-142895000D02*
X148867398Y-142395001D01*
X150359990Y-142635010D02*
X151005000Y-141990000D01*
X149310008Y-142635010D02*
X150359990Y-142635010D01*
X149069999Y-142395001D02*
X149310008Y-142635010D01*
X148867398Y-142395001D02*
X149069999Y-142395001D01*
X151415000Y-142895000D02*
X151435000Y-142875000D01*
X148867398Y-142895000D02*
X151415000Y-142895000D01*
X139825000Y-141480000D02*
X139700000Y-141605000D01*
X139825000Y-140770000D02*
X139825000Y-141480000D01*
X139825000Y-140770000D02*
X139825000Y-139700000D01*
X152200000Y-143710000D02*
X152025000Y-143710000D01*
X153030066Y-142879934D02*
X152200000Y-143710000D01*
X140470010Y-141415010D02*
X139825000Y-140770000D01*
X141203781Y-141415010D02*
X140470010Y-141415010D01*
X141223791Y-141395000D02*
X141203781Y-141415010D01*
X141962602Y-141395000D02*
X141223791Y-141395000D01*
G04 #@! TO.N,RGB_PWR*
X131265011Y-138369989D02*
X130265000Y-139370000D01*
X131505011Y-138369989D02*
X131265011Y-138369989D01*
G04 #@! TO.N,RGB_DATA*
X135694809Y-138840191D02*
X135165000Y-139370000D01*
X158774810Y-139040190D02*
X158574811Y-138840191D01*
X158574811Y-138840191D02*
X135694809Y-138840191D01*
G04 #@! TO.N,Net-(D2-Pad1)*
X158320000Y-155002000D02*
X158320000Y-154510000D01*
X158115000Y-154715000D02*
X158115000Y-156210000D01*
X158320000Y-154510000D02*
X158115000Y-154715000D01*
X158115000Y-155207000D02*
X158320000Y-155002000D01*
X158115000Y-155575000D02*
X158115000Y-155207000D01*
G04 #@! TO.N,HBMODE*
X141015201Y-142240000D02*
X140970000Y-142240000D01*
X141360202Y-141894999D02*
X141015201Y-142240000D01*
X141962602Y-141894999D02*
X141360202Y-141894999D01*
G04 #@! TO.N,PWMB*
X147119000Y-139565191D02*
X159885191Y-139565191D01*
X146665000Y-140019191D02*
X147119000Y-139565191D01*
X146665000Y-140692602D02*
X146665000Y-140019191D01*
X159885191Y-139565191D02*
X159885191Y-139565191D01*
G04 #@! TO.N,PWMA*
X147305400Y-140015201D02*
X149540201Y-140015201D01*
X147164999Y-140155602D02*
X147305400Y-140015201D01*
X147164999Y-140692602D02*
X147164999Y-140155602D01*
X151796529Y-140823903D02*
X151796529Y-140938471D01*
X150987827Y-140015201D02*
X151796529Y-140823903D01*
X147305400Y-140015201D02*
X150987827Y-140015201D01*
G04 #@! TO.N,INB2*
X144664999Y-140155599D02*
X144664999Y-140692602D01*
X144205770Y-139696370D02*
X144664999Y-140155599D01*
X143513630Y-139696370D02*
X144205770Y-139696370D01*
G04 #@! TO.N,INB1*
X145165000Y-139913137D02*
X145165000Y-140692602D01*
X144845958Y-139594095D02*
X145165000Y-139913137D01*
G04 #@! TO.N,INA2*
X145665000Y-139676706D02*
X145665000Y-140692602D01*
X145580438Y-139592144D02*
X145665000Y-139676706D01*
G04 #@! TO.N,INA1*
X146190000Y-140667603D02*
X146165001Y-140692602D01*
X146190000Y-139726463D02*
X146190000Y-140667603D01*
G04 #@! TO.N,ADC_VREFB*
X145665000Y-148205000D02*
X147099154Y-149639154D01*
X145665000Y-147597398D02*
X145665000Y-148205000D01*
X146165001Y-148705001D02*
X147099154Y-149639154D01*
X146165001Y-147597398D02*
X146165001Y-148705001D01*
D34*
X147099154Y-149639154D02*
X146050000Y-148590000D01*
D31*
G04 #@! TO.N,ADC_VREFA*
X142240000Y-148522397D02*
X142240000Y-148522397D01*
X142240000Y-147955000D02*
X142240000Y-148522397D01*
X142597602Y-147597398D02*
X142240000Y-147955000D01*
X142665000Y-147597398D02*
X142597602Y-147597398D01*
X142240000Y-148522397D02*
X143164999Y-147597398D01*
X140564948Y-147597398D02*
X139559345Y-148603001D01*
X142665000Y-147597398D02*
X140564948Y-147597398D01*
X142159396Y-148603001D02*
X143164999Y-147597398D01*
X139559345Y-148603001D02*
X142159396Y-148603001D01*
D34*
X141756600Y-148603001D02*
X142665000Y-147694601D01*
X139559345Y-148603001D02*
X141756600Y-148603001D01*
D35*
X141931591Y-148603001D02*
X142589991Y-147944601D01*
X139559345Y-148603001D02*
X141931591Y-148603001D01*
D31*
G04 #@! TO.N,ADC_MUX_GND*
X144664999Y-147597398D02*
X145165000Y-147597398D01*
X144664999Y-147597398D02*
X144664999Y-148070001D01*
X144664999Y-148070001D02*
X144145000Y-148590000D01*
X144172398Y-148590000D02*
X145165000Y-147597398D01*
X144145000Y-148590000D02*
X144172398Y-148590000D01*
X144145000Y-148590000D02*
X144145000Y-148590000D01*
G04 #@! TO.N,LO2*
X140922398Y-140692602D02*
X140845000Y-140770000D01*
X142665000Y-140692602D02*
X141882398Y-140692602D01*
X141882398Y-140692602D02*
X140922398Y-140692602D01*
G04 #@! TO.N,LO1*
X142774797Y-139700000D02*
X142240000Y-139700000D01*
X143164999Y-140090202D02*
X142774797Y-139700000D01*
X143164999Y-140692602D02*
X143164999Y-140090202D01*
X142240000Y-139700000D02*
X140845000Y-139700000D01*
G04 #@! TO.N,Net-(J1-PadA5)*
X130810000Y-144020000D02*
X130935000Y-144145000D01*
X130810000Y-143510000D02*
X130810000Y-144020000D01*
G04 #@! TO.N,Net-(J1-PadB5)*
X133350000Y-143000000D02*
X134495000Y-144145000D01*
X133350000Y-142614990D02*
X133350000Y-143000000D01*
G04 #@! TO.N,MotorB_Neg*
X148590000Y-148522397D02*
X148590000Y-148522397D01*
X148590000Y-147955000D02*
X148590000Y-148522397D01*
X148232398Y-147597398D02*
X148590000Y-147955000D01*
X148165000Y-147597398D02*
X148232398Y-147597398D01*
X148590000Y-148522397D02*
X147665001Y-147597398D01*
D33*
X148022603Y-147955000D02*
X148022603Y-147470001D01*
X148022603Y-147955000D02*
X148590000Y-148522397D01*
D31*
G04 #@! TO.N,VREF*
X148867398Y-143895000D02*
X148867398Y-143394999D01*
X149819999Y-143394999D02*
X150060000Y-143635000D01*
X148867398Y-143394999D02*
X149819999Y-143394999D01*
X149800000Y-143895000D02*
X150060000Y-143635000D01*
X148867398Y-143895000D02*
X149800000Y-143895000D01*
X150930000Y-143635000D02*
X151005000Y-143710000D01*
X150060000Y-143635000D02*
X150930000Y-143635000D01*
G04 #@! TO.N,PWR*
X141259999Y-146395001D02*
X141962602Y-146395001D01*
X141962602Y-145894999D02*
X141760001Y-145894999D01*
X148867398Y-145894999D02*
X149704999Y-145894999D01*
X149704999Y-145894999D02*
X149860000Y-146050000D01*
X149212399Y-146050000D02*
X148867398Y-146395001D01*
X149860000Y-146050000D02*
X149212399Y-146050000D01*
X141760001Y-145894999D02*
X141605000Y-146050000D01*
X141605000Y-146050000D02*
X141259999Y-146395001D01*
D32*
X149860000Y-146050000D02*
X150495000Y-146685000D01*
D31*
X156620000Y-153445000D02*
X150495000Y-147320000D01*
X156620000Y-155002000D02*
X156620000Y-153445000D01*
D34*
X150495000Y-146685000D02*
X150495000Y-147320000D01*
X140895000Y-155040000D02*
X135080000Y-149225000D01*
X143700399Y-155040000D02*
X140895000Y-155040000D01*
X135255000Y-149400000D02*
X135080000Y-149225000D01*
X134855000Y-149250000D02*
X135080000Y-149025000D01*
X134855000Y-153710000D02*
X134855000Y-149250000D01*
X136835000Y-149025000D02*
X139065000Y-146795000D01*
X135080000Y-149025000D02*
X136835000Y-149025000D01*
X140350600Y-146795000D02*
X141000600Y-146145000D01*
X139065000Y-146795000D02*
X140350600Y-146795000D01*
D32*
X141900399Y-146345399D02*
X141962602Y-146345399D01*
X141700000Y-146145000D02*
X141900399Y-146345399D01*
X141000600Y-146145000D02*
X141700000Y-146145000D01*
D33*
X135215000Y-153710000D02*
X135890000Y-153035000D01*
X134855000Y-153710000D02*
X135215000Y-153710000D01*
D34*
X145950000Y-155040000D02*
X140895000Y-155040000D01*
X150495000Y-150495000D02*
X145950000Y-155040000D01*
X150495000Y-147320000D02*
X150495000Y-150495000D01*
G04 #@! TD*
D36*
G04 #@! TO.N,PWR*
X136807601Y-146183215D02*
X137035000Y-146205612D01*
X137262400Y-146183215D01*
X137282888Y-146177000D01*
X141461286Y-146177000D01*
X141366022Y-146205898D01*
X141255708Y-146264863D01*
X141159017Y-146344215D01*
X141079665Y-146440906D01*
X141020700Y-146551220D01*
X140984390Y-146670918D01*
X140972130Y-146795400D01*
X140972130Y-146837398D01*
X140602270Y-146837398D01*
X140564947Y-146833722D01*
X140527624Y-146837398D01*
X140527615Y-146837398D01*
X140415962Y-146848395D01*
X140272701Y-146891852D01*
X140140672Y-146962424D01*
X140140670Y-146962425D01*
X140140671Y-146962425D01*
X140053944Y-147033599D01*
X140053940Y-147033603D01*
X140024947Y-147057397D01*
X140001153Y-147086390D01*
X139869542Y-147218001D01*
X139491308Y-147218001D01*
X139287838Y-147238041D01*
X139026764Y-147317237D01*
X138786157Y-147445844D01*
X138575264Y-147618920D01*
X138402188Y-147829813D01*
X138273581Y-148070420D01*
X138194385Y-148331494D01*
X138167644Y-148603001D01*
X138194385Y-148874508D01*
X138273581Y-149135582D01*
X138402188Y-149376189D01*
X138575264Y-149587082D01*
X138786157Y-149760158D01*
X139026764Y-149888765D01*
X139287838Y-149967961D01*
X139491308Y-149988001D01*
X141863562Y-149988001D01*
X141931591Y-149994701D01*
X141999620Y-149988001D01*
X141999628Y-149988001D01*
X142203098Y-149967961D01*
X142464172Y-149888765D01*
X142704779Y-149760158D01*
X142915672Y-149587082D01*
X142959045Y-149534232D01*
X143301986Y-149191291D01*
X143341063Y-149249774D01*
X143485226Y-149393937D01*
X143654744Y-149507205D01*
X143843102Y-149585226D01*
X144043061Y-149625000D01*
X144246939Y-149625000D01*
X144446898Y-149585226D01*
X144635256Y-149507205D01*
X144804774Y-149393937D01*
X144948937Y-149249774D01*
X145041583Y-149111119D01*
X145101717Y-149223622D01*
X145208012Y-149353143D01*
X146336010Y-150481142D01*
X146465531Y-150587438D01*
X146662707Y-150692830D01*
X146876655Y-150757731D01*
X147099154Y-150779645D01*
X147321653Y-150757731D01*
X147535600Y-150692830D01*
X147732776Y-150587438D01*
X147905603Y-150445603D01*
X148047438Y-150272776D01*
X148152830Y-150075600D01*
X148217731Y-149861653D01*
X148239645Y-149639154D01*
X148225105Y-149491529D01*
X148288102Y-149517623D01*
X148488061Y-149557397D01*
X148691939Y-149557397D01*
X148891898Y-149517623D01*
X149080256Y-149439602D01*
X149249774Y-149326334D01*
X149393937Y-149182171D01*
X149507205Y-149012653D01*
X149585226Y-148824295D01*
X149625000Y-148624336D01*
X149625000Y-148420458D01*
X149585226Y-148220499D01*
X149507205Y-148032141D01*
X149393937Y-147862623D01*
X149339186Y-147807872D01*
X149339003Y-147806014D01*
X149295546Y-147662753D01*
X149276483Y-147627089D01*
X149344280Y-147620412D01*
X149463978Y-147584102D01*
X149574292Y-147525137D01*
X149670983Y-147445785D01*
X149750335Y-147349094D01*
X149809300Y-147238780D01*
X149845610Y-147119082D01*
X149857870Y-146994600D01*
X149857870Y-146795400D01*
X149845610Y-146670918D01*
X149809300Y-146551220D01*
X149750335Y-146440906D01*
X149670983Y-146344215D01*
X149574292Y-146264863D01*
X149463978Y-146205898D01*
X149368714Y-146177000D01*
X151638000Y-146177000D01*
X151638000Y-154346223D01*
X151601675Y-154433919D01*
X151535000Y-154769117D01*
X151535000Y-155110883D01*
X151601675Y-155446081D01*
X151638000Y-155533777D01*
X151638000Y-157988000D01*
X138557000Y-157988000D01*
X138557000Y-155575000D01*
X138554560Y-155550224D01*
X138547333Y-155526399D01*
X138535597Y-155504443D01*
X138519803Y-155485197D01*
X138500557Y-155469403D01*
X138478601Y-155457667D01*
X138454776Y-155450440D01*
X138430000Y-155448000D01*
X134747000Y-155448000D01*
X134747000Y-153035000D01*
X134744560Y-153010224D01*
X134737333Y-152986399D01*
X134725597Y-152964443D01*
X134709803Y-152945197D01*
X134690557Y-152929403D01*
X134668601Y-152917667D01*
X134644776Y-152910440D01*
X134620000Y-152908000D01*
X127762000Y-152908000D01*
X127762000Y-150563072D01*
X130780000Y-150563072D01*
X130904482Y-150550812D01*
X131024180Y-150514502D01*
X131134494Y-150455537D01*
X131231185Y-150376185D01*
X131310537Y-150279494D01*
X131369502Y-150169180D01*
X131405812Y-150049482D01*
X131418072Y-149925000D01*
X131418072Y-148125000D01*
X131405812Y-148000518D01*
X131399638Y-147980164D01*
X133202802Y-146177000D01*
X136787113Y-146177000D01*
X136807601Y-146183215D01*
G04 #@! TA.AperFunction,Conductor*
D37*
G36*
X136807601Y-146183215D02*
G01*
X137035000Y-146205612D01*
X137262400Y-146183215D01*
X137282888Y-146177000D01*
X141461286Y-146177000D01*
X141366022Y-146205898D01*
X141255708Y-146264863D01*
X141159017Y-146344215D01*
X141079665Y-146440906D01*
X141020700Y-146551220D01*
X140984390Y-146670918D01*
X140972130Y-146795400D01*
X140972130Y-146837398D01*
X140602270Y-146837398D01*
X140564947Y-146833722D01*
X140527624Y-146837398D01*
X140527615Y-146837398D01*
X140415962Y-146848395D01*
X140272701Y-146891852D01*
X140140672Y-146962424D01*
X140140670Y-146962425D01*
X140140671Y-146962425D01*
X140053944Y-147033599D01*
X140053940Y-147033603D01*
X140024947Y-147057397D01*
X140001153Y-147086390D01*
X139869542Y-147218001D01*
X139491308Y-147218001D01*
X139287838Y-147238041D01*
X139026764Y-147317237D01*
X138786157Y-147445844D01*
X138575264Y-147618920D01*
X138402188Y-147829813D01*
X138273581Y-148070420D01*
X138194385Y-148331494D01*
X138167644Y-148603001D01*
X138194385Y-148874508D01*
X138273581Y-149135582D01*
X138402188Y-149376189D01*
X138575264Y-149587082D01*
X138786157Y-149760158D01*
X139026764Y-149888765D01*
X139287838Y-149967961D01*
X139491308Y-149988001D01*
X141863562Y-149988001D01*
X141931591Y-149994701D01*
X141999620Y-149988001D01*
X141999628Y-149988001D01*
X142203098Y-149967961D01*
X142464172Y-149888765D01*
X142704779Y-149760158D01*
X142915672Y-149587082D01*
X142959045Y-149534232D01*
X143301986Y-149191291D01*
X143341063Y-149249774D01*
X143485226Y-149393937D01*
X143654744Y-149507205D01*
X143843102Y-149585226D01*
X144043061Y-149625000D01*
X144246939Y-149625000D01*
X144446898Y-149585226D01*
X144635256Y-149507205D01*
X144804774Y-149393937D01*
X144948937Y-149249774D01*
X145041583Y-149111119D01*
X145101717Y-149223622D01*
X145208012Y-149353143D01*
X146336010Y-150481142D01*
X146465531Y-150587438D01*
X146662707Y-150692830D01*
X146876655Y-150757731D01*
X147099154Y-150779645D01*
X147321653Y-150757731D01*
X147535600Y-150692830D01*
X147732776Y-150587438D01*
X147905603Y-150445603D01*
X148047438Y-150272776D01*
X148152830Y-150075600D01*
X148217731Y-149861653D01*
X148239645Y-149639154D01*
X148225105Y-149491529D01*
X148288102Y-149517623D01*
X148488061Y-149557397D01*
X148691939Y-149557397D01*
X148891898Y-149517623D01*
X149080256Y-149439602D01*
X149249774Y-149326334D01*
X149393937Y-149182171D01*
X149507205Y-149012653D01*
X149585226Y-148824295D01*
X149625000Y-148624336D01*
X149625000Y-148420458D01*
X149585226Y-148220499D01*
X149507205Y-148032141D01*
X149393937Y-147862623D01*
X149339186Y-147807872D01*
X149339003Y-147806014D01*
X149295546Y-147662753D01*
X149276483Y-147627089D01*
X149344280Y-147620412D01*
X149463978Y-147584102D01*
X149574292Y-147525137D01*
X149670983Y-147445785D01*
X149750335Y-147349094D01*
X149809300Y-147238780D01*
X149845610Y-147119082D01*
X149857870Y-146994600D01*
X149857870Y-146795400D01*
X149845610Y-146670918D01*
X149809300Y-146551220D01*
X149750335Y-146440906D01*
X149670983Y-146344215D01*
X149574292Y-146264863D01*
X149463978Y-146205898D01*
X149368714Y-146177000D01*
X151638000Y-146177000D01*
X151638000Y-154346223D01*
X151601675Y-154433919D01*
X151535000Y-154769117D01*
X151535000Y-155110883D01*
X151601675Y-155446081D01*
X151638000Y-155533777D01*
X151638000Y-157988000D01*
X138557000Y-157988000D01*
X138557000Y-155575000D01*
X138554560Y-155550224D01*
X138547333Y-155526399D01*
X138535597Y-155504443D01*
X138519803Y-155485197D01*
X138500557Y-155469403D01*
X138478601Y-155457667D01*
X138454776Y-155450440D01*
X138430000Y-155448000D01*
X134747000Y-155448000D01*
X134747000Y-153035000D01*
X134744560Y-153010224D01*
X134737333Y-152986399D01*
X134725597Y-152964443D01*
X134709803Y-152945197D01*
X134690557Y-152929403D01*
X134668601Y-152917667D01*
X134644776Y-152910440D01*
X134620000Y-152908000D01*
X127762000Y-152908000D01*
X127762000Y-150563072D01*
X130780000Y-150563072D01*
X130904482Y-150550812D01*
X131024180Y-150514502D01*
X131134494Y-150455537D01*
X131231185Y-150376185D01*
X131310537Y-150279494D01*
X131369502Y-150169180D01*
X131405812Y-150049482D01*
X131418072Y-149925000D01*
X131418072Y-148125000D01*
X131405812Y-148000518D01*
X131399638Y-147980164D01*
X133202802Y-146177000D01*
X136787113Y-146177000D01*
X136807601Y-146183215D01*
G37*
G04 #@! TD.AperFunction*
G04 #@! TD*
D36*
G04 #@! TO.N,PWR_IN*
X133271928Y-154280000D02*
X133284188Y-154404482D01*
X133320498Y-154524180D01*
X133379463Y-154634494D01*
X133458815Y-154731185D01*
X133555506Y-154810537D01*
X133665820Y-154869502D01*
X133785518Y-154905812D01*
X133858000Y-154912951D01*
X133858000Y-156210000D01*
X133860440Y-156234776D01*
X133867667Y-156258601D01*
X133879403Y-156280557D01*
X133895197Y-156299803D01*
X133914443Y-156315597D01*
X133936399Y-156327333D01*
X133960224Y-156334560D01*
X133985000Y-156337000D01*
X137033000Y-156337000D01*
X137033000Y-158623000D01*
X127762000Y-158623000D01*
X127762000Y-153797000D01*
X133271928Y-153797000D01*
X133271928Y-154280000D01*
G04 #@! TA.AperFunction,Conductor*
D37*
G36*
X133271928Y-154280000D02*
G01*
X133284188Y-154404482D01*
X133320498Y-154524180D01*
X133379463Y-154634494D01*
X133458815Y-154731185D01*
X133555506Y-154810537D01*
X133665820Y-154869502D01*
X133785518Y-154905812D01*
X133858000Y-154912951D01*
X133858000Y-156210000D01*
X133860440Y-156234776D01*
X133867667Y-156258601D01*
X133879403Y-156280557D01*
X133895197Y-156299803D01*
X133914443Y-156315597D01*
X133936399Y-156327333D01*
X133960224Y-156334560D01*
X133985000Y-156337000D01*
X137033000Y-156337000D01*
X137033000Y-158623000D01*
X127762000Y-158623000D01*
X127762000Y-153797000D01*
X133271928Y-153797000D01*
X133271928Y-154280000D01*
G37*
G04 #@! TD.AperFunction*
G04 #@! TD*
M02*
